<?xml version="1.0" standalone="no"?><!DOCTYPE svg PUBLIC "-//W3C//DTD SVG 1.1//EN" "http://www.w3.org/Graphics/SVG/1.1/DTD/svg11.dtd" ><svg version="1.1" xmlns="http://www.w3.org/2000/svg"><defs><font horiz-adv-x="0" id="font"><font-face ascent="832" bbox="-255 -268 1373 1002" cap-height="678" descent="-168" font-family="Gustan Bold Italic" font-stretch="normal" font-style="italic" font-weight="600" units-per-em="1000" x-height="510" /><missing-glyph d="M800 115V665L525 390ZM160 665V115L435 390ZM480 435 759 714H201ZM201 66H759L480 345ZM90 780H870V0H90Z" horiz-adv-x="960" /><glyph d="M424 261 403 403Q397 448 392 485Q387 522 384 554H381Q367 522 350 485Q333 448 310 403L237 261ZM440 157H181L101 0H-47L322 678H480L599 0H463Z" glyph-name="A" horiz-adv-x="646" unicode="A" /><glyph d="M278 261H477L533 561H531Q507 532 479.5 498.5Q452 465 418 425ZM882 0H429L458 157H185L45 0H-127L489 678H1000L980 571H672L640 399H904L885 292H621L586 107H901Z" glyph-name="AE" horiz-adv-x="960" unicode="&#198;" /><glyph d="M752 733H639L772 846H933ZM278 261H477L533 561H531Q507 532 479.5 498.5Q452 465 418 425ZM882 0H429L458 157H185L45 0H-127L489 678H1000L980 571H672L640 399H904L885 292H621L586 107H901Z" glyph-name="AEacute" horiz-adv-x="960" unicode="&#508;" /><glyph d="M814 756H454L471 846H831ZM278 261H477L533 561H531Q507 532 479.5 498.5Q452 465 418 425ZM882 0H429L458 157H185L45 0H-127L489 678H1000L980 571H672L640 399H904L885 292H621L586 107H901Z" glyph-name="AEmacron" horiz-adv-x="960" unicode="&#482;" /><glyph d="M468 733H355L488 846H649ZM424 261 403 403Q397 448 392 485Q387 522 384 554H381Q367 522 350 485Q333 448 310 403L237 261ZM440 157H181L101 0H-47L322 678H480L599 0H463Z" glyph-name="Aacute" horiz-adv-x="646" unicode="&#193;" /><glyph d="M419 795Q443 795 462 800Q481 805 495 819Q505 829 513 846H619Q611 824 603 808Q595 792 579 776Q548 745 505 732Q462 719 411 719Q366 719 331.5 729Q297 739 275 761Q260 776 250 797Q240 818 241 846H343Q344 826 357 813Q375 795 419 795ZM424 261 403 403Q397 448 392 485Q387 522 384 554H381Q367 522 350 485Q333 448 310 403L237 261ZM440 157H181L101 0H-47L322 678H480L599 0H463Z" glyph-name="Abreve" horiz-adv-x="646" unicode="&#258;" /><glyph d="M350 729 251 849H365L415 792L487 849H612L468 729ZM424 261 403 403Q397 448 392 485Q387 522 384 554H381Q367 522 350 485Q333 448 310 403L237 261ZM440 157H181L101 0H-47L322 678H480L599 0H463Z" glyph-name="Acaron" horiz-adv-x="646" unicode="&#461;" /><glyph d="M491 849 590 729H476L426 786L354 729H229L373 849ZM424 261 403 403Q397 448 392 485Q387 522 384 554H381Q367 522 350 485Q333 448 310 403L237 261ZM440 157H181L101 0H-47L322 678H480L599 0H463Z" glyph-name="Acircumflex" horiz-adv-x="646" unicode="&#194;" /><glyph d="M585 740H459L478 844H604ZM360 740H234L253 844H379ZM424 261 403 403Q397 448 392 485Q387 522 384 554H381Q367 522 350 485Q333 448 310 403L237 261ZM440 157H181L101 0H-47L322 678H480L599 0H463Z" glyph-name="Adieresis" horiz-adv-x="646" unicode="&#196;" /><glyph d="M622 912H262L278 1002H638ZM587 738H457L477 846H607ZM362 738H232L252 846H382ZM424 261 403 403Q397 448 392 485Q387 522 384 554H381Q367 522 350 485Q333 448 310 403L237 261ZM440 157H181L101 0H-47L322 678H480L599 0H463Z" glyph-name="Adieresismacron" horiz-adv-x="646" unicode="&#478;" /><glyph d="M478 742H346L365 846H497ZM424 261 403 403Q397 448 392 485Q387 522 384 554H381Q367 522 350 485Q333 448 310 403L237 261ZM440 157H181L101 0H-47L322 678H480L599 0H463Z" glyph-name="Adotabove" horiz-adv-x="646" unicode="&#550;" /><glyph d="M137 846H277L366 731H274ZM323 846H463L552 731H460ZM424 261 403 403Q397 448 392 485Q387 522 384 554H381Q367 522 350 485Q333 448 310 403L237 261ZM440 157H181L101 0H-47L322 678H480L599 0H463Z" glyph-name="Adoublegrave" horiz-adv-x="646" unicode="&#512;" /><glyph d="M219 846H373L464 733H358ZM424 261 403 403Q397 448 392 485Q387 522 384 554H381Q367 522 350 485Q333 448 310 403L237 261ZM440 157H181L101 0H-47L322 678H480L599 0H463Z" glyph-name="Agrave" horiz-adv-x="646" unicode="&#192;" /><glyph d="M421 782Q397 782 378 777Q359 772 345 758Q334 747 327 731H221Q229 753 237 769Q245 785 261 801Q292 832 335 845Q378 858 429 858Q474 858 508.5 848Q543 838 565 816Q580 801 590 780Q600 759 599 731H497Q496 751 483 764Q465 782 421 782ZM424 261 403 403Q397 448 392 485Q387 522 384 554H381Q367 522 350 485Q333 448 310 403L237 261ZM440 157H181L101 0H-47L322 678H480L599 0H463Z" glyph-name="Ainvertedbreve" horiz-adv-x="646" unicode="&#514;" /><glyph d="M592 756H232L249 846H609ZM424 261 403 403Q397 448 392 485Q387 522 384 554H381Q367 522 350 485Q333 448 310 403L237 261ZM440 157H181L101 0H-47L322 678H480L599 0H463Z" glyph-name="Amacron" horiz-adv-x="646" unicode="&#256;" /><glyph d="M99 0H-47L322 678H480L599 0H463L415 314Q411 341 406.5 373.5Q402 406 397.5 438.5Q393 471 389 499.5Q385 528 383 546H380Q371 527 356.5 499Q342 471 325.5 439Q309 407 293 374Q277 341 264 314Z" glyph-name="Anocross" horiz-adv-x="646" unicode="&#59185;" /><glyph d="M424 261 403 403Q397 448 392 485Q387 522 384 554H381Q367 522 350 485Q333 448 310 403L237 261ZM440 157H181L101 0H-47L322 678H480L599 0Q581 -8 568.5 -17.5Q556 -27 547 -36Q537 -46 528.5 -59.5Q520 -73 520 -87Q520 -99 526 -105Q534 -113 556 -113Q573 -113 588.5 -111Q604 -109 626 -102L613 -170Q590 -178 563 -181Q536 -184 519 -184Q462 -184 439 -162Q431 -154 426 -141Q421 -128 421 -116Q421 -90 433 -70Q445 -50 465 -30Q481 -14 504 0H463Z" glyph-name="Aogonek" horiz-adv-x="646" unicode="&#260;" /><glyph d="M409 721Q357 721 334 744Q326 751 322 762.5Q318 774 318 787Q318 804 323 821.5Q328 839 342 853Q359 870 383 875.5Q407 881 436 881Q488 881 511 858Q519 851 523 839.5Q527 828 527 815Q527 798 522 780.5Q517 763 503 749Q486 732 462 726.5Q438 721 409 721ZM418 771Q439 771 449 781Q455 787 457.5 795Q460 803 460 811Q460 822 454 828Q448 834 430 834Q409 834 399 824Q393 818 390.5 810Q388 802 388 794Q388 783 394 777Q400 771 418 771ZM424 261 403 403Q397 448 392 485Q387 522 384 554H381Q367 522 350 485Q333 448 310 403L237 261ZM440 157H181L101 0H-47L322 678H480L599 0H463Z" glyph-name="Aring" horiz-adv-x="646" unicode="&#197;" /><glyph d="M420 773Q441 773 451 783Q457 789 459.5 797Q462 805 462 813Q462 824 456 830Q450 836 432 836Q411 836 401 826Q395 820 392.5 812Q390 804 390 796Q390 785 396 779Q402 773 420 773ZM529 817Q529 800 524 782.5Q519 765 505 751Q488 734 464 728.5Q440 723 411 723Q359 723 336 746Q328 753 324 764.5Q320 776 320 789Q320 806 327.5 828Q335 850 358 868L469 957H557L464 879Q490 879 509.5 862.5Q529 846 529 817ZM424 261 403 403Q397 448 392 485Q387 522 384 554H381Q367 522 350 485Q333 448 310 403L237 261ZM440 157H181L101 0H-47L322 678H480L599 0H463Z" glyph-name="Aringacute" horiz-adv-x="646" unicode="&#506;" /><glyph d="M424 261 403 403Q397 448 392 485Q387 522 384 554H381Q367 522 350 485Q333 448 310 403L237 261ZM503 828Q526 828 558.5 840Q591 852 614 867L598 779Q589 772 575 765Q561 758 545.5 752.5Q530 747 514 743.5Q498 740 485 740Q461 740 443 745Q425 750 409 756Q393 762 377 767Q361 772 342 772Q318 772 285 760Q252 748 226 734L243 823Q253 829 267.5 836Q282 843 298 849Q314 855 330 858.5Q346 862 359 862Q384 862 401.5 856.5Q419 851 435 845Q451 839 466.5 833.5Q482 828 503 828ZM440 157H181L101 0H-47L322 678H480L599 0H463Z" glyph-name="Atilde" horiz-adv-x="646" unicode="&#195;" /><glyph d="M455 224Q455 253 439 271Q427 285 405.5 290Q384 295 353 295H226L190 101H326Q354 101 380 105.5Q406 110 423 127Q442 146 448.5 174Q455 202 455 224ZM367 396Q428 396 456 424Q473 441 481 466Q489 491 489 514Q489 526 486 538.5Q483 551 475 559Q463 571 443 573.5Q423 576 394 576H278L245 396ZM516 344Q525 339 535.5 332Q546 325 556 314Q573 297 584.5 271.5Q596 246 596 212Q596 166 580 124.5Q564 83 534 53Q514 33 484.5 22.5Q455 12 422 7Q389 2 355.5 1Q322 0 295 0H34L159 678H411Q477 678 524.5 667Q572 656 602 626Q620 608 628 584.5Q636 561 636 535Q636 493 622 455.5Q608 418 580 390Q564 374 547 364Q530 354 516 346Z" glyph-name="B" horiz-adv-x="643" unicode="B" /><glyph d="M50 229Q50 275 57.5 328.5Q65 382 80 433Q95 484 118 529Q141 574 172 605Q221 654 286 674Q351 694 434 694Q443 694 462.5 693.5Q482 693 506.5 690.5Q531 688 557 683.5Q583 679 604 671L585 566Q564 572 542.5 576Q521 580 501 582Q481 584 464.5 585Q448 586 438 586Q390 586 355 575Q320 564 292 536Q269 513 251.5 473.5Q234 434 222 389Q210 344 204 301Q198 258 198 228Q198 193 206 169.5Q214 146 229 131Q248 112 277 105Q306 98 348 98Q363 98 384 99.5Q405 101 428.5 104.5Q452 108 475 112.5Q498 117 518 123L498 12Q477 4 451.5 -1.5Q426 -7 400.5 -10Q375 -13 352 -14.5Q329 -16 313 -16Q252 -16 197 0.5Q142 17 110 49Q83 76 66.5 122.5Q50 169 50 229Z" glyph-name="C" horiz-adv-x="577" unicode="C" /><glyph d="M450 733H337L470 846H631ZM50 229Q50 275 57.5 328.5Q65 382 80 433Q95 484 118 529Q141 574 172 605Q221 654 286 674Q351 694 434 694Q443 694 462.5 693.5Q482 693 506.5 690.5Q531 688 557 683.5Q583 679 604 671L585 566Q564 572 542.5 576Q521 580 501 582Q481 584 464.5 585Q448 586 438 586Q390 586 355 575Q320 564 292 536Q269 513 251.5 473.5Q234 434 222 389Q210 344 204 301Q198 258 198 228Q198 193 206 169.5Q214 146 229 131Q248 112 277 105Q306 98 348 98Q363 98 384 99.5Q405 101 428.5 104.5Q452 108 475 112.5Q498 117 518 123L498 12Q477 4 451.5 -1.5Q426 -7 400.5 -10Q375 -13 352 -14.5Q329 -16 313 -16Q252 -16 197 0.5Q142 17 110 49Q83 76 66.5 122.5Q50 169 50 229Z" glyph-name="Cacute" horiz-adv-x="577" unicode="&#262;" /><glyph d="M360 729 261 849H375L425 792L497 849H622L478 729ZM50 229Q50 275 57.5 328.5Q65 382 80 433Q95 484 118 529Q141 574 172 605Q221 654 286 674Q351 694 434 694Q443 694 462.5 693.5Q482 693 506.5 690.5Q531 688 557 683.5Q583 679 604 671L585 566Q564 572 542.5 576Q521 580 501 582Q481 584 464.5 585Q448 586 438 586Q390 586 355 575Q320 564 292 536Q269 513 251.5 473.5Q234 434 222 389Q210 344 204 301Q198 258 198 228Q198 193 206 169.5Q214 146 229 131Q248 112 277 105Q306 98 348 98Q363 98 384 99.5Q405 101 428.5 104.5Q452 108 475 112.5Q498 117 518 123L498 12Q477 4 451.5 -1.5Q426 -7 400.5 -10Q375 -13 352 -14.5Q329 -16 313 -16Q252 -16 197 0.5Q142 17 110 49Q83 76 66.5 122.5Q50 169 50 229Z" glyph-name="Ccaron" horiz-adv-x="577" unicode="&#268;" /><glyph d="M255 -12Q210 -6 172 9Q134 24 110 49Q83 76 66.5 122.5Q50 169 50 229Q50 275 57.5 328.5Q65 382 80 433Q95 484 118 529Q141 574 172 605Q221 654 286 674Q351 694 434 694Q443 694 462.5 693.5Q482 693 506.5 690.5Q531 688 557 683.5Q583 679 604 671L585 566Q564 572 542.5 576Q521 580 501 582Q481 584 464.5 585Q448 586 438 586Q390 586 355 575Q320 564 292 536Q269 513 251.5 473.5Q234 434 222 389Q210 344 204 301Q198 258 198 228Q198 193 206 169.5Q214 146 229 131Q248 112 277 105Q306 98 348 98Q363 98 384 99.5Q405 101 428.5 104.5Q452 108 475 112.5Q498 117 518 123L498 12Q465 0 423.5 -6.5Q382 -13 348 -15L331 -43Q356 -52 367 -63Q375 -71 377.5 -80.5Q380 -90 380 -98Q380 -126 358 -148Q322 -184 229 -184Q208 -184 186.5 -181.5Q165 -179 137 -170L150 -102Q176 -111 194 -114Q212 -117 224 -117Q229 -117 237 -116.5Q245 -116 253 -114Q261 -112 266.5 -107.5Q272 -103 272 -95Q272 -84 260 -80.5Q248 -77 234 -75L233 -48Z" glyph-name="Ccedilla" horiz-adv-x="577" unicode="&#199;" /><glyph d="M507 849 606 729H492L442 786L370 729H245L389 849ZM50 229Q50 275 57.5 328.5Q65 382 80 433Q95 484 118 529Q141 574 172 605Q221 654 286 674Q351 694 434 694Q443 694 462.5 693.5Q482 693 506.5 690.5Q531 688 557 683.5Q583 679 604 671L585 566Q564 572 542.5 576Q521 580 501 582Q481 584 464.5 585Q448 586 438 586Q390 586 355 575Q320 564 292 536Q269 513 251.5 473.5Q234 434 222 389Q210 344 204 301Q198 258 198 228Q198 193 206 169.5Q214 146 229 131Q248 112 277 105Q306 98 348 98Q363 98 384 99.5Q405 101 428.5 104.5Q452 108 475 112.5Q498 117 518 123L498 12Q477 4 451.5 -1.5Q426 -7 400.5 -10Q375 -13 352 -14.5Q329 -16 313 -16Q252 -16 197 0.5Q142 17 110 49Q83 76 66.5 122.5Q50 169 50 229Z" glyph-name="Ccircumflex" horiz-adv-x="577" unicode="&#264;" /><glyph d="M491 742H359L378 846H510ZM50 229Q50 275 57.5 328.5Q65 382 80 433Q95 484 118 529Q141 574 172 605Q221 654 286 674Q351 694 434 694Q443 694 462.5 693.5Q482 693 506.5 690.5Q531 688 557 683.5Q583 679 604 671L585 566Q564 572 542.5 576Q521 580 501 582Q481 584 464.5 585Q448 586 438 586Q390 586 355 575Q320 564 292 536Q269 513 251.5 473.5Q234 434 222 389Q210 344 204 301Q198 258 198 228Q198 193 206 169.5Q214 146 229 131Q248 112 277 105Q306 98 348 98Q363 98 384 99.5Q405 101 428.5 104.5Q452 108 475 112.5Q498 117 518 123L498 12Q477 4 451.5 -1.5Q426 -7 400.5 -10Q375 -13 352 -14.5Q329 -16 313 -16Q252 -16 197 0.5Q142 17 110 49Q83 76 66.5 122.5Q50 169 50 229Z" glyph-name="Cdotaccent" horiz-adv-x="577" unicode="&#266;" /><glyph d="M411 297H57L72 379H426Z" glyph-name="Crossbar" horiz-adv-x="448" unicode="&#59204;" /><glyph d="M455 318H40L60 425H475Z" glyph-name="Crossbar.cap" horiz-adv-x="448" unicode="&#59205;" /><glyph d="M586 116H234L249 195H601Z" glyph-name="Crossbar.small" horiz-adv-x="448" unicode="&#59206;" /><glyph d="M34 0 159 678H407Q482 678 534 662Q586 646 624 608Q639 593 649.5 573Q660 553 666.5 531Q673 509 676 485.5Q679 462 679 440Q679 398 672.5 349Q666 300 652 251Q638 202 614.5 157Q591 112 558 79Q532 53 501.5 37Q471 21 437.5 13Q404 5 368 2.5Q332 0 295 0ZM312 107Q343 107 377.5 113.5Q412 120 438 146Q463 171 481 208.5Q499 246 510 286Q521 326 526 365.5Q531 405 531 435Q531 462 525 492Q519 522 498 543Q481 560 456 565.5Q431 571 402 571H277L191 107Z" glyph-name="D" horiz-adv-x="700" unicode="D" /><glyph d="M350 729 251 849H365L415 792L487 849H612L468 729ZM34 0 159 678H407Q482 678 534 662Q586 646 624 608Q639 593 649.5 573Q660 553 666.5 531Q673 509 676 485.5Q679 462 679 440Q679 398 672.5 349Q666 300 652 251Q638 202 614.5 157Q591 112 558 79Q532 53 501.5 37Q471 21 437.5 13Q404 5 368 2.5Q332 0 295 0ZM312 107Q343 107 377.5 113.5Q412 120 438 146Q463 171 481 208.5Q499 246 510 286Q521 326 526 365.5Q531 405 531 435Q531 462 525 492Q519 522 498 543Q481 560 456 565.5Q431 571 402 571H277L191 107Z" glyph-name="Dcaron" horiz-adv-x="700" unicode="&#270;" /><glyph d="M251 -38Q296 -40 320 -49Q344 -58 356 -70Q364 -78 366.5 -87Q369 -96 369 -104Q369 -116 363.5 -128.5Q358 -141 348 -150Q312 -184 218 -184Q197 -184 175.5 -181.5Q154 -179 126 -170L139 -102Q165 -111 183 -114Q201 -117 213 -117Q218 -117 226 -116.5Q234 -116 242 -114Q250 -112 255.5 -107Q261 -102 261 -94Q261 -88 257 -84.5Q253 -81 247 -79Q241 -77 235 -75.5Q229 -74 225 -74ZM34 0 159 678H407Q482 678 534 662Q586 646 624 608Q639 593 649.5 573Q660 553 666.5 531Q673 509 676 485.5Q679 462 679 440Q679 398 672.5 349Q666 300 652 251Q638 202 614.5 157Q591 112 558 79Q532 53 501.5 37Q471 21 437.5 13Q404 5 368 2.5Q332 0 295 0ZM312 107Q343 107 377.5 113.5Q412 120 438 146Q463 171 481 208.5Q499 246 510 286Q521 326 526 365.5Q531 405 531 435Q531 462 525 492Q519 522 498 543Q481 560 456 565.5Q431 571 402 571H277L191 107Z" glyph-name="Dcedilla" horiz-adv-x="700" unicode="&#7696;" /><glyph d="M346 107Q377 107 411.5 113.5Q446 120 472 146Q497 171 515 208.5Q533 246 544 286Q555 326 560 365.5Q565 405 565 435Q565 462 559 492Q553 522 532 543Q515 560 490 565.5Q465 571 436 571H311L279 399H455L435 292H259L225 107ZM68 0 122 292H20L40 399H141L193 678H441Q516 678 568 662Q620 646 658 608Q673 593 683.5 573Q694 553 700.5 531Q707 509 710 485.5Q713 462 713 440Q713 398 706.5 349Q700 300 686 251Q672 202 648.5 157Q625 112 592 79Q566 53 535.5 37Q505 21 471.5 13Q438 5 402 2.5Q366 0 329 0Z" glyph-name="Dcroat" horiz-adv-x="734" unicode="&#272;" /><glyph d="M286 -197H162L182 -88H306ZM34 0 159 678H407Q482 678 534 662Q586 646 624 608Q639 593 649.5 573Q660 553 666.5 531Q673 509 676 485.5Q679 462 679 440Q679 398 672.5 349Q666 300 652 251Q638 202 614.5 157Q591 112 558 79Q532 53 501.5 37Q471 21 437.5 13Q404 5 368 2.5Q332 0 295 0ZM312 107Q343 107 377.5 113.5Q412 120 438 146Q463 171 481 208.5Q499 246 510 286Q521 326 526 365.5Q531 405 531 435Q531 462 525 492Q519 522 498 543Q481 560 456 565.5Q431 571 402 571H277L191 107Z" glyph-name="Ddotbelow" horiz-adv-x="700" unicode="&#7692;" /><glyph d="M8 80 405 684H545L718 80L702 0H-4ZM472 110Q489 110 501 110Q513 110 524.5 110Q536 110 548 109.5Q560 109 577 109V111L486 446Q479 470 471.5 500.5Q464 531 459 553H457Q445 531 426 500.5Q407 470 391 446L176 111V109Q193 109 205 109.5Q217 110 228.5 110Q240 110 252 110Q264 110 281 110Z" glyph-name="Delta" horiz-adv-x="792" unicode="&#8710;" /><glyph d="M487 0H34L159 678H605L585 571H277L245 399H509L490 292H226L191 107H506Z" glyph-name="E" horiz-adv-x="565" unicode="E" /><glyph d="M445 733H332L465 846H626ZM487 0H34L159 678H605L585 571H277L245 399H509L490 292H226L191 107H506Z" glyph-name="Eacute" horiz-adv-x="565" unicode="&#201;" /><glyph d="M445 733H332L465 846H626ZM300 -197H176L196 -88H320ZM487 0H34L159 678H605L585 571H277L245 399H509L490 292H226L191 107H506Z" glyph-name="Eacutedotbelow" horiz-adv-x="565" unicode="&#59233;" /><glyph d="M402 795Q426 795 445 800Q464 805 478 819Q488 829 496 846H602Q594 824 586 808Q578 792 562 776Q531 745 488 732Q445 719 394 719Q349 719 314.5 729Q280 739 258 761Q243 776 233 797Q223 818 224 846H326Q327 826 340 813Q358 795 402 795ZM487 0H34L159 678H605L585 571H277L245 399H509L490 292H226L191 107H506Z" glyph-name="Ebreve" horiz-adv-x="565" unicode="&#276;" /><glyph d="M334 729 235 849H349L399 792L471 849H596L452 729ZM487 0H34L159 678H605L585 571H277L245 399H509L490 292H226L191 107H506Z" glyph-name="Ecaron" horiz-adv-x="565" unicode="&#282;" /><glyph d="M474 849 573 729H459L409 786L337 729H212L356 849ZM487 0H34L159 678H605L585 571H277L245 399H509L490 292H226L191 107H506Z" glyph-name="Ecircumflex" horiz-adv-x="565" unicode="&#202;" /><glyph d="M571 740H445L464 844H590ZM346 740H220L239 844H365ZM487 0H34L159 678H605L585 571H277L245 399H509L490 292H226L191 107H506Z" glyph-name="Edieresis" horiz-adv-x="565" unicode="&#203;" /><glyph d="M474 742H342L361 846H493ZM487 0H34L159 678H605L585 571H277L245 399H509L490 292H226L191 107H506Z" glyph-name="Edotaccent" horiz-adv-x="565" unicode="&#278;" /><glyph d="M137 846H277L366 731H274ZM323 846H463L552 731H460ZM487 0H34L159 678H605L585 571H277L245 399H509L490 292H226L191 107H506Z" glyph-name="Edoublegrave" horiz-adv-x="565" unicode="&#516;" /><glyph d="M230 846H384L475 733H369ZM487 0H34L159 678H605L585 571H277L245 399H509L490 292H226L191 107H506Z" glyph-name="Egrave" horiz-adv-x="565" unicode="&#200;" /><glyph d="M230 846H384L475 733H369ZM300 -197H176L196 -88H320ZM487 0H34L159 678H605L585 571H277L245 399H509L490 292H226L191 107H506Z" glyph-name="Egravedotbelow" horiz-adv-x="565" unicode="&#59237;" /><glyph d="M402 782Q378 782 359 777Q340 772 326 758Q315 747 308 731H202Q210 753 218 769Q226 785 242 801Q273 832 316 845Q359 858 410 858Q455 858 489.5 848Q524 838 546 816Q561 801 571 780Q581 759 580 731H478Q477 751 464 764Q446 782 402 782ZM487 0H34L159 678H605L585 571H277L245 399H509L490 292H226L191 107H506Z" glyph-name="Einvertedbreve" horiz-adv-x="565" unicode="&#518;" /><glyph d="M580 756H220L237 846H597ZM487 0H34L159 678H605L585 571H277L245 399H509L490 292H226L191 107H506Z" glyph-name="Emacron" horiz-adv-x="565" unicode="&#274;" /><glyph d="M638 150Q628 97 616.5 53Q605 9 589 -28.5Q573 -66 551 -100Q529 -134 499 -168H362Q393 -128 418 -86Q443 -44 462 3L317 334Q308 355 298 378Q288 401 279.5 423.5Q271 446 264 466Q257 486 253 501H250Q246 471 240.5 433.5Q235 396 229 357Q223 318 217 280.5Q211 243 205 212L166 0H34L159 678H311L451 348Q460 327 469.5 303Q479 279 488 255Q497 231 504.5 209.5Q512 188 517 173H520Q524 203 529.5 241Q535 279 541 318.5Q547 358 553 396.5Q559 435 565 466L604 678H736Z" glyph-name="Eng" horiz-adv-x="739" unicode="&#330;" /><glyph d="M435 -36Q425 -46 416.5 -59.5Q408 -73 408 -87Q408 -99 414 -105Q422 -113 444 -113Q461 -113 476.5 -111Q492 -109 514 -102L501 -170Q478 -178 451 -181Q424 -184 407 -184Q350 -184 327 -162Q319 -154 314 -141Q309 -128 309 -116Q309 -90 321 -70Q333 -50 353 -30Q369 -14 392 0H34L159 678H605L585 571H277L245 399H509L490 292H226L191 107H506L487 0Q469 -8 456.5 -17.5Q444 -27 435 -36Z" glyph-name="Eogonek" horiz-adv-x="565" unicode="&#280;" /><glyph d="M346 107Q377 107 411.5 113.5Q446 120 472 146Q497 171 515 208.5Q533 246 544 286Q555 326 560 365.5Q565 405 565 435Q565 462 559 492Q553 522 532 543Q515 560 490 565.5Q465 571 436 571H311L279 399H455L435 292H259L225 107ZM68 0 122 292H20L40 399H141L193 678H441Q516 678 568 662Q620 646 658 608Q673 593 683.5 573Q694 553 700.5 531Q707 509 710 485.5Q713 462 713 440Q713 398 706.5 349Q700 300 686 251Q672 202 648.5 157Q625 112 592 79Q566 53 535.5 37Q505 21 471.5 13Q438 5 402 2.5Q366 0 329 0Z" glyph-name="Eth" horiz-adv-x="734" unicode="&#208;" /><glyph d="M222 193Q222 136 247 114Q262 100 286 95Q310 90 342 90Q368 90 404.5 95.5Q441 101 484 112L466 12Q449 4 425.5 -1.5Q402 -7 379 -10Q356 -13 335 -14.5Q314 -16 301 -16Q247 -16 205 -0.5Q163 15 135 43Q109 69 95.5 105.5Q82 142 82 193H-4L40 261H87Q89 272 91 283.5Q93 295 95 307H33L76 375H115Q129 413 147.5 446.5Q166 480 191 505Q231 545 286 559.5Q341 574 410 574Q417 574 432.5 573Q448 572 468.5 569.5Q489 567 511 562.5Q533 558 553 551L535 455Q495 466 462 469.5Q429 473 413 473Q373 473 343.5 463.5Q314 454 291 431Q272 412 256 375H487L441 307H235Q233 296 231 284Q229 272 227 261H416L370 193Z" glyph-name="Euro" horiz-adv-x="553" unicode="&#8364;" /><glyph d="M517 367H298L289 322H495L449 244H280V221Q280 186 287 163Q294 140 308 126Q324 110 348.5 104Q373 98 407 98Q421 98 440 99.5Q459 101 480 104.5Q501 108 522 112.5Q543 117 561 123L541 12Q521 4 497 -1.5Q473 -7 448.5 -10Q424 -13 401.5 -14.5Q379 -16 362 -16Q251 -16 191 44Q163 72 147.5 117Q132 162 132 222V244H46L92 322H140L148 367H74L120 445H168Q184 495 207 539.5Q230 584 260 614Q305 659 363 676.5Q421 694 493 694Q501 694 517.5 693.5Q534 693 555.5 690.5Q577 688 600.5 683.5Q624 679 647 671L628 566Q609 572 589.5 576Q570 580 552.5 582Q535 584 520.5 585Q506 586 497 586Q459 586 430 577Q401 568 378 545Q361 528 346.5 502Q332 476 321 445H564Z" glyph-name="Euro.LP" horiz-adv-x="660" unicode="&#58657;" /><glyph d="M172 0H34L159 678H612L592 571H277L245 399H509L490 292H226Z" glyph-name="F" horiz-adv-x="533" unicode="F" /><glyph d="M371 399H652L585 33Q555 19 519.5 10Q484 1 448 -5Q412 -11 378.5 -13.5Q345 -16 320 -16Q180 -16 112 52Q83 81 66.5 124.5Q50 168 50 226Q50 273 57.5 326Q65 379 80.5 430.5Q96 482 120.5 528.5Q145 575 178 608Q229 659 302 676.5Q375 694 467 694Q480 694 504 693Q528 692 555.5 689Q583 686 610 681.5Q637 677 658 671L639 566Q621 571 598.5 574.5Q576 578 553.5 580.5Q531 583 510.5 584.5Q490 586 477 586Q412 586 367.5 574.5Q323 563 291 531Q271 511 254 475Q237 439 225 397Q213 355 206 311.5Q199 268 199 234Q199 192 208.5 165.5Q218 139 235 122Q255 102 282.5 95.5Q310 89 345 89Q353 89 368 90Q383 91 400 92.5Q417 94 433 96.5Q449 99 460 103L495 292H352Z" glyph-name="G" horiz-adv-x="690" unicode="G" /><glyph d="M480 733H367L500 846H661ZM371 399H652L585 33Q555 19 519.5 10Q484 1 448 -5Q412 -11 378.5 -13.5Q345 -16 320 -16Q180 -16 112 52Q83 81 66.5 124.5Q50 168 50 226Q50 273 57.5 326Q65 379 80.5 430.5Q96 482 120.5 528.5Q145 575 178 608Q229 659 302 676.5Q375 694 467 694Q480 694 504 693Q528 692 555.5 689Q583 686 610 681.5Q637 677 658 671L639 566Q621 571 598.5 574.5Q576 578 553.5 580.5Q531 583 510.5 584.5Q490 586 477 586Q412 586 367.5 574.5Q323 563 291 531Q271 511 254 475Q237 439 225 397Q213 355 206 311.5Q199 268 199 234Q199 192 208.5 165.5Q218 139 235 122Q255 102 282.5 95.5Q310 89 345 89Q353 89 368 90Q383 91 400 92.5Q417 94 433 96.5Q449 99 460 103L495 292H352Z" glyph-name="Gacute" horiz-adv-x="690" unicode="&#500;" /><glyph d="M451 795Q475 795 494 800Q513 805 527 819Q537 829 545 846H651Q643 824 635 808Q627 792 611 776Q580 745 537 732Q494 719 443 719Q398 719 363.5 729Q329 739 307 761Q292 776 282 797Q272 818 273 846H375Q376 826 389 813Q407 795 451 795ZM371 399H652L585 33Q555 19 519.5 10Q484 1 448 -5Q412 -11 378.5 -13.5Q345 -16 320 -16Q180 -16 112 52Q83 81 66.5 124.5Q50 168 50 226Q50 273 57.5 326Q65 379 80.5 430.5Q96 482 120.5 528.5Q145 575 178 608Q229 659 302 676.5Q375 694 467 694Q480 694 504 693Q528 692 555.5 689Q583 686 610 681.5Q637 677 658 671L639 566Q621 571 598.5 574.5Q576 578 553.5 580.5Q531 583 510.5 584.5Q490 586 477 586Q412 586 367.5 574.5Q323 563 291 531Q271 511 254 475Q237 439 225 397Q213 355 206 311.5Q199 268 199 234Q199 192 208.5 165.5Q218 139 235 122Q255 102 282.5 95.5Q310 89 345 89Q353 89 368 90Q383 91 400 92.5Q417 94 433 96.5Q449 99 460 103L495 292H352Z" glyph-name="Gbreve" horiz-adv-x="690" unicode="&#286;" /><glyph d="M379 729 280 849H394L444 792L516 849H641L497 729ZM371 399H652L585 33Q555 19 519.5 10Q484 1 448 -5Q412 -11 378.5 -13.5Q345 -16 320 -16Q180 -16 112 52Q83 81 66.5 124.5Q50 168 50 226Q50 273 57.5 326Q65 379 80.5 430.5Q96 482 120.5 528.5Q145 575 178 608Q229 659 302 676.5Q375 694 467 694Q480 694 504 693Q528 692 555.5 689Q583 686 610 681.5Q637 677 658 671L639 566Q621 571 598.5 574.5Q576 578 553.5 580.5Q531 583 510.5 584.5Q490 586 477 586Q412 586 367.5 574.5Q323 563 291 531Q271 511 254 475Q237 439 225 397Q213 355 206 311.5Q199 268 199 234Q199 192 208.5 165.5Q218 139 235 122Q255 102 282.5 95.5Q310 89 345 89Q353 89 368 90Q383 91 400 92.5Q417 94 433 96.5Q449 99 460 103L495 292H352Z" glyph-name="Gcaron" horiz-adv-x="690" unicode="&#486;" /><glyph d="M529 849 628 729H514L464 786L392 729H267L411 849ZM371 399H652L585 33Q555 19 519.5 10Q484 1 448 -5Q412 -11 378.5 -13.5Q345 -16 320 -16Q180 -16 112 52Q83 81 66.5 124.5Q50 168 50 226Q50 273 57.5 326Q65 379 80.5 430.5Q96 482 120.5 528.5Q145 575 178 608Q229 659 302 676.5Q375 694 467 694Q480 694 504 693Q528 692 555.5 689Q583 686 610 681.5Q637 677 658 671L639 566Q621 571 598.5 574.5Q576 578 553.5 580.5Q531 583 510.5 584.5Q490 586 477 586Q412 586 367.5 574.5Q323 563 291 531Q271 511 254 475Q237 439 225 397Q213 355 206 311.5Q199 268 199 234Q199 192 208.5 165.5Q218 139 235 122Q255 102 282.5 95.5Q310 89 345 89Q353 89 368 90Q383 91 400 92.5Q417 94 433 96.5Q449 99 460 103L495 292H352Z" glyph-name="Gcircumflex" horiz-adv-x="690" unicode="&#284;" /><glyph d="M254 -74H387L253 -268H176ZM371 399H652L585 33Q555 19 519.5 10Q484 1 448 -5Q412 -11 378.5 -13.5Q345 -16 320 -16Q180 -16 112 52Q83 81 66.5 124.5Q50 168 50 226Q50 273 57.5 326Q65 379 80.5 430.5Q96 482 120.5 528.5Q145 575 178 608Q229 659 302 676.5Q375 694 467 694Q480 694 504 693Q528 692 555.5 689Q583 686 610 681.5Q637 677 658 671L639 566Q621 571 598.5 574.5Q576 578 553.5 580.5Q531 583 510.5 584.5Q490 586 477 586Q412 586 367.5 574.5Q323 563 291 531Q271 511 254 475Q237 439 225 397Q213 355 206 311.5Q199 268 199 234Q199 192 208.5 165.5Q218 139 235 122Q255 102 282.5 95.5Q310 89 345 89Q353 89 368 90Q383 91 400 92.5Q417 94 433 96.5Q449 99 460 103L495 292H352Z" glyph-name="Gcommaaccent" horiz-adv-x="690" unicode="&#290;" /><glyph d="M800 563H667L801 757H878ZM371 399H652L585 33Q555 19 519.5 10Q484 1 448 -5Q412 -11 378.5 -13.5Q345 -16 320 -16Q180 -16 112 52Q83 81 66.5 124.5Q50 168 50 226Q50 273 57.5 326Q65 379 80.5 430.5Q96 482 120.5 528.5Q145 575 178 608Q229 659 302 676.5Q375 694 467 694Q480 694 504 693Q528 692 555.5 689Q583 686 610 681.5Q637 677 658 671L639 566Q621 571 598.5 574.5Q576 578 553.5 580.5Q531 583 510.5 584.5Q490 586 477 586Q412 586 367.5 574.5Q323 563 291 531Q271 511 254 475Q237 439 225 397Q213 355 206 311.5Q199 268 199 234Q199 192 208.5 165.5Q218 139 235 122Q255 102 282.5 95.5Q310 89 345 89Q353 89 368 90Q383 91 400 92.5Q417 94 433 96.5Q449 99 460 103L495 292H352Z" glyph-name="Gcommaturnedabove" horiz-adv-x="775" unicode="&#57607;" /><glyph d="M514 742H382L401 846H533ZM371 399H652L585 33Q555 19 519.5 10Q484 1 448 -5Q412 -11 378.5 -13.5Q345 -16 320 -16Q180 -16 112 52Q83 81 66.5 124.5Q50 168 50 226Q50 273 57.5 326Q65 379 80.5 430.5Q96 482 120.5 528.5Q145 575 178 608Q229 659 302 676.5Q375 694 467 694Q480 694 504 693Q528 692 555.5 689Q583 686 610 681.5Q637 677 658 671L639 566Q621 571 598.5 574.5Q576 578 553.5 580.5Q531 583 510.5 584.5Q490 586 477 586Q412 586 367.5 574.5Q323 563 291 531Q271 511 254 475Q237 439 225 397Q213 355 206 311.5Q199 268 199 234Q199 192 208.5 165.5Q218 139 235 122Q255 102 282.5 95.5Q310 89 345 89Q353 89 368 90Q383 91 400 92.5Q417 94 433 96.5Q449 99 460 103L495 292H352Z" glyph-name="Gdotaccent" horiz-adv-x="690" unicode="&#288;" /><glyph d="M706 139H604L585 33Q555 19 519.5 10Q484 1 448 -5Q412 -11 378.5 -13.5Q345 -16 320 -16Q180 -16 112 52Q83 81 66.5 124.5Q50 168 50 226Q50 273 57.5 326Q65 379 80.5 430.5Q96 482 120.5 528.5Q145 575 178 608Q229 659 302 676.5Q375 694 467 694Q480 694 504 693Q528 692 555.5 689Q583 686 610 681.5Q637 677 658 671L639 566Q621 571 598.5 574.5Q576 578 553.5 580.5Q531 583 510.5 584.5Q490 586 477 586Q412 586 367.5 574.5Q323 563 291 531Q271 511 254 475Q237 439 225 397Q213 355 206 311.5Q199 268 199 234Q199 192 208.5 165.5Q218 139 235 122Q255 102 282.5 95.5Q310 89 345 89Q353 89 368 90Q383 91 400 92.5Q417 94 433 96.5Q449 99 460 103L466 139H291L311 246H486L495 292H352L371 399H652L624 246H726Z" glyph-name="Gstroke" horiz-adv-x="690" unicode="&#484;" /><glyph d="M532 828Q555 828 587.5 840Q620 852 643 867L627 779Q618 772 604 765Q590 758 574.5 752.5Q559 747 543 743.5Q527 740 514 740Q490 740 472 745Q454 750 438 756Q422 762 406 767Q390 772 371 772Q347 772 314 760Q281 748 255 734L272 823Q282 829 296.5 836Q311 843 327 849Q343 855 359 858.5Q375 862 388 862Q413 862 430.5 856.5Q448 851 464 845Q480 839 495.5 833.5Q511 828 532 828ZM371 399H652L585 33Q555 19 519.5 10Q484 1 448 -5Q412 -11 378.5 -13.5Q345 -16 320 -16Q180 -16 112 52Q83 81 66.5 124.5Q50 168 50 226Q50 273 57.5 326Q65 379 80.5 430.5Q96 482 120.5 528.5Q145 575 178 608Q229 659 302 676.5Q375 694 467 694Q480 694 504 693Q528 692 555.5 689Q583 686 610 681.5Q637 677 658 671L639 566Q621 571 598.5 574.5Q576 578 553.5 580.5Q531 583 510.5 584.5Q490 586 477 586Q412 586 367.5 574.5Q323 563 291 531Q271 511 254 475Q237 439 225 397Q213 355 206 311.5Q199 268 199 234Q199 192 208.5 165.5Q218 139 235 122Q255 102 282.5 95.5Q310 89 345 89Q353 89 368 90Q383 91 400 92.5Q417 94 433 96.5Q449 99 460 103L495 292H352Z" glyph-name="Gtilde" horiz-adv-x="690" unicode="&#57605;" /><glyph d="M34 0 159 678H297L245 399H527L579 678H717L592 0H454L508 292H226L172 0Z" glyph-name="H" horiz-adv-x="720" unicode="H" /><glyph d="M527 399 539 467H257L245 399ZM34 0 159 678H297L277 574H559L579 678H717L592 0H454L508 292H226L172 0Z" glyph-name="Hbar" horiz-adv-x="720" unicode="&#294;" /><glyph d="M387 729 288 849H402L452 792L524 849H649L505 729ZM34 0 159 678H297L245 399H527L579 678H717L592 0H454L508 292H226L172 0Z" glyph-name="Hcaron" horiz-adv-x="720" unicode="&#542;" /><glyph d="M527 849 626 729H512L462 786L390 729H265L409 849ZM34 0 159 678H297L245 399H527L579 678H717L592 0H454L508 292H226L172 0Z" glyph-name="Hcircumflex" horiz-adv-x="720" unicode="&#292;" /><glyph d="M340 -197H216L236 -88H360ZM34 0 159 678H297L245 399H527L579 678H717L592 0H454L508 292H226L172 0Z" glyph-name="Hdotbelow" horiz-adv-x="720" unicode="&#7716;" /><glyph d="M461 -168H101L118 -78H478ZM34 0 159 678H297L245 399H527L579 678H717L592 0H454L508 292H226L172 0Z" glyph-name="Hmacronbelow" horiz-adv-x="720" unicode="&#57609;" /><glyph d="M34 0 159 678H297L172 0Z" glyph-name="I" horiz-adv-x="300" unicode="I" /><glyph d="M241 -118Q289 -56 323 12.5Q357 81 372 165L467 678H605L517 200Q507 147 495.5 103Q484 59 468 21.5Q452 -16 430 -50Q408 -84 378 -118ZM34 0 159 678H297L172 0Z" glyph-name="IJ" horiz-adv-x="608" unicode="&#306;" /><glyph d="M34 0 159 678H297L172 0ZM293 733H180L313 846H474Z" glyph-name="Iacute" horiz-adv-x="300" unicode="&#205;" /><glyph d="M33 0 158 678H296L171 0ZM247 795Q271 795 290 800Q309 805 323 819Q333 829 341 846H447Q439 824 431 808Q423 792 407 776Q376 745 333 732Q290 719 239 719Q194 719 159.5 729Q125 739 103 761Q88 776 78 797Q68 818 69 846H171Q172 826 185 813Q203 795 247 795Z" glyph-name="Ibreve" horiz-adv-x="300" unicode="&#300;" /><glyph d="M34 0 159 678H297L172 0ZM177 729 78 849H192L242 792L314 849H439L295 729Z" glyph-name="Icaron" horiz-adv-x="300" unicode="&#463;" /><glyph d="M35 0 160 678H298L173 0ZM320 849 419 729H305L255 786L183 729H58L202 849Z" glyph-name="Icircumflex" horiz-adv-x="300" unicode="&#206;" /><glyph d="M34 0 159 678H297L172 0ZM415 740H289L308 844H434ZM190 740H64L83 844H209Z" glyph-name="Idieresis" horiz-adv-x="300" unicode="&#207;" /><glyph d="M35 0 160 678H298L173 0ZM305 742H173L192 846H324Z" glyph-name="Idotaccent" horiz-adv-x="300" unicode="&#304;" /><glyph d="M34 0 159 678H297L172 0ZM128 -197H4L24 -88H148Z" glyph-name="Idotbelow" horiz-adv-x="300" unicode="&#7882;" /><glyph d="M36 0 161 678H299L174 0ZM-29 846H111L200 731H108ZM157 846H297L386 731H294Z" glyph-name="Idoublegrave" horiz-adv-x="300" unicode="&#520;" /><glyph d="M34 0 159 678H297L172 0ZM45 846H199L290 733H184Z" glyph-name="Igrave" horiz-adv-x="300" unicode="&#204;" /><glyph d="M35 0 160 678H298L173 0ZM248 782Q224 782 205 777Q186 772 172 758Q161 747 154 731H48Q56 753 64 769Q72 785 88 801Q119 832 162 845Q205 858 256 858Q301 858 335.5 848Q370 838 392 816Q407 801 417 780Q427 759 426 731H324Q323 751 310 764Q292 782 248 782Z" glyph-name="Iinvertedbreve" horiz-adv-x="300" unicode="&#522;" /><glyph d="M34 0 159 678H297L172 0ZM421 756H61L78 846H438Z" glyph-name="Imacron" horiz-adv-x="300" unicode="&#298;" /><glyph d="M122 -36Q112 -46 103.5 -59.5Q95 -73 95 -87Q95 -99 101 -105Q109 -113 131 -113Q148 -113 163.5 -111Q179 -109 201 -102L188 -170Q165 -178 138 -181Q111 -184 94 -184Q37 -184 14 -162Q6 -154 1 -141Q-4 -128 -4 -116Q-4 -90 8 -70Q20 -50 40 -30Q56 -14 79 0H36L161 678H299L174 0Q156 -8 143.5 -17.5Q131 -27 122 -36Z" glyph-name="Iogonek" horiz-adv-x="300" unicode="&#302;" /><glyph d="M336 828Q359 828 391.5 840Q424 852 447 867L431 779Q422 772 408 765Q394 758 378.5 752.5Q363 747 347 743.5Q331 740 318 740Q294 740 276 745Q258 750 242 756Q226 762 210 767Q194 772 175 772Q151 772 118 760Q85 748 59 734L76 823Q86 829 100.5 836Q115 843 131 849Q147 855 163 858.5Q179 862 192 862Q217 862 234.5 856.5Q252 851 268 845Q284 839 299.5 833.5Q315 828 336 828ZM35 0 160 678H298L173 0Z" glyph-name="Itilde" horiz-adv-x="300" unicode="&#296;" /><glyph d="M-59 -118Q-11 -56 23 12.5Q57 81 72 165L167 678H305L217 200Q207 147 195.5 103Q184 59 168 21.5Q152 -16 130 -50Q108 -84 78 -118Z" glyph-name="J" horiz-adv-x="308" unicode="J" /><glyph d="M-59 -118Q-11 -56 23 12.5Q57 81 72 165L167 678H305L217 200Q207 147 195.5 103Q184 59 168 21.5Q152 -16 130 -50Q108 -84 78 -118ZM184 729 85 849H199L249 792L321 849H446L302 729Z" glyph-name="Jcaron" horiz-adv-x="308" unicode="&#57611;" /><glyph d="M-59 -118Q-11 -56 23 12.5Q57 81 72 165L167 678H305L217 200Q207 147 195.5 103Q184 59 168 21.5Q152 -16 130 -50Q108 -84 78 -118ZM326 849 425 729H311L261 786L189 729H64L208 849Z" glyph-name="Jcircumflex" horiz-adv-x="308" unicode="&#308;" /><glyph d="M436 350 597 0H451L319 292H226L172 0H34L159 678H297L245 399H315L538 678H700Z" glyph-name="K" horiz-adv-x="639" unicode="K" /><glyph d="M348 729 249 849H363L413 792L485 849H610L466 729ZM436 350 597 0H451L319 292H226L172 0H34L159 678H297L245 399H315L538 678H700Z" glyph-name="Kcaron" horiz-adv-x="639" unicode="&#488;" /><glyph d="M271 -38Q316 -40 340 -49Q364 -58 376 -70Q384 -78 386.5 -87Q389 -96 389 -104Q389 -116 383.5 -128.5Q378 -141 368 -150Q332 -184 238 -184Q217 -184 195.5 -181.5Q174 -179 146 -170L159 -102Q185 -111 203 -114Q221 -117 233 -117Q238 -117 246 -116.5Q254 -116 262 -114Q270 -112 275.5 -107Q281 -102 281 -94Q281 -88 277 -84.5Q273 -81 267 -79Q261 -77 255 -75.5Q249 -74 245 -74ZM436 350 597 0H451L319 292H226L172 0H34L159 678H297L245 399H315L538 678H700Z" glyph-name="Kcedilla" horiz-adv-x="639" unicode="&#57613;" /><glyph d="M218 -74H351L217 -268H140ZM436 350 597 0H451L319 292H226L172 0H34L159 678H297L245 399H315L538 678H700Z" glyph-name="Kcommaaccent" horiz-adv-x="639" unicode="&#310;" /><glyph d="M436 350 597 0H451L319 292H226L172 0H34L159 678H297L245 399H315L538 678H700Z" glyph-name="Kgreenlandic" horiz-adv-x="639" unicode="&#59283;" /><glyph d="M636 576Q614 576 594.5 565Q575 554 557 536Q542 521 527 501Q512 481 496.5 459Q481 437 463 414.5Q445 392 424 371L597 0H451L320 292H226L172 0H34L159 678H297L245 399H276Q286 403 296.5 412.5Q307 422 321 436Q343 458 362.5 483.5Q382 509 400.5 534Q419 559 437 582Q455 605 473 623Q505 655 547 670.5Q589 686 637 686Q657 686 680 682Q703 678 716 669L698 567Q684 573 664.5 574.5Q645 576 636 576Z" glyph-name="Khook" horiz-adv-x="639" unicode="&#408;" /><glyph d="M487 0H34L159 678H297L191 107H506Z" glyph-name="L" horiz-adv-x="537" unicode="L" /><glyph d="M292 733H179L312 846H473ZM487 0H34L159 678H297L191 107H506Z" glyph-name="Lacute" horiz-adv-x="537" unicode="&#313;" /><glyph d="M456 678H589L455 484H378ZM487 0H34L159 678H297L191 107H506Z" glyph-name="Lcaron" horiz-adv-x="597" unicode="&#317;" /><glyph d="M242 -38Q287 -40 311 -49Q335 -58 347 -70Q355 -78 357.5 -87Q360 -96 360 -104Q360 -116 354.5 -128.5Q349 -141 339 -150Q303 -184 209 -184Q188 -184 166.5 -181.5Q145 -179 117 -170L130 -102Q156 -111 174 -114Q192 -117 204 -117Q209 -117 217 -116.5Q225 -116 233 -114Q241 -112 246.5 -107Q252 -102 252 -94Q252 -88 248 -84.5Q244 -81 238 -79Q232 -77 226 -75.5Q220 -74 216 -74ZM487 0H34L159 678H297L191 107H506Z" glyph-name="Lcedilla" horiz-adv-x="537" unicode="&#57615;" /><glyph d="M180 -74H313L179 -268H102ZM487 0H34L159 678H297L191 107H506Z" glyph-name="Lcommaaccent" horiz-adv-x="537" unicode="&#315;" /><glyph d="M492 290H368L388 399H512ZM487 0H34L159 678H297L191 107H506Z" glyph-name="Ldot" horiz-adv-x="537" unicode="&#319;" /><glyph d="M285 -197H161L181 -88H305ZM487 0H34L159 678H297L191 107H506Z" glyph-name="Ldotbelow" horiz-adv-x="537" unicode="&#7734;" /><glyph d="M285 -197H161L181 -88H305ZM421 756H61L78 846H438ZM487 0H34L159 678H297L191 107H506Z" glyph-name="Ldotbelowmacron" horiz-adv-x="537" unicode="&#7736;" /><glyph d="M475 433 254 306 217 107H532L513 0H60L100 217L-17 150L7 280L124 347L185 678H323L278 435L499 562Z" glyph-name="Lslash" horiz-adv-x="563" unicode="&#321;" /><glyph d="M361 127 294 371Q288 392 284 410.5Q280 429 276 448.5Q272 468 267.5 490.5Q263 513 258 542H255Q250 497 246.5 464Q243 431 238.5 400.5Q234 370 228 336Q222 302 213 256L166 0H34L159 678H340L437 297H440L687 678H872L747 0H614L661 256Q670 302 677 336.5Q684 371 691 402Q698 433 706 466Q714 499 725 542H722Q696 484 672 441Q648 398 620 357L464 127Z" glyph-name="M" horiz-adv-x="875" unicode="M" /><glyph d="M366 -38Q411 -40 435 -49Q459 -58 471 -70Q479 -78 481.5 -87Q484 -96 484 -104Q484 -116 478.5 -128.5Q473 -141 463 -150Q427 -184 333 -184Q312 -184 290.5 -181.5Q269 -179 241 -170L254 -102Q280 -111 298 -114Q316 -117 328 -117Q333 -117 341 -116.5Q349 -116 357 -114Q365 -112 370.5 -107Q376 -102 376 -94Q376 -88 372 -84.5Q368 -81 362 -79Q356 -77 350 -75.5Q344 -74 340 -74ZM359 127 292 371Q286 392 282 410.5Q278 429 274 448.5Q270 468 265.5 490.5Q261 513 256 542H253Q248 497 244.5 464Q241 431 236.5 400.5Q232 370 226 336Q220 302 211 256L164 0H32L157 678H338L435 297H438L685 678H870L745 0H612L659 256Q668 302 675 336.5Q682 371 689 402Q696 433 704 466Q712 499 723 542H720Q694 484 670 441Q646 398 618 357L462 127Z" glyph-name="Mcedilla" horiz-adv-x="871" unicode="&#57619;" /><glyph d="M411 -197H287L307 -88H431ZM359 127 292 371Q286 392 282 410.5Q278 429 274 448.5Q270 468 265.5 490.5Q261 513 256 542H253Q248 497 244.5 464Q241 431 236.5 400.5Q232 370 226 336Q220 302 211 256L164 0H32L157 678H338L435 297H438L685 678H870L745 0H612L659 256Q668 302 675 336.5Q682 371 689 402Q696 433 704 466Q712 499 723 542H720Q694 484 670 441Q646 398 618 357L462 127Z" glyph-name="Mdotbelow" horiz-adv-x="871" unicode="&#7746;" /><glyph d="M708 756H348L365 846H725ZM361 127 294 371Q288 392 284 410.5Q280 429 276 448.5Q272 468 267.5 490.5Q263 513 258 542H255Q250 497 246.5 464Q243 431 238.5 400.5Q234 370 228 336Q222 302 213 256L166 0H34L159 678H340L437 297H440L687 678H872L747 0H614L661 256Q670 302 677 336.5Q684 371 691 402Q698 433 706 466Q714 499 725 542H722Q696 484 672 441Q648 398 620 357L464 127Z" glyph-name="Mmacron" horiz-adv-x="875" unicode="&#57617;" /><glyph d="M317 334Q308 355 298 378Q288 401 279.5 423.5Q271 446 264 466Q257 486 253 501H250Q246 471 240.5 433.5Q235 396 229 357Q223 318 217 280.5Q211 243 205 212L166 0H34L159 678H311L451 346Q460 325 469.5 301.5Q479 278 488 254.5Q497 231 504.5 209.5Q512 188 517 173H520Q524 203 529.5 241Q535 279 541 318.5Q547 358 553 396.5Q559 435 565 466L604 678H736L611 0H462Z" glyph-name="N" horiz-adv-x="739" unicode="N" /><glyph d="M507 733H394L527 846H688ZM317 334Q308 355 298 378Q288 401 279.5 423.5Q271 446 264 466Q257 486 253 501H250Q246 471 240.5 433.5Q235 396 229 357Q223 318 217 280.5Q211 243 205 212L166 0H34L159 678H311L451 346Q460 325 469.5 301.5Q479 278 488 254.5Q497 231 504.5 209.5Q512 188 517 173H520Q524 203 529.5 241Q535 279 541 318.5Q547 358 553 396.5Q559 435 565 466L604 678H736L611 0H462Z" glyph-name="Nacute" horiz-adv-x="739" unicode="&#323;" /><glyph d="M407 729 308 849H422L472 792L544 849H669L525 729ZM317 334Q308 355 298 378Q288 401 279.5 423.5Q271 446 264 466Q257 486 253 501H250Q246 471 240.5 433.5Q235 396 229 357Q223 318 217 280.5Q211 243 205 212L166 0H34L159 678H311L451 346Q460 325 469.5 301.5Q479 278 488 254.5Q497 231 504.5 209.5Q512 188 517 173H520Q524 203 529.5 241Q535 279 541 318.5Q547 358 553 396.5Q559 435 565 466L604 678H736L611 0H462Z" glyph-name="Ncaron" horiz-adv-x="739" unicode="&#327;" /><glyph d="M292 -38Q337 -40 361 -49Q385 -58 397 -70Q405 -78 407.5 -87Q410 -96 410 -104Q410 -116 404.5 -128.5Q399 -141 389 -150Q353 -184 259 -184Q238 -184 216.5 -181.5Q195 -179 167 -170L180 -102Q206 -111 224 -114Q242 -117 254 -117Q259 -117 267 -116.5Q275 -116 283 -114Q291 -112 296.5 -107Q302 -102 302 -94Q302 -88 298 -84.5Q294 -81 288 -79Q282 -77 276 -75.5Q270 -74 266 -74ZM317 334Q308 355 298 378Q288 401 279.5 423.5Q271 446 264 466Q257 486 253 501H250Q246 471 240.5 433.5Q235 396 229 357Q223 318 217 280.5Q211 243 205 212L166 0H34L159 678H311L451 346Q460 325 469.5 301.5Q479 278 488 254.5Q497 231 504.5 209.5Q512 188 517 173H520Q524 203 529.5 241Q535 279 541 318.5Q547 358 553 396.5Q559 435 565 466L604 678H736L611 0H462Z" glyph-name="Ncedilla" horiz-adv-x="739" unicode="&#57625;" /><glyph d="M237 -74H370L236 -268H159ZM317 334Q308 355 298 378Q288 401 279.5 423.5Q271 446 264 466Q257 486 253 501H250Q246 471 240.5 433.5Q235 396 229 357Q223 318 217 280.5Q211 243 205 212L166 0H34L159 678H311L451 346Q460 325 469.5 301.5Q479 278 488 254.5Q497 231 504.5 209.5Q512 188 517 173H520Q524 203 529.5 241Q535 279 541 318.5Q547 358 553 396.5Q559 435 565 466L604 678H736L611 0H462Z" glyph-name="Ncommaaccent" horiz-adv-x="739" unicode="&#325;" /><glyph d="M317 334Q308 355 298 378Q288 401 279.5 423.5Q271 446 264 466Q257 486 253 501H250Q246 471 240.5 433.5Q235 396 229 357Q223 318 217 280.5Q211 243 205 212L166 0H34L159 678H311L451 346Q460 325 469.5 301.5Q479 278 488 254.5Q497 231 504.5 209.5Q512 188 517 173H520Q524 203 529.5 241Q535 279 541 318.5Q547 358 553 396.5Q559 435 565 466L604 678H736L628 92H728L689 -118H584L606 0H462Z" glyph-name="Ndescender" horiz-adv-x="758" unicode="&#59398;" /><glyph d="M643 740H517L536 844H662ZM418 740H292L311 844H437ZM317 334Q308 355 298 378Q288 401 279.5 423.5Q271 446 264 466Q257 486 253 501H250Q246 471 240.5 433.5Q235 396 229 357Q223 318 217 280.5Q211 243 205 212L166 0H34L159 678H311L451 346Q460 325 469.5 301.5Q479 278 488 254.5Q497 231 504.5 209.5Q512 188 517 173H520Q524 203 529.5 241Q535 279 541 318.5Q547 358 553 396.5Q559 435 565 466L604 678H736L611 0H462Z" glyph-name="Ndieresis" horiz-adv-x="739" unicode="&#57621;" /><glyph d="M529 742H397L416 846H548ZM317 334Q308 355 298 378Q288 401 279.5 423.5Q271 446 264 466Q257 486 253 501H250Q246 471 240.5 433.5Q235 396 229 357Q223 318 217 280.5Q211 243 205 212L166 0H34L159 678H311L451 346Q460 325 469.5 301.5Q479 278 488 254.5Q497 231 504.5 209.5Q512 188 517 173H520Q524 203 529.5 241Q535 279 541 318.5Q547 358 553 396.5Q559 435 565 466L604 678H736L611 0H462Z" glyph-name="Ndotaccent" horiz-adv-x="739" unicode="&#7748;" /><glyph d="M335 -197H211L231 -88H355ZM317 334Q308 355 298 378Q288 401 279.5 423.5Q271 446 264 466Q257 486 253 501H250Q246 471 240.5 433.5Q235 396 229 357Q223 318 217 280.5Q211 243 205 212L166 0H34L159 678H311L451 346Q460 325 469.5 301.5Q479 278 488 254.5Q497 231 504.5 209.5Q512 188 517 173H520Q524 203 529.5 241Q535 279 541 318.5Q547 358 553 396.5Q559 435 565 466L604 678H736L611 0H462Z" glyph-name="Ndotbelow" horiz-adv-x="739" unicode="&#7750;" /><glyph d="M281 846H435L526 733H420ZM317 334Q308 355 298 378Q288 401 279.5 423.5Q271 446 264 466Q257 486 253 501H250Q246 471 240.5 433.5Q235 396 229 357Q223 318 217 280.5Q211 243 205 212L166 0H34L159 678H311L451 346Q460 325 469.5 301.5Q479 278 488 254.5Q497 231 504.5 209.5Q512 188 517 173H520Q524 203 529.5 241Q535 279 541 318.5Q547 358 553 396.5Q559 435 565 466L604 678H736L611 0H462Z" glyph-name="Ngrave" horiz-adv-x="739" unicode="&#504;" /><glyph d="M647 756H287L304 846H664ZM317 334Q308 355 298 378Q288 401 279.5 423.5Q271 446 264 466Q257 486 253 501H250Q246 471 240.5 433.5Q235 396 229 357Q223 318 217 280.5Q211 243 205 212L166 0H34L159 678H311L451 346Q460 325 469.5 301.5Q479 278 488 254.5Q497 231 504.5 209.5Q512 188 517 173H520Q524 203 529.5 241Q535 279 541 318.5Q547 358 553 396.5Q559 435 565 466L604 678H736L611 0H462Z" glyph-name="Nmacron" horiz-adv-x="739" unicode="&#57623;" /><glyph d="M559 828Q582 828 614.5 840Q647 852 670 867L654 779Q645 772 631 765Q617 758 601.5 752.5Q586 747 570 743.5Q554 740 541 740Q517 740 499 745Q481 750 465 756Q449 762 433 767Q417 772 398 772Q374 772 341 760Q308 748 282 734L299 823Q309 829 323.5 836Q338 843 354 849Q370 855 386 858.5Q402 862 415 862Q440 862 457.5 856.5Q475 851 491 845Q507 839 522.5 833.5Q538 828 559 828ZM317 334Q308 355 298 378Q288 401 279.5 423.5Q271 446 264 466Q257 486 253 501H250Q246 471 240.5 433.5Q235 396 229 357Q223 318 217 280.5Q211 243 205 212L166 0H34L159 678H311L451 346Q460 325 469.5 301.5Q479 278 488 254.5Q497 231 504.5 209.5Q512 188 517 173H520Q524 203 529.5 241Q535 279 541 318.5Q547 358 553 396.5Q559 435 565 466L604 678H736L611 0H462Z" glyph-name="Ntilde" horiz-adv-x="739" unicode="&#209;" /><glyph d="M309 -16Q235 -16 186.5 2.5Q138 21 107 52Q78 81 63.5 125Q49 169 49 223Q49 268 56 321.5Q63 375 78 428Q93 481 116.5 528.5Q140 576 173 609Q218 654 283.5 674Q349 694 440 694Q514 694 562.5 675.5Q611 657 642 626Q671 597 685.5 553Q700 509 700 455Q700 410 693 356.5Q686 303 671 250Q656 197 632.5 149.5Q609 102 576 69Q531 24 465.5 4Q400 -16 309 -16ZM328 89Q411 89 459 137Q480 158 497 197.5Q514 237 526.5 283Q539 329 545.5 375.5Q552 422 552 457Q552 529 520 560Q504 576 479.5 582.5Q455 589 421 589Q338 589 290 541Q269 520 252 480.5Q235 441 222.5 395Q210 349 203.5 302.5Q197 256 197 221Q197 149 229 118Q245 102 269.5 95.5Q294 89 328 89Z" glyph-name="O" horiz-adv-x="718" unicode="O" /><glyph d="M328 89Q411 89 459 137Q480 158 497 197.5Q514 237 526.5 283Q539 329 545.5 375.5Q552 422 552 457Q552 529 520 560Q504 576 479.5 582.5Q455 589 421 589Q338 589 290 541Q269 520 252 480.5Q235 441 222.5 395Q210 349 203.5 302.5Q197 256 197 221Q197 149 229 118Q245 102 269.5 95.5Q294 89 328 89ZM938 0H486L490 25H488Q455 4 414 -6Q373 -16 309 -16Q235 -16 186.5 2.5Q138 21 107 52Q78 81 63.5 125Q49 169 49 223Q49 268 56 321.5Q63 375 78 428Q93 481 116.5 528.5Q140 576 173 609Q218 654 283.5 674Q349 694 440 694Q500 694 537.5 681.5Q575 669 603 647H605L611 678H1056L1036 571H728L696 399H960L941 292H677L642 107H957Z" glyph-name="OE" horiz-adv-x="1016" unicode="&#338;" /><glyph d="M485 733H372L505 846H666ZM309 -16Q235 -16 186.5 2.5Q138 21 107 52Q78 81 63.5 125Q49 169 49 223Q49 268 56 321.5Q63 375 78 428Q93 481 116.5 528.5Q140 576 173 609Q218 654 283.5 674Q349 694 440 694Q514 694 562.5 675.5Q611 657 642 626Q671 597 685.5 553Q700 509 700 455Q700 410 693 356.5Q686 303 671 250Q656 197 632.5 149.5Q609 102 576 69Q531 24 465.5 4Q400 -16 309 -16ZM328 89Q411 89 459 137Q480 158 497 197.5Q514 237 526.5 283Q539 329 545.5 375.5Q552 422 552 457Q552 529 520 560Q504 576 479.5 582.5Q455 589 421 589Q338 589 290 541Q269 520 252 480.5Q235 441 222.5 395Q210 349 203.5 302.5Q197 256 197 221Q197 149 229 118Q245 102 269.5 95.5Q294 89 328 89Z" glyph-name="Oacute" horiz-adv-x="718" unicode="&#211;" /><glyph d="M456 795Q480 795 499 800Q518 805 532 819Q542 829 550 846H656Q648 824 640 808Q632 792 616 776Q585 745 542 732Q499 719 448 719Q403 719 368.5 729Q334 739 312 761Q297 776 287 797Q277 818 278 846H380Q381 826 394 813Q412 795 456 795ZM309 -16Q235 -16 186.5 2.5Q138 21 107 52Q78 81 63.5 125Q49 169 49 223Q49 268 56 321.5Q63 375 78 428Q93 481 116.5 528.5Q140 576 173 609Q218 654 283.5 674Q349 694 440 694Q514 694 562.5 675.5Q611 657 642 626Q671 597 685.5 553Q700 509 700 455Q700 410 693 356.5Q686 303 671 250Q656 197 632.5 149.5Q609 102 576 69Q531 24 465.5 4Q400 -16 309 -16ZM328 89Q411 89 459 137Q480 158 497 197.5Q514 237 526.5 283Q539 329 545.5 375.5Q552 422 552 457Q552 529 520 560Q504 576 479.5 582.5Q455 589 421 589Q338 589 290 541Q269 520 252 480.5Q235 441 222.5 395Q210 349 203.5 302.5Q197 256 197 221Q197 149 229 118Q245 102 269.5 95.5Q294 89 328 89Z" glyph-name="Obreve" horiz-adv-x="718" unicode="&#334;" /><glyph d="M386 729 287 849H401L451 792L523 849H648L504 729ZM309 -16Q235 -16 186.5 2.5Q138 21 107 52Q78 81 63.5 125Q49 169 49 223Q49 268 56 321.5Q63 375 78 428Q93 481 116.5 528.5Q140 576 173 609Q218 654 283.5 674Q349 694 440 694Q514 694 562.5 675.5Q611 657 642 626Q671 597 685.5 553Q700 509 700 455Q700 410 693 356.5Q686 303 671 250Q656 197 632.5 149.5Q609 102 576 69Q531 24 465.5 4Q400 -16 309 -16ZM328 89Q411 89 459 137Q480 158 497 197.5Q514 237 526.5 283Q539 329 545.5 375.5Q552 422 552 457Q552 529 520 560Q504 576 479.5 582.5Q455 589 421 589Q338 589 290 541Q269 520 252 480.5Q235 441 222.5 395Q210 349 203.5 302.5Q197 256 197 221Q197 149 229 118Q245 102 269.5 95.5Q294 89 328 89Z" glyph-name="Ocaron" horiz-adv-x="718" unicode="&#465;" /><glyph d="M328 89Q411 89 459 137Q480 158 497 197.5Q514 237 526.5 283Q539 329 545.5 375.5Q552 422 552 457Q552 529 520 560Q504 576 479.5 582.5Q455 589 421 589Q338 589 290 541Q269 520 252 480.5Q235 441 222.5 395Q210 349 203.5 302.5Q197 256 197 221Q197 149 229 118Q245 102 269.5 95.5Q294 89 328 89ZM268 -14Q211 -9 172 8.5Q133 26 107 52Q78 81 63.5 125Q49 169 49 223Q49 268 56 321.5Q63 375 78 428Q93 481 116.5 528.5Q140 576 173 609Q218 654 283.5 674Q349 694 440 694Q514 694 562.5 675.5Q611 657 642 626Q671 597 685.5 553Q700 509 700 455Q700 410 693 356.5Q686 303 671 250Q656 197 632.5 149.5Q609 102 576 69Q538 31 485 11Q432 -9 362 -14L345 -43Q370 -52 381 -63Q389 -71 391.5 -80.5Q394 -90 394 -98Q394 -126 372 -148Q336 -184 243 -184Q222 -184 200.5 -181.5Q179 -179 151 -170L164 -102Q190 -111 208 -114Q226 -117 238 -117Q243 -117 251 -116.5Q259 -116 267 -114Q275 -112 280.5 -107.5Q286 -103 286 -95Q286 -84 274 -80.5Q262 -77 248 -75L247 -48Z" glyph-name="Ocedilla" horiz-adv-x="718" unicode="&#57631;" /><glyph d="M309 -16Q235 -16 186.5 2.5Q138 21 107 52Q78 81 63.5 125Q49 169 49 223Q49 268 56 321.5Q63 375 78 428Q93 481 116.5 528.5Q140 576 173 609Q218 654 283.5 674Q349 694 440 694Q514 694 562.5 675.5Q611 657 642 626Q671 597 685.5 553Q700 509 700 455Q700 410 693 356.5Q686 303 671 250Q656 197 632.5 149.5Q609 102 576 69Q531 24 465.5 4Q400 -16 309 -16ZM328 89Q411 89 459 137Q480 158 497 197.5Q514 237 526.5 283Q539 329 545.5 375.5Q552 422 552 457Q552 529 520 560Q504 576 479.5 582.5Q455 589 421 589Q338 589 290 541Q269 520 252 480.5Q235 441 222.5 395Q210 349 203.5 302.5Q197 256 197 221Q197 149 229 118Q245 102 269.5 95.5Q294 89 328 89ZM527 849 626 729H512L462 786L390 729H265L409 849Z" glyph-name="Ocircumflex" horiz-adv-x="718" unicode="&#212;" /><glyph d="M838 563H705L839 757H916ZM309 -16Q235 -16 186.5 2.5Q138 21 107 52Q78 81 63.5 125Q49 169 49 223Q49 268 56 321.5Q63 375 78 428Q93 481 116.5 528.5Q140 576 173 609Q218 654 283.5 674Q349 694 440 694Q514 694 562.5 675.5Q611 657 642 626Q671 597 685.5 553Q700 509 700 455Q700 410 693 356.5Q686 303 671 250Q656 197 632.5 149.5Q609 102 576 69Q531 24 465.5 4Q400 -16 309 -16ZM328 89Q411 89 459 137Q480 158 497 197.5Q514 237 526.5 283Q539 329 545.5 375.5Q552 422 552 457Q552 529 520 560Q504 576 479.5 582.5Q455 589 421 589Q338 589 290 541Q269 520 252 480.5Q235 441 222.5 395Q210 349 203.5 302.5Q197 256 197 221Q197 149 229 118Q245 102 269.5 95.5Q294 89 328 89Z" glyph-name="Ocommaturnedabove" horiz-adv-x="812" unicode="&#57627;" /><glyph d="M309 -16Q235 -16 186.5 2.5Q138 21 107 52Q78 81 63.5 125Q49 169 49 223Q49 268 56 321.5Q63 375 78 428Q93 481 116.5 528.5Q140 576 173 609Q218 654 283.5 674Q349 694 440 694Q514 694 562.5 675.5Q611 657 642 626Q671 597 685.5 553Q700 509 700 455Q700 410 693 356.5Q686 303 671 250Q656 197 632.5 149.5Q609 102 576 69Q531 24 465.5 4Q400 -16 309 -16ZM328 89Q411 89 459 137Q480 158 497 197.5Q514 237 526.5 283Q539 329 545.5 375.5Q552 422 552 457Q552 529 520 560Q504 576 479.5 582.5Q455 589 421 589Q338 589 290 541Q269 520 252 480.5Q235 441 222.5 395Q210 349 203.5 302.5Q197 256 197 221Q197 149 229 118Q245 102 269.5 95.5Q294 89 328 89ZM622 740H496L515 844H641ZM397 740H271L290 844H416Z" glyph-name="Odieresis" horiz-adv-x="718" unicode="&#214;" /><glyph d="M514 742H382L401 846H533ZM309 -16Q235 -16 186.5 2.5Q138 21 107 52Q78 81 63.5 125Q49 169 49 223Q49 268 56 321.5Q63 375 78 428Q93 481 116.5 528.5Q140 576 173 609Q218 654 283.5 674Q349 694 440 694Q514 694 562.5 675.5Q611 657 642 626Q671 597 685.5 553Q700 509 700 455Q700 410 693 356.5Q686 303 671 250Q656 197 632.5 149.5Q609 102 576 69Q531 24 465.5 4Q400 -16 309 -16ZM328 89Q411 89 459 137Q480 158 497 197.5Q514 237 526.5 283Q539 329 545.5 375.5Q552 422 552 457Q552 529 520 560Q504 576 479.5 582.5Q455 589 421 589Q338 589 290 541Q269 520 252 480.5Q235 441 222.5 395Q210 349 203.5 302.5Q197 256 197 221Q197 149 229 118Q245 102 269.5 95.5Q294 89 328 89Z" glyph-name="Odotabove" horiz-adv-x="718" unicode="&#558;" /><glyph d="M309 -16Q235 -16 186.5 2.5Q138 21 107 52Q78 81 63.5 125Q49 169 49 223Q49 268 56 321.5Q63 375 78 428Q93 481 116.5 528.5Q140 576 173 609Q218 654 283.5 674Q349 694 440 694Q514 694 562.5 675.5Q611 657 642 626Q671 597 685.5 553Q700 509 700 455Q700 410 693 356.5Q686 303 671 250Q656 197 632.5 149.5Q609 102 576 69Q531 24 465.5 4Q400 -16 309 -16ZM328 89Q411 89 459 137Q480 158 497 197.5Q514 237 526.5 283Q539 329 545.5 375.5Q552 422 552 457Q552 529 520 560Q504 576 479.5 582.5Q455 589 421 589Q338 589 290 541Q269 520 252 480.5Q235 441 222.5 395Q210 349 203.5 302.5Q197 256 197 221Q197 149 229 118Q245 102 269.5 95.5Q294 89 328 89ZM515 740H383L402 844H534ZM660 912H300L317 1002H677Z" glyph-name="Odotabovemacron" horiz-adv-x="718" unicode="&#560;" /><glyph d="M337 -197H213L233 -88H357ZM309 -16Q235 -16 186.5 2.5Q138 21 107 52Q78 81 63.5 125Q49 169 49 223Q49 268 56 321.5Q63 375 78 428Q93 481 116.5 528.5Q140 576 173 609Q218 654 283.5 674Q349 694 440 694Q514 694 562.5 675.5Q611 657 642 626Q671 597 685.5 553Q700 509 700 455Q700 410 693 356.5Q686 303 671 250Q656 197 632.5 149.5Q609 102 576 69Q531 24 465.5 4Q400 -16 309 -16ZM328 89Q411 89 459 137Q480 158 497 197.5Q514 237 526.5 283Q539 329 545.5 375.5Q552 422 552 457Q552 529 520 560Q504 576 479.5 582.5Q455 589 421 589Q338 589 290 541Q269 520 252 480.5Q235 441 222.5 395Q210 349 203.5 302.5Q197 256 197 221Q197 149 229 118Q245 102 269.5 95.5Q294 89 328 89Z" glyph-name="Odotbelow" horiz-adv-x="718" unicode="&#7884;" /><glyph d="M181 846H321L410 731H318ZM367 846H507L596 731H504ZM309 -16Q235 -16 186.5 2.5Q138 21 107 52Q78 81 63.5 125Q49 169 49 223Q49 268 56 321.5Q63 375 78 428Q93 481 116.5 528.5Q140 576 173 609Q218 654 283.5 674Q349 694 440 694Q514 694 562.5 675.5Q611 657 642 626Q671 597 685.5 553Q700 509 700 455Q700 410 693 356.5Q686 303 671 250Q656 197 632.5 149.5Q609 102 576 69Q531 24 465.5 4Q400 -16 309 -16ZM328 89Q411 89 459 137Q480 158 497 197.5Q514 237 526.5 283Q539 329 545.5 375.5Q552 422 552 457Q552 529 520 560Q504 576 479.5 582.5Q455 589 421 589Q338 589 290 541Q269 520 252 480.5Q235 441 222.5 395Q210 349 203.5 302.5Q197 256 197 221Q197 149 229 118Q245 102 269.5 95.5Q294 89 328 89Z" glyph-name="Odoublegrave" horiz-adv-x="718" unicode="&#524;" /><glyph d="M264 846H418L509 733H403ZM309 -16Q235 -16 186.5 2.5Q138 21 107 52Q78 81 63.5 125Q49 169 49 223Q49 268 56 321.5Q63 375 78 428Q93 481 116.5 528.5Q140 576 173 609Q218 654 283.5 674Q349 694 440 694Q514 694 562.5 675.5Q611 657 642 626Q671 597 685.5 553Q700 509 700 455Q700 410 693 356.5Q686 303 671 250Q656 197 632.5 149.5Q609 102 576 69Q531 24 465.5 4Q400 -16 309 -16ZM328 89Q411 89 459 137Q480 158 497 197.5Q514 237 526.5 283Q539 329 545.5 375.5Q552 422 552 457Q552 529 520 560Q504 576 479.5 582.5Q455 589 421 589Q338 589 290 541Q269 520 252 480.5Q235 441 222.5 395Q210 349 203.5 302.5Q197 256 197 221Q197 149 229 118Q245 102 269.5 95.5Q294 89 328 89Z" glyph-name="Ograve" horiz-adv-x="718" unicode="&#210;" /><glyph d="M570 731H473L604 846H749ZM381 731H284L415 846H560ZM309 -16Q235 -16 186.5 2.5Q138 21 107 52Q78 81 63.5 125Q49 169 49 223Q49 268 56 321.5Q63 375 78 428Q93 481 116.5 528.5Q140 576 173 609Q218 654 283.5 674Q349 694 440 694Q514 694 562.5 675.5Q611 657 642 626Q671 597 685.5 553Q700 509 700 455Q700 410 693 356.5Q686 303 671 250Q656 197 632.5 149.5Q609 102 576 69Q531 24 465.5 4Q400 -16 309 -16ZM328 89Q411 89 459 137Q480 158 497 197.5Q514 237 526.5 283Q539 329 545.5 375.5Q552 422 552 457Q552 529 520 560Q504 576 479.5 582.5Q455 589 421 589Q338 589 290 541Q269 520 252 480.5Q235 441 222.5 395Q210 349 203.5 302.5Q197 256 197 221Q197 149 229 118Q245 102 269.5 95.5Q294 89 328 89Z" glyph-name="Ohungarumlaut" horiz-adv-x="718" unicode="&#336;" /><glyph d="M457 782Q433 782 414 777Q395 772 381 758Q370 747 363 731H257Q265 753 273 769Q281 785 297 801Q328 832 371 845Q414 858 465 858Q510 858 544.5 848Q579 838 601 816Q616 801 626 780Q636 759 635 731H533Q532 751 519 764Q501 782 457 782ZM309 -16Q235 -16 186.5 2.5Q138 21 107 52Q78 81 63.5 125Q49 169 49 223Q49 268 56 321.5Q63 375 78 428Q93 481 116.5 528.5Q140 576 173 609Q218 654 283.5 674Q349 694 440 694Q514 694 562.5 675.5Q611 657 642 626Q671 597 685.5 553Q700 509 700 455Q700 410 693 356.5Q686 303 671 250Q656 197 632.5 149.5Q609 102 576 69Q531 24 465.5 4Q400 -16 309 -16ZM328 89Q411 89 459 137Q480 158 497 197.5Q514 237 526.5 283Q539 329 545.5 375.5Q552 422 552 457Q552 529 520 560Q504 576 479.5 582.5Q455 589 421 589Q338 589 290 541Q269 520 252 480.5Q235 441 222.5 395Q210 349 203.5 302.5Q197 256 197 221Q197 149 229 118Q245 102 269.5 95.5Q294 89 328 89Z" glyph-name="Oinvertedbreve" horiz-adv-x="718" unicode="&#526;" /><glyph d="M630 756H270L287 846H647ZM309 -16Q235 -16 186.5 2.5Q138 21 107 52Q78 81 63.5 125Q49 169 49 223Q49 268 56 321.5Q63 375 78 428Q93 481 116.5 528.5Q140 576 173 609Q218 654 283.5 674Q349 694 440 694Q514 694 562.5 675.5Q611 657 642 626Q671 597 685.5 553Q700 509 700 455Q700 410 693 356.5Q686 303 671 250Q656 197 632.5 149.5Q609 102 576 69Q531 24 465.5 4Q400 -16 309 -16ZM328 89Q411 89 459 137Q480 158 497 197.5Q514 237 526.5 283Q539 329 545.5 375.5Q552 422 552 457Q552 529 520 560Q504 576 479.5 582.5Q455 589 421 589Q338 589 290 541Q269 520 252 480.5Q235 441 222.5 395Q210 349 203.5 302.5Q197 256 197 221Q197 149 229 118Q245 102 269.5 95.5Q294 89 328 89Z" glyph-name="Omacron" horiz-adv-x="718" unicode="&#332;" /><glyph d="M328 89Q411 89 459 137Q480 158 497 197.5Q514 237 526.5 283Q539 329 545.5 375.5Q552 422 552 457Q552 529 520 560Q504 576 479.5 582.5Q455 589 421 589Q338 589 290 541Q269 520 252 480.5Q235 441 222.5 395Q210 349 203.5 302.5Q197 256 197 221Q197 149 229 118Q245 102 269.5 95.5Q294 89 328 89ZM329 -36Q319 -46 310.5 -59.5Q302 -73 302 -87Q302 -99 308 -105Q316 -113 338 -113Q355 -113 370.5 -111Q386 -109 408 -102L395 -170Q372 -178 345 -181Q318 -184 301 -184Q244 -184 221 -162Q213 -154 208 -141Q203 -128 203 -116Q203 -90 215 -70Q227 -50 247 -30Q253 -22 265 -14Q209 -9 171 8.5Q133 26 107 52Q78 81 63.5 125Q49 169 49 223Q49 268 56 321.5Q63 375 78 428Q93 481 116.5 528.5Q140 576 173 609Q218 654 283.5 674Q349 694 440 694Q514 694 562.5 675.5Q611 657 642 626Q671 597 685.5 553Q700 509 700 455Q700 410 693 356.5Q686 303 671 250Q656 197 632.5 149.5Q609 102 576 69Q537 30 482 10Q427 -10 354 -15Q341 -24 329 -36Z" glyph-name="Oogonek" horiz-adv-x="718" unicode="&#490;" /><glyph d="M630 756H270L287 846H647ZM328 89Q411 89 459 137Q480 158 497 197.5Q514 237 526.5 283Q539 329 545.5 375.5Q552 422 552 457Q552 529 520 560Q504 576 479.5 582.5Q455 589 421 589Q338 589 290 541Q269 520 252 480.5Q235 441 222.5 395Q210 349 203.5 302.5Q197 256 197 221Q197 149 229 118Q245 102 269.5 95.5Q294 89 328 89ZM329 -36Q319 -46 310.5 -59.5Q302 -73 302 -87Q302 -99 308 -105Q316 -113 338 -113Q355 -113 370.5 -111Q386 -109 408 -102L395 -170Q372 -178 345 -181Q318 -184 301 -184Q244 -184 221 -162Q213 -154 208 -141Q203 -128 203 -116Q203 -90 215 -70Q227 -50 247 -30Q253 -22 265 -14Q209 -9 171 8.5Q133 26 107 52Q78 81 63.5 125Q49 169 49 223Q49 268 56 321.5Q63 375 78 428Q93 481 116.5 528.5Q140 576 173 609Q218 654 283.5 674Q349 694 440 694Q514 694 562.5 675.5Q611 657 642 626Q671 597 685.5 553Q700 509 700 455Q700 410 693 356.5Q686 303 671 250Q656 197 632.5 149.5Q609 102 576 69Q537 30 482 10Q427 -10 354 -15Q341 -24 329 -36Z" glyph-name="Oogonekmacron" horiz-adv-x="718" unicode="&#492;" /><glyph d="M328 89Q411 89 459 137Q480 158 497 197.5Q514 237 526.5 283Q539 329 545.5 375.5Q552 422 552 457Q552 500 540 529L304 90Q310 89 315.5 89Q321 89 328 89ZM197 221Q197 169 211 141L450 587Q443 588 436 588.5Q429 589 421 589Q338 589 290 541Q269 520 252 480.5Q235 441 222.5 395Q210 349 203.5 302.5Q197 256 197 221ZM90 -86 147 21Q123 34 107 52Q78 81 63.5 125Q49 169 49 223Q49 268 56 321.5Q63 375 78 428Q93 481 116.5 528.5Q140 576 173 609Q218 654 283.5 674Q349 694 440 694Q457 694 473.5 692.5Q490 691 505 689L544 762H666L607 653Q628 640 642 626Q671 597 685.5 553Q700 509 700 455Q700 410 693 356.5Q686 303 671 250Q656 197 632.5 149.5Q609 102 576 69Q531 24 465.5 4Q400 -16 309 -16Q292 -16 277.5 -15Q263 -14 249 -12L210 -86Z" glyph-name="Oslash" horiz-adv-x="718" unicode="&#216;" /><glyph d="M471 733H358L491 846H652ZM328 89Q411 89 459 137Q480 158 497 197.5Q514 237 526.5 283Q539 329 545.5 375.5Q552 422 552 457Q552 500 540 529L304 90Q310 89 315.5 89Q321 89 328 89ZM197 221Q197 169 211 141L450 587Q443 588 436 588.5Q429 589 421 589Q338 589 290 541Q269 520 252 480.5Q235 441 222.5 395Q210 349 203.5 302.5Q197 256 197 221ZM90 -86 147 21Q123 34 107 52Q78 81 63.5 125Q49 169 49 223Q49 268 56 321.5Q63 375 78 428Q93 481 116.5 528.5Q140 576 173 609Q218 654 283.5 674Q349 694 440 694Q457 694 473.5 692.5Q490 691 505 689L544 762H666L607 653Q628 640 642 626Q671 597 685.5 553Q700 509 700 455Q700 410 693 356.5Q686 303 671 250Q656 197 632.5 149.5Q609 102 576 69Q531 24 465.5 4Q400 -16 309 -16Q292 -16 277.5 -15Q263 -14 249 -12L210 -86Z" glyph-name="Oslashacute" horiz-adv-x="718" unicode="&#510;" /><glyph d="M542 828Q565 828 597.5 840Q630 852 653 867L637 779Q628 772 614 765Q600 758 584.5 752.5Q569 747 553 743.5Q537 740 524 740Q500 740 482 745Q464 750 448 756Q432 762 416 767Q400 772 381 772Q357 772 324 760Q291 748 265 734L282 823Q292 829 306.5 836Q321 843 337 849Q353 855 369 858.5Q385 862 398 862Q423 862 440.5 856.5Q458 851 474 845Q490 839 505.5 833.5Q521 828 542 828ZM328 89Q411 89 459 137Q480 158 497 197.5Q514 237 526.5 283Q539 329 545.5 375.5Q552 422 552 457Q552 529 520 560Q504 576 479.5 582.5Q455 589 421 589Q338 589 290 541Q269 520 252 480.5Q235 441 222.5 395Q210 349 203.5 302.5Q197 256 197 221Q197 149 229 118Q245 102 269.5 95.5Q294 89 328 89ZM309 -16Q235 -16 186.5 2.5Q138 21 107 52Q78 81 63.5 125Q49 169 49 223Q49 268 56 321.5Q63 375 78 428Q93 481 116.5 528.5Q140 576 173 609Q218 654 283.5 674Q349 694 440 694Q514 694 562.5 675.5Q611 657 642 626Q671 597 685.5 553Q700 509 700 455Q700 410 693 356.5Q686 303 671 250Q656 197 632.5 149.5Q609 102 576 69Q531 24 465.5 4Q400 -16 309 -16Z" glyph-name="Otilde" horiz-adv-x="718" unicode="&#213;" /><glyph d="M660 912H300L315 996H675ZM542 828Q553 828 568 831.5Q583 835 598 840Q613 845 627.5 852Q642 859 653 867L638 784Q629 777 615.5 770Q602 763 586 757.5Q570 752 554 748.5Q538 745 525 745Q501 745 483 750Q465 755 449 761Q433 767 417.5 772Q402 777 383 777Q359 777 325.5 765Q292 753 267 739L282 823Q292 829 306.5 836Q321 843 337 849Q353 855 369 858.5Q385 862 398 862Q423 862 440.5 856.5Q458 851 474 845Q490 839 505.5 833.5Q521 828 542 828ZM328 89Q411 89 459 137Q480 158 497 197.5Q514 237 526.5 283Q539 329 545.5 375.5Q552 422 552 457Q552 529 520 560Q504 576 479.5 582.5Q455 589 421 589Q338 589 290 541Q269 520 252 480.5Q235 441 222.5 395Q210 349 203.5 302.5Q197 256 197 221Q197 149 229 118Q245 102 269.5 95.5Q294 89 328 89ZM309 -16Q235 -16 186.5 2.5Q138 21 107 52Q78 81 63.5 125Q49 169 49 223Q49 268 56 321.5Q63 375 78 428Q93 481 116.5 528.5Q140 576 173 609Q218 654 283.5 674Q349 694 440 694Q514 694 562.5 675.5Q611 657 642 626Q671 597 685.5 553Q700 509 700 455Q700 410 693 356.5Q686 303 671 250Q656 197 632.5 149.5Q609 102 576 69Q531 24 465.5 4Q400 -16 309 -16Z" glyph-name="Otildemacron" horiz-adv-x="718" unicode="&#556;" /><glyph d="M317 -254H212L246 -74H351ZM309 -16Q235 -16 186.5 2.5Q138 21 107 52Q78 81 63.5 125Q49 169 49 223Q49 268 56 321.5Q63 375 78 428Q93 481 116.5 528.5Q140 576 173 609Q218 654 283.5 674Q349 694 440 694Q514 694 562.5 675.5Q611 657 642 626Q671 597 685.5 553Q700 509 700 455Q700 410 693 356.5Q686 303 671 250Q656 197 632.5 149.5Q609 102 576 69Q531 24 465.5 4Q400 -16 309 -16ZM328 89Q411 89 459 137Q480 158 497 197.5Q514 237 526.5 283Q539 329 545.5 375.5Q552 422 552 457Q552 529 520 560Q504 576 479.5 582.5Q455 589 421 589Q338 589 290 541Q269 520 252 480.5Q235 441 222.5 395Q210 349 203.5 302.5Q197 256 197 221Q197 149 229 118Q245 102 269.5 95.5Q294 89 328 89Z" glyph-name="Ounderlineaccent" horiz-adv-x="718" unicode="&#57633;" /><glyph d="M232 329H344Q393 329 418.5 333Q444 337 461 354Q474 367 482.5 385Q491 403 496.5 422.5Q502 442 504.5 461.5Q507 481 507 497Q507 514 503 528.5Q499 543 489 553Q475 567 450 569Q425 571 386 571H277ZM172 0H34L159 678H418Q494 678 540 665.5Q586 653 615 624Q638 601 646 566.5Q654 532 654 504Q654 442 634.5 381Q615 320 574 279Q553 258 524.5 246Q496 234 465 228.5Q434 223 401.5 222Q369 221 340 221H212Z" glyph-name="P" horiz-adv-x="640" unicode="P" /><glyph d="M582 756H222L239 846H599ZM232 329H344Q393 329 418.5 333Q444 337 461 354Q474 367 482.5 385Q491 403 496.5 422.5Q502 442 504.5 461.5Q507 481 507 497Q507 514 503 528.5Q499 543 489 553Q475 567 450 569Q425 571 386 571H277ZM172 0H34L159 678H418Q494 678 540 665.5Q586 653 615 624Q638 601 646 566.5Q654 532 654 504Q654 442 634.5 381Q615 320 574 279Q553 258 524.5 246Q496 234 465 228.5Q434 223 401.5 222Q369 221 340 221H212Z" glyph-name="Pmacron" horiz-adv-x="640" unicode="&#57635;" /><glyph d="M328 89Q411 89 459 137Q480 158 497 197.5Q514 237 526.5 283Q539 329 545.5 375.5Q552 422 552 457Q552 529 520 560Q504 576 479.5 582.5Q455 589 421 589Q338 589 290 541Q269 520 252 480.5Q235 441 222.5 395Q210 349 203.5 302.5Q197 256 197 221Q197 149 229 118Q245 102 269.5 95.5Q294 89 328 89ZM309 -16Q235 -16 186.5 2.5Q138 21 107 52Q78 81 63.5 125Q49 169 49 223Q49 268 56 321.5Q63 375 78 428Q93 481 116.5 528.5Q140 576 173 609Q218 654 283.5 674Q349 694 440 694Q514 694 562.5 675.5Q611 657 642 626Q671 597 685.5 553Q700 509 700 455Q700 410 693 356.5Q686 303 671 250Q656 197 632.5 149.5Q609 102 576 69Q545 38 503 18L602 -118H444L369 -13Q340 -16 309 -16Z" glyph-name="Q" horiz-adv-x="718" unicode="Q" /><glyph d="M277 571 239 364H361Q374 364 389 364Q404 364 418.5 366Q433 368 446 373Q459 378 470 389Q491 410 500 439Q509 468 509 500Q509 514 505.5 529.5Q502 545 491 556Q479 568 456 569.5Q433 571 399 571ZM34 0 159 678H432Q503 678 546.5 666Q590 654 618 626Q637 607 645.5 575.5Q654 544 654 515Q654 464 638 408.5Q622 353 580 311Q569 300 554 291.5Q539 283 522.5 276.5Q506 270 490 266Q474 262 462 260L585 0H439L322 257H219L172 0Z" glyph-name="R" horiz-adv-x="654" unicode="R" /><glyph d="M440 733H327L460 846H621ZM277 571 239 364H361Q374 364 389 364Q404 364 418.5 366Q433 368 446 373Q459 378 470 389Q491 410 500 439Q509 468 509 500Q509 514 505.5 529.5Q502 545 491 556Q479 568 456 569.5Q433 571 399 571ZM34 0 159 678H432Q503 678 546.5 666Q590 654 618 626Q637 607 645.5 575.5Q654 544 654 515Q654 464 638 408.5Q622 353 580 311Q569 300 554 291.5Q539 283 522.5 276.5Q506 270 490 266Q474 262 462 260L585 0H439L322 257H219L172 0Z" glyph-name="Racute" horiz-adv-x="654" unicode="&#340;" /><glyph d="M349 729 250 849H364L414 792L486 849H611L467 729ZM277 571 239 364H361Q374 364 389 364Q404 364 418.5 366Q433 368 446 373Q459 378 470 389Q491 410 500 439Q509 468 509 500Q509 514 505.5 529.5Q502 545 491 556Q479 568 456 569.5Q433 571 399 571ZM34 0 159 678H432Q503 678 546.5 666Q590 654 618 626Q637 607 645.5 575.5Q654 544 654 515Q654 464 638 408.5Q622 353 580 311Q569 300 554 291.5Q539 283 522.5 276.5Q506 270 490 266Q474 262 462 260L585 0H439L322 257H219L172 0Z" glyph-name="Rcaron" horiz-adv-x="654" unicode="&#344;" /><glyph d="M271 -38Q316 -40 340 -49Q364 -58 376 -70Q384 -78 386.5 -87Q389 -96 389 -104Q389 -116 383.5 -128.5Q378 -141 368 -150Q332 -184 238 -184Q217 -184 195.5 -181.5Q174 -179 146 -170L159 -102Q185 -111 203 -114Q221 -117 233 -117Q238 -117 246 -116.5Q254 -116 262 -114Q270 -112 275.5 -107Q281 -102 281 -94Q281 -88 277 -84.5Q273 -81 267 -79Q261 -77 255 -75.5Q249 -74 245 -74ZM277 571 239 364H361Q374 364 389 364Q404 364 418.5 366Q433 368 446 373Q459 378 470 389Q491 410 500 439Q509 468 509 500Q509 514 505.5 529.5Q502 545 491 556Q479 568 456 569.5Q433 571 399 571ZM34 0 159 678H432Q503 678 546.5 666Q590 654 618 626Q637 607 645.5 575.5Q654 544 654 515Q654 464 638 408.5Q622 353 580 311Q569 300 554 291.5Q539 283 522.5 276.5Q506 270 490 266Q474 262 462 260L585 0H439L322 257H219L172 0Z" glyph-name="Rcedilla" horiz-adv-x="654" unicode="&#57639;" /><glyph d="M217 -74H350L216 -268H139ZM277 571 239 364H361Q374 364 389 364Q404 364 418.5 366Q433 368 446 373Q459 378 470 389Q491 410 500 439Q509 468 509 500Q509 514 505.5 529.5Q502 545 491 556Q479 568 456 569.5Q433 571 399 571ZM34 0 159 678H432Q503 678 546.5 666Q590 654 618 626Q637 607 645.5 575.5Q654 544 654 515Q654 464 638 408.5Q622 353 580 311Q569 300 554 291.5Q539 283 522.5 276.5Q506 270 490 266Q474 262 462 260L585 0H439L322 257H219L172 0Z" glyph-name="Rcommaaccent" horiz-adv-x="654" unicode="&#342;" /><glyph d="M321 -197H197L217 -88H341ZM277 571 239 364H361Q374 364 389 364Q404 364 418.5 366Q433 368 446 373Q459 378 470 389Q491 410 500 439Q509 468 509 500Q509 514 505.5 529.5Q502 545 491 556Q479 568 456 569.5Q433 571 399 571ZM34 0 159 678H432Q503 678 546.5 666Q590 654 618 626Q637 607 645.5 575.5Q654 544 654 515Q654 464 638 408.5Q622 353 580 311Q569 300 554 291.5Q539 283 522.5 276.5Q506 270 490 266Q474 262 462 260L585 0H439L322 257H219L172 0Z" glyph-name="Rdotbelow" horiz-adv-x="654" unicode="&#7770;" /><glyph d="M587 756H227L244 846H604ZM321 -197H197L217 -88H341ZM277 571 239 364H361Q374 364 389 364Q404 364 418.5 366Q433 368 446 373Q459 378 470 389Q491 410 500 439Q509 468 509 500Q509 514 505.5 529.5Q502 545 491 556Q479 568 456 569.5Q433 571 399 571ZM34 0 159 678H432Q503 678 546.5 666Q590 654 618 626Q637 607 645.5 575.5Q654 544 654 515Q654 464 638 408.5Q622 353 580 311Q569 300 554 291.5Q539 283 522.5 276.5Q506 270 490 266Q474 262 462 260L585 0H439L322 257H219L172 0Z" glyph-name="Rdotbelowmacron" horiz-adv-x="654" unicode="&#7772;" /><glyph d="M137 846H277L366 731H274ZM323 846H463L552 731H460ZM277 571 239 364H361Q374 364 389 364Q404 364 418.5 366Q433 368 446 373Q459 378 470 389Q491 410 500 439Q509 468 509 500Q509 514 505.5 529.5Q502 545 491 556Q479 568 456 569.5Q433 571 399 571ZM34 0 159 678H432Q503 678 546.5 666Q590 654 618 626Q637 607 645.5 575.5Q654 544 654 515Q654 464 638 408.5Q622 353 580 311Q569 300 554 291.5Q539 283 522.5 276.5Q506 270 490 266Q474 262 462 260L585 0H439L322 257H219L172 0Z" glyph-name="Rdoublegrave" horiz-adv-x="654" unicode="&#57637;" /><glyph d="M417 782Q393 782 374 777Q355 772 341 758Q330 747 323 731H217Q225 753 233 769Q241 785 257 801Q288 832 331 845Q374 858 425 858Q470 858 504.5 848Q539 838 561 816Q576 801 586 780Q596 759 595 731H493Q492 751 479 764Q461 782 417 782ZM277 571 239 364H361Q374 364 389 364Q404 364 418.5 366Q433 368 446 373Q459 378 470 389Q491 410 500 439Q509 468 509 500Q509 514 505.5 529.5Q502 545 491 556Q479 568 456 569.5Q433 571 399 571ZM34 0 159 678H432Q503 678 546.5 666Q590 654 618 626Q637 607 645.5 575.5Q654 544 654 515Q654 464 638 408.5Q622 353 580 311Q569 300 554 291.5Q539 283 522.5 276.5Q506 270 490 266Q474 262 462 260L585 0H439L322 257H219L172 0Z" glyph-name="Rinvertedbreve" horiz-adv-x="654" unicode="&#530;" /><glyph d="M247 98Q305 98 341 107.5Q377 117 397 137Q428 166 428 212Q428 225 423.5 237Q419 249 412 256Q401 267 381.5 272.5Q362 278 337 281Q312 284 284 287Q256 290 228 297Q200 304 174 315.5Q148 327 127 348Q112 363 101.5 390.5Q91 418 91 450Q91 498 104.5 540Q118 582 154 618Q198 662 267 678Q336 694 419 694Q432 694 454.5 693Q477 692 502.5 689.5Q528 687 553 682.5Q578 678 596 671L577 566Q552 572 526.5 576Q501 580 478 582Q455 584 435 585Q415 586 402 586Q302 586 262 546Q251 535 243.5 520Q236 505 236 485Q236 457 249 444Q264 429 298.5 424Q333 419 375 413Q417 407 460 394Q503 381 535 349Q552 332 563 304Q574 276 574 242Q574 194 559.5 149.5Q545 105 505 65Q459 20 387 2Q315 -16 229 -16Q215 -16 191.5 -15Q168 -14 139 -11Q110 -8 79.5 -2.5Q49 3 22 12L42 123Q67 116 97 111Q127 106 155 103Q183 100 207.5 99Q232 98 247 98Z" glyph-name="S" horiz-adv-x="613" unicode="S" /><glyph d="M439 733H326L459 846H620ZM247 98Q305 98 341 107.5Q377 117 397 137Q428 166 428 212Q428 225 423.5 237Q419 249 412 256Q401 267 381.5 272.5Q362 278 337 281Q312 284 284 287Q256 290 228 297Q200 304 174 315.5Q148 327 127 348Q112 363 101.5 390.5Q91 418 91 450Q91 498 104.5 540Q118 582 154 618Q198 662 267 678Q336 694 419 694Q432 694 454.5 693Q477 692 502.5 689.5Q528 687 553 682.5Q578 678 596 671L577 566Q552 572 526.5 576Q501 580 478 582Q455 584 435 585Q415 586 402 586Q302 586 262 546Q251 535 243.5 520Q236 505 236 485Q236 457 249 444Q264 429 298.5 424Q333 419 375 413Q417 407 460 394Q503 381 535 349Q552 332 563 304Q574 276 574 242Q574 194 559.5 149.5Q545 105 505 65Q459 20 387 2Q315 -16 229 -16Q215 -16 191.5 -15Q168 -14 139 -11Q110 -8 79.5 -2.5Q49 3 22 12L42 123Q67 116 97 111Q127 106 155 103Q183 100 207.5 99Q232 98 247 98Z" glyph-name="Sacute" horiz-adv-x="613" unicode="&#346;" /><glyph d="M334 729 235 849H349L399 792L471 849H596L452 729ZM247 98Q305 98 341 107.5Q377 117 397 137Q428 166 428 212Q428 225 423.5 237Q419 249 412 256Q401 267 381.5 272.5Q362 278 337 281Q312 284 284 287Q256 290 228 297Q200 304 174 315.5Q148 327 127 348Q112 363 101.5 390.5Q91 418 91 450Q91 498 104.5 540Q118 582 154 618Q198 662 267 678Q336 694 419 694Q432 694 454.5 693Q477 692 502.5 689.5Q528 687 553 682.5Q578 678 596 671L577 566Q552 572 526.5 576Q501 580 478 582Q455 584 435 585Q415 586 402 586Q302 586 262 546Q251 535 243.5 520Q236 505 236 485Q236 457 249 444Q264 429 298.5 424Q333 419 375 413Q417 407 460 394Q503 381 535 349Q552 332 563 304Q574 276 574 242Q574 194 559.5 149.5Q545 105 505 65Q459 20 387 2Q315 -16 229 -16Q215 -16 191.5 -15Q168 -14 139 -11Q110 -8 79.5 -2.5Q49 3 22 12L42 123Q67 116 97 111Q127 106 155 103Q183 100 207.5 99Q232 98 247 98Z" glyph-name="Scaron" horiz-adv-x="613" unicode="&#352;" /><glyph d="M218 -16Q202 -16 179 -14.5Q156 -13 129 -10Q102 -7 74.5 -2Q47 3 22 12L42 123Q67 116 97 111Q127 106 155 103Q183 100 207.5 99Q232 98 247 98Q305 98 341 107.5Q377 117 397 137Q428 166 428 212Q428 225 423.5 237Q419 249 412 256Q401 267 381.5 272.5Q362 278 337 281Q312 284 284 287Q256 290 228 297Q200 304 174 315.5Q148 327 127 348Q112 363 101.5 390.5Q91 418 91 450Q91 498 104.5 540Q118 582 154 618Q198 662 267 678Q336 694 419 694Q432 694 454.5 693Q477 692 502.5 689.5Q528 687 553 682.5Q578 678 596 671L577 566Q552 572 526.5 576Q501 580 478 582Q455 584 435 585Q415 586 402 586Q302 586 262 546Q251 535 243.5 520Q236 505 236 485Q236 457 249 444Q264 429 298.5 424Q333 419 375 413Q417 407 460 394Q503 381 535 349Q552 332 563 304Q574 276 574 242Q574 194 559.5 149.5Q545 105 505 65Q471 31 422.5 13.5Q374 -4 315 -11L296 -43Q321 -52 332 -63Q340 -71 342.5 -80.5Q345 -90 345 -98Q345 -126 323 -148Q287 -184 194 -184Q173 -184 151.5 -181.5Q130 -179 102 -170L115 -102Q141 -111 159 -114Q177 -117 189 -117Q194 -117 202 -116.5Q210 -116 218 -114Q226 -112 231.5 -107.5Q237 -103 237 -95Q237 -84 225 -80.5Q213 -77 199 -75L198 -48Z" glyph-name="Scedilla" horiz-adv-x="613" unicode="&#350;" /><glyph d="M301 90Q335 90 372.5 98.5Q410 107 438 135Q461 158 474.5 187.5Q488 217 501 265H189Q178 232 178 194Q178 177 183 156.5Q188 136 205 119Q222 103 246 96.5Q270 90 301 90ZM40 193Q40 238 49 282.5Q58 327 71 372H522Q527 394 529 416Q531 438 531 456Q531 514 501 546Q480 567 444 576.5Q408 586 351 586Q333 586 307 584Q281 582 251.5 578.5Q222 575 191.5 569Q161 563 134 556L153 665Q214 682 277 688Q340 694 394 694Q475 694 531 674Q587 654 621 620Q677 564 677 453Q677 405 670 353Q663 301 647 250.5Q631 200 605.5 153.5Q580 107 544 71Q490 17 423.5 0.5Q357 -16 283 -16Q215 -16 169.5 2Q124 20 94 50Q69 75 54.5 111Q40 147 40 193Z" glyph-name="Schwa" horiz-adv-x="696" unicode="&#399;" /><glyph d="M474 849 573 729H459L409 786L337 729H212L356 849ZM247 98Q305 98 341 107.5Q377 117 397 137Q428 166 428 212Q428 225 423.5 237Q419 249 412 256Q401 267 381.5 272.5Q362 278 337 281Q312 284 284 287Q256 290 228 297Q200 304 174 315.5Q148 327 127 348Q112 363 101.5 390.5Q91 418 91 450Q91 498 104.5 540Q118 582 154 618Q198 662 267 678Q336 694 419 694Q432 694 454.5 693Q477 692 502.5 689.5Q528 687 553 682.5Q578 678 596 671L577 566Q552 572 526.5 576Q501 580 478 582Q455 584 435 585Q415 586 402 586Q302 586 262 546Q251 535 243.5 520Q236 505 236 485Q236 457 249 444Q264 429 298.5 424Q333 419 375 413Q417 407 460 394Q503 381 535 349Q552 332 563 304Q574 276 574 242Q574 194 559.5 149.5Q545 105 505 65Q459 20 387 2Q315 -16 229 -16Q215 -16 191.5 -15Q168 -14 139 -11Q110 -8 79.5 -2.5Q49 3 22 12L42 123Q67 116 97 111Q127 106 155 103Q183 100 207.5 99Q232 98 247 98Z" glyph-name="Scircumflex" horiz-adv-x="613" unicode="&#348;" /><glyph d="M187 -74H320L186 -268H109ZM247 98Q305 98 341 107.5Q377 117 397 137Q428 166 428 212Q428 225 423.5 237Q419 249 412 256Q401 267 381.5 272.5Q362 278 337 281Q312 284 284 287Q256 290 228 297Q200 304 174 315.5Q148 327 127 348Q112 363 101.5 390.5Q91 418 91 450Q91 498 104.5 540Q118 582 154 618Q198 662 267 678Q336 694 419 694Q432 694 454.5 693Q477 692 502.5 689.5Q528 687 553 682.5Q578 678 596 671L577 566Q552 572 526.5 576Q501 580 478 582Q455 584 435 585Q415 586 402 586Q302 586 262 546Q251 535 243.5 520Q236 505 236 485Q236 457 249 444Q264 429 298.5 424Q333 419 375 413Q417 407 460 394Q503 381 535 349Q552 332 563 304Q574 276 574 242Q574 194 559.5 149.5Q545 105 505 65Q459 20 387 2Q315 -16 229 -16Q215 -16 191.5 -15Q168 -14 139 -11Q110 -8 79.5 -2.5Q49 3 22 12L42 123Q67 116 97 111Q127 106 155 103Q183 100 207.5 99Q232 98 247 98Z" glyph-name="Scommaaccent" horiz-adv-x="613" unicode="&#536;" /><glyph d="M285 -197H161L181 -88H305ZM247 98Q305 98 341 107.5Q377 117 397 137Q428 166 428 212Q428 225 423.5 237Q419 249 412 256Q401 267 381.5 272.5Q362 278 337 281Q312 284 284 287Q256 290 228 297Q200 304 174 315.5Q148 327 127 348Q112 363 101.5 390.5Q91 418 91 450Q91 498 104.5 540Q118 582 154 618Q198 662 267 678Q336 694 419 694Q432 694 454.5 693Q477 692 502.5 689.5Q528 687 553 682.5Q578 678 596 671L577 566Q552 572 526.5 576Q501 580 478 582Q455 584 435 585Q415 586 402 586Q302 586 262 546Q251 535 243.5 520Q236 505 236 485Q236 457 249 444Q264 429 298.5 424Q333 419 375 413Q417 407 460 394Q503 381 535 349Q552 332 563 304Q574 276 574 242Q574 194 559.5 149.5Q545 105 505 65Q459 20 387 2Q315 -16 229 -16Q215 -16 191.5 -15Q168 -14 139 -11Q110 -8 79.5 -2.5Q49 3 22 12L42 123Q67 116 97 111Q127 106 155 103Q183 100 207.5 99Q232 98 247 98Z" glyph-name="Sdotbelow" horiz-adv-x="613" unicode="&#7778;" /><glyph d="M287 0H149L254 571H64L84 678H602L582 571H392Z" glyph-name="T" horiz-adv-x="530" unicode="T" /><glyph d="M482 292H340L287 0H149L202 292H67L87 399H222L254 571H64L84 678H602L582 571H392L360 399H502Z" glyph-name="Tbar" horiz-adv-x="530" unicode="&#358;" /><glyph d="M292 729 193 849H307L357 792L429 849H554L410 729ZM287 0H149L254 571H64L84 678H602L582 571H392Z" glyph-name="Tcaron" horiz-adv-x="530" unicode="&#356;" /><glyph d="M193 -38Q238 -40 262 -49Q286 -58 298 -70Q306 -78 308.5 -87Q311 -96 311 -104Q311 -116 305.5 -128.5Q300 -141 290 -150Q254 -184 160 -184Q139 -184 117.5 -181.5Q96 -179 68 -170L81 -102Q107 -111 125 -114Q143 -117 155 -117Q160 -117 168 -116.5Q176 -116 184 -114Q192 -112 197.5 -107Q203 -102 203 -94Q203 -88 199 -84.5Q195 -81 189 -79Q183 -77 177 -75.5Q171 -74 167 -74ZM287 0H149L254 571H64L84 678H602L582 571H392Z" glyph-name="Tcedilla" horiz-adv-x="530" unicode="&#57641;" /><glyph d="M139 -74H272L138 -268H61ZM287 0H149L254 571H64L84 678H602L582 571H392Z" glyph-name="Tcommaaccent" horiz-adv-x="530" unicode="&#354;" /><glyph d="M243 -197H119L139 -88H263ZM287 0H149L254 571H64L84 678H602L582 571H392Z" glyph-name="Tdotbelow" horiz-adv-x="530" unicode="&#7788;" /><glyph d="M212 223H324Q373 223 398.5 227Q424 231 441 248Q454 261 462.5 279Q471 297 476.5 316.5Q482 336 484.5 355.5Q487 375 487 391Q487 408 483 422.5Q479 437 469 447Q455 461 430 463Q405 465 366 465H257ZM157 678H295L275 572H398Q474 572 520 559.5Q566 547 595 518Q618 495 626 460.5Q634 426 634 398Q634 336 614.5 275Q595 214 554 173Q533 152 504.5 140Q476 128 445 122.5Q414 117 381.5 116Q349 115 320 115H192L172 0H34Z" glyph-name="Thorn" horiz-adv-x="650" unicode="&#222;" /><glyph d="M313 90Q364 90 393.5 102Q423 114 437 128Q457 148 465.5 170.5Q474 193 478 213L564 678H702L619 226Q608 172 589.5 130.5Q571 89 539 57Q516 34 489 19.5Q462 5 432 -2.5Q402 -10 370 -13Q338 -16 304 -16Q232 -15 182.5 -2.5Q133 10 104 39Q67 76 59 127Q51 178 62 238L143 678H281L195 213Q191 193 193 165.5Q195 138 215 118Q229 104 252 97Q275 90 313 90Z" glyph-name="U" horiz-adv-x="691" unicode="U" /><glyph d="M892 0H441Q409 -9 374.5 -12Q340 -15 304 -16Q232 -15 182.5 -2.5Q133 10 104 39Q67 76 59 127Q51 178 62 238L143 678H281L195 213Q191 193 193 165.5Q195 138 215 118Q229 104 252 97Q275 90 313 90Q364 90 393.5 102Q423 114 437 128Q457 148 465.5 170.5Q474 193 478 213L564 678H1010L990 571H682L650 399H914L895 292H631L596 107H911Z" glyph-name="UE" horiz-adv-x="970" unicode="&#59481;" /><glyph d="M477 733H364L497 846H658ZM313 90Q364 90 393.5 102Q423 114 437 128Q457 148 465.5 170.5Q474 193 478 213L564 678H702L619 226Q608 172 589.5 130.5Q571 89 539 57Q516 34 489 19.5Q462 5 432 -2.5Q402 -10 370 -13Q338 -16 304 -16Q232 -15 182.5 -2.5Q133 10 104 39Q67 76 59 127Q51 178 62 238L143 678H281L195 213Q191 193 193 165.5Q195 138 215 118Q229 104 252 97Q275 90 313 90Z" glyph-name="Uacute" horiz-adv-x="691" unicode="&#218;" /><glyph d="M442 795Q466 795 485 800Q504 805 518 819Q528 829 536 846H642Q634 824 626 808Q618 792 602 776Q571 745 528 732Q485 719 434 719Q389 719 354.5 729Q320 739 298 761Q283 776 273 797Q263 818 264 846H366Q367 826 380 813Q398 795 442 795ZM313 90Q364 90 393.5 102Q423 114 437 128Q457 148 465.5 170.5Q474 193 478 213L564 678H702L619 226Q608 172 589.5 130.5Q571 89 539 57Q516 34 489 19.5Q462 5 432 -2.5Q402 -10 370 -13Q338 -16 304 -16Q232 -15 182.5 -2.5Q133 10 104 39Q67 76 59 127Q51 178 62 238L143 678H281L195 213Q191 193 193 165.5Q195 138 215 118Q229 104 252 97Q275 90 313 90Z" glyph-name="Ubreve" horiz-adv-x="691" unicode="&#364;" /><glyph d="M372 729 273 849H387L437 792L509 849H634L490 729ZM313 90Q364 90 393.5 102Q423 114 437 128Q457 148 465.5 170.5Q474 193 478 213L564 678H702L619 226Q608 172 589.5 130.5Q571 89 539 57Q516 34 489 19.5Q462 5 432 -2.5Q402 -10 370 -13Q338 -16 304 -16Q232 -15 182.5 -2.5Q133 10 104 39Q67 76 59 127Q51 178 62 238L143 678H281L195 213Q191 193 193 165.5Q195 138 215 118Q229 104 252 97Q275 90 313 90Z" glyph-name="Ucaron" horiz-adv-x="691" unicode="&#467;" /><glyph d="M513 849 612 729H498L448 786L376 729H251L395 849ZM313 90Q364 90 393.5 102Q423 114 437 128Q457 148 465.5 170.5Q474 193 478 213L564 678H702L619 226Q608 172 589.5 130.5Q571 89 539 57Q516 34 489 19.5Q462 5 432 -2.5Q402 -10 370 -13Q338 -16 304 -16Q232 -15 182.5 -2.5Q133 10 104 39Q67 76 59 127Q51 178 62 238L143 678H281L195 213Q191 193 193 165.5Q195 138 215 118Q229 104 252 97Q275 90 313 90Z" glyph-name="Ucircumflex" horiz-adv-x="691" unicode="&#219;" /><glyph d="M610 740H484L503 844H629ZM385 740H259L278 844H404ZM313 90Q364 90 393.5 102Q423 114 437 128Q457 148 465.5 170.5Q474 193 478 213L564 678H702L619 226Q608 172 589.5 130.5Q571 89 539 57Q516 34 489 19.5Q462 5 432 -2.5Q402 -10 370 -13Q338 -16 304 -16Q232 -15 182.5 -2.5Q133 10 104 39Q67 76 59 127Q51 178 62 238L143 678H281L195 213Q191 193 193 165.5Q195 138 215 118Q229 104 252 97Q275 90 313 90Z" glyph-name="Udieresis" horiz-adv-x="691" unicode="&#220;" /><glyph d="M325 -197H201L221 -88H345ZM313 90Q364 90 393.5 102Q423 114 437 128Q457 148 465.5 170.5Q474 193 478 213L564 678H702L619 226Q608 172 589.5 130.5Q571 89 539 57Q516 34 489 19.5Q462 5 432 -2.5Q402 -10 370 -13Q338 -16 304 -16Q232 -15 182.5 -2.5Q133 10 104 39Q67 76 59 127Q51 178 62 238L143 678H281L195 213Q191 193 193 165.5Q195 138 215 118Q229 104 252 97Q275 90 313 90Z" glyph-name="Udotbelow" horiz-adv-x="691" unicode="&#7908;" /><glyph d="M172 846H312L401 731H309ZM358 846H498L587 731H495ZM313 90Q364 90 393.5 102Q423 114 437 128Q457 148 465.5 170.5Q474 193 478 213L564 678H702L619 226Q608 172 589.5 130.5Q571 89 539 57Q516 34 489 19.5Q462 5 432 -2.5Q402 -10 370 -13Q338 -16 304 -16Q232 -15 182.5 -2.5Q133 10 104 39Q67 76 59 127Q51 178 62 238L143 678H281L195 213Q191 193 193 165.5Q195 138 215 118Q229 104 252 97Q275 90 313 90Z" glyph-name="Udoublegrave" horiz-adv-x="691" unicode="&#532;" /><glyph d="M256 846H410L501 733H395ZM313 90Q364 90 393.5 102Q423 114 437 128Q457 148 465.5 170.5Q474 193 478 213L564 678H702L619 226Q608 172 589.5 130.5Q571 89 539 57Q516 34 489 19.5Q462 5 432 -2.5Q402 -10 370 -13Q338 -16 304 -16Q232 -15 182.5 -2.5Q133 10 104 39Q67 76 59 127Q51 178 62 238L143 678H281L195 213Q191 193 193 165.5Q195 138 215 118Q229 104 252 97Q275 90 313 90Z" glyph-name="Ugrave" horiz-adv-x="691" unicode="&#217;" /><glyph d="M563 731H466L597 846H742ZM374 731H277L408 846H553ZM313 90Q364 90 393.5 102Q423 114 437 128Q457 148 465.5 170.5Q474 193 478 213L564 678H702L619 226Q608 172 589.5 130.5Q571 89 539 57Q516 34 489 19.5Q462 5 432 -2.5Q402 -10 370 -13Q338 -16 304 -16Q232 -15 182.5 -2.5Q133 10 104 39Q67 76 59 127Q51 178 62 238L143 678H281L195 213Q191 193 193 165.5Q195 138 215 118Q229 104 252 97Q275 90 313 90Z" glyph-name="Uhungarumlaut" horiz-adv-x="691" unicode="&#368;" /><glyph d="M443 782Q419 782 400 777Q381 772 367 758Q356 747 349 731H243Q251 753 259 769Q267 785 283 801Q314 832 357 845Q400 858 451 858Q496 858 530.5 848Q565 838 587 816Q602 801 612 780Q622 759 621 731H519Q518 751 505 764Q487 782 443 782ZM313 90Q364 90 393.5 102Q423 114 437 128Q457 148 465.5 170.5Q474 193 478 213L564 678H702L619 226Q608 172 589.5 130.5Q571 89 539 57Q516 34 489 19.5Q462 5 432 -2.5Q402 -10 370 -13Q338 -16 304 -16Q232 -15 182.5 -2.5Q133 10 104 39Q67 76 59 127Q51 178 62 238L143 678H281L195 213Q191 193 193 165.5Q195 138 215 118Q229 104 252 97Q275 90 313 90Z" glyph-name="Uinvertedbreve" horiz-adv-x="691" unicode="&#534;" /><glyph d="M616 756H256L273 846H633ZM313 90Q364 90 393.5 102Q423 114 437 128Q457 148 465.5 170.5Q474 193 478 213L564 678H702L619 226Q608 172 589.5 130.5Q571 89 539 57Q516 34 489 19.5Q462 5 432 -2.5Q402 -10 370 -13Q338 -16 304 -16Q232 -15 182.5 -2.5Q133 10 104 39Q67 76 59 127Q51 178 62 238L143 678H281L195 213Q191 193 193 165.5Q195 138 215 118Q229 104 252 97Q275 90 313 90Z" glyph-name="Umacron" horiz-adv-x="691" unicode="&#362;" /><glyph d="M446 -168H86L103 -78H463ZM313 90Q364 90 393.5 102Q423 114 437 128Q457 148 465.5 170.5Q474 193 478 213L564 678H702L619 226Q608 172 589.5 130.5Q571 89 539 57Q516 34 489 19.5Q462 5 432 -2.5Q402 -10 370 -13Q338 -16 304 -16Q232 -15 182.5 -2.5Q133 10 104 39Q67 76 59 127Q51 178 62 238L143 678H281L195 213Q191 193 193 165.5Q195 138 215 118Q229 104 252 97Q275 90 313 90Z" glyph-name="Umacronbelow" horiz-adv-x="691" unicode="&#57643;" /><glyph d="M316 -36Q306 -46 297.5 -59.5Q289 -73 289 -87Q289 -99 295 -105Q303 -113 325 -113Q342 -113 357.5 -111Q373 -109 395 -102L382 -170Q359 -178 332 -181Q305 -184 288 -184Q231 -184 208 -162Q200 -154 195 -141Q190 -128 190 -116Q190 -90 202 -70Q214 -50 234 -30Q238 -25 242.5 -21Q247 -17 252 -13Q201 -9 164 3Q127 15 104 39Q67 76 59 127Q51 178 62 238L143 678H281L195 213Q191 193 193 165.5Q195 138 215 118Q229 104 252 97Q275 90 313 90Q364 90 393.5 102Q423 114 437 128Q457 148 465.5 170.5Q474 193 478 213L564 678H702L619 226Q608 172 589.5 130.5Q571 89 539 57Q499 16 448.5 2Q398 -12 341 -15Q328 -24 316 -36Z" glyph-name="Uogonek" horiz-adv-x="691" unicode="&#370;" /><glyph d="M431 721Q379 721 356 744Q348 751 344 762.5Q340 774 340 787Q340 804 345 821.5Q350 839 364 853Q381 870 405 875.5Q429 881 458 881Q510 881 533 858Q541 851 545 839.5Q549 828 549 815Q549 798 544 780.5Q539 763 525 749Q508 732 484 726.5Q460 721 431 721ZM440 771Q461 771 471 781Q477 787 479.5 795Q482 803 482 811Q482 822 476 828Q470 834 452 834Q431 834 421 824Q415 818 412.5 810Q410 802 410 794Q410 783 416 777Q422 771 440 771ZM313 90Q364 90 393.5 102Q423 114 437 128Q457 148 465.5 170.5Q474 193 478 213L564 678H702L619 226Q608 172 589.5 130.5Q571 89 539 57Q516 34 489 19.5Q462 5 432 -2.5Q402 -10 370 -13Q338 -16 304 -16Q232 -15 182.5 -2.5Q133 10 104 39Q67 76 59 127Q51 178 62 238L143 678H281L195 213Q191 193 193 165.5Q195 138 215 118Q229 104 252 97Q275 90 313 90Z" glyph-name="Uring" horiz-adv-x="691" unicode="&#366;" /><glyph d="M528 828Q551 828 583.5 840Q616 852 639 867L623 779Q614 772 600 765Q586 758 570.5 752.5Q555 747 539 743.5Q523 740 510 740Q486 740 468 745Q450 750 434 756Q418 762 402 767Q386 772 367 772Q343 772 310 760Q277 748 251 734L268 823Q278 829 292.5 836Q307 843 323 849Q339 855 355 858.5Q371 862 384 862Q409 862 426.5 856.5Q444 851 460 845Q476 839 491.5 833.5Q507 828 528 828ZM313 90Q364 90 393.5 102Q423 114 437 128Q457 148 465.5 170.5Q474 193 478 213L564 678H702L619 226Q608 172 589.5 130.5Q571 89 539 57Q516 34 489 19.5Q462 5 432 -2.5Q402 -10 370 -13Q338 -16 304 -16Q232 -15 182.5 -2.5Q133 10 104 39Q67 76 59 127Q51 178 62 238L143 678H281L195 213Q191 193 193 165.5Q195 138 215 118Q229 104 252 97Q275 90 313 90Z" glyph-name="Utilde" horiz-adv-x="691" unicode="&#360;" /><glyph d="M296 129Q328 196 357.5 259Q387 322 413 373L569 678H718L360 0H186L78 678H219L263 373Q270 322 278.5 259Q287 196 293 129Z" glyph-name="V" horiz-adv-x="640" unicode="V" /><glyph d="M598 678 648 333Q655 285 660.5 234.5Q666 184 668 136H672Q690 184 710 236Q730 288 751 336L902 678H1041L731 0H575L537 253Q531 293 526 333Q521 373 517 404H514Q496 367 476 329.5Q456 292 436 253L304 0H142L82 678H220L244 337Q248 288 250 236.5Q252 185 252 136H256Q276 184 299 231Q322 278 347 325L478 573L460 678Z" glyph-name="W" horiz-adv-x="969" unicode="W" /><glyph d="M592 733H479L612 846H773ZM598 678 648 333Q655 285 660.5 234.5Q666 184 668 136H672Q690 184 710 236Q730 288 751 336L902 678H1041L731 0H575L537 253Q531 293 526 333Q521 373 517 404H514Q496 367 476 329.5Q456 292 436 253L304 0H142L82 678H220L244 337Q248 288 250 236.5Q252 185 252 136H256Q276 184 299 231Q322 278 347 325L478 573L460 678Z" glyph-name="Wacute" horiz-adv-x="969" unicode="&#7810;" /><glyph d="M648 849 747 729H633L583 786L511 729H386L530 849ZM598 678 648 333Q655 285 660.5 234.5Q666 184 668 136H672Q690 184 710 236Q730 288 751 336L902 678H1041L731 0H575L537 253Q531 293 526 333Q521 373 517 404H514Q496 367 476 329.5Q456 292 436 253L304 0H142L82 678H220L244 337Q248 288 250 236.5Q252 185 252 136H256Q276 184 299 231Q322 278 347 325L478 573L460 678Z" glyph-name="Wcircumflex" horiz-adv-x="969" unicode="&#372;" /><glyph d="M739 740H613L632 844H758ZM514 740H388L407 844H533ZM598 678 648 333Q655 285 660.5 234.5Q666 184 668 136H672Q690 184 710 236Q730 288 751 336L902 678H1041L731 0H575L537 253Q531 293 526 333Q521 373 517 404H514Q496 367 476 329.5Q456 292 436 253L304 0H142L82 678H220L244 337Q248 288 250 236.5Q252 185 252 136H256Q276 184 299 231Q322 278 347 325L478 573L460 678Z" glyph-name="Wdieresis" horiz-adv-x="969" unicode="&#7812;" /><glyph d="M341 846H495L586 733H480ZM598 678 648 333Q655 285 660.5 234.5Q666 184 668 136H672Q690 184 710 236Q730 288 751 336L902 678H1041L731 0H575L537 253Q531 293 526 333Q521 373 517 404H514Q496 367 476 329.5Q456 292 436 253L304 0H142L82 678H220L244 337Q248 288 250 236.5Q252 185 252 136H256Q276 184 299 231Q322 278 347 325L478 573L460 678Z" glyph-name="Wgrave" horiz-adv-x="969" unicode="&#7808;" /><glyph d="M-57 0 233 350 70 678H223L328 458L507 678H674L390 337L559 0H407L295 232L108 0Z" glyph-name="X" horiz-adv-x="596" unicode="X" /><glyph d="M549 678H703L374 247L329 0H192L237 246L73 678H214L321 367H324Z" glyph-name="Y" horiz-adv-x="620" unicode="Y" /><glyph d="M446 733H333L466 846H627ZM549 678H703L374 247L329 0H192L237 246L73 678H214L321 367H324Z" glyph-name="Yacute" horiz-adv-x="620" unicode="&#221;" /><glyph d="M482 849 581 729H467L417 786L345 729H220L364 849ZM549 678H703L374 247L329 0H192L237 246L73 678H214L321 367H324Z" glyph-name="Ycircumflex" horiz-adv-x="620" unicode="&#374;" /><glyph d="M353 740H227L246 844H372ZM578 740H452L471 844H597ZM549 678H703L374 247L329 0H192L237 246L73 678H214L321 367H324Z" glyph-name="Ydieresis" horiz-adv-x="620" unicode="&#376;" /><glyph d="M219 846H373L464 733H358ZM549 678H703L374 247L329 0H192L237 246L73 678H214L321 367H324Z" glyph-name="Ygrave" horiz-adv-x="620" unicode="&#7922;" /><glyph d="M584 756H224L241 846H601ZM549 678H703L374 247L329 0H192L237 246L73 678H214L321 367H324Z" glyph-name="Ymacron" horiz-adv-x="620" unicode="&#562;" /><glyph d="M311 34Q331 54 341.5 81.5Q352 109 352 140Q352 181 330 203Q309 225 273.5 231Q238 237 196 237Q178 237 162 236.5Q146 236 123 234L134 322L376 569V571H82L102 678H571L553 581L320 343Q359 338 392 320.5Q425 303 449 279Q470 257 482.5 225Q495 193 495 152Q495 99 477.5 49Q460 -1 421 -42Q395 -68 362 -86Q329 -104 291 -114.5Q253 -125 211.5 -129.5Q170 -134 127 -134Q100 -134 49 -130Q-2 -126 -63 -106L-44 5Q-18 -2 9 -7Q36 -12 61.5 -15Q87 -18 108.5 -19Q130 -20 145 -20Q257 -20 311 34Z" glyph-name="Yogh" horiz-adv-x="560" unicode="&#439;" /><glyph d="M288 729 189 849H303L353 792L425 849H550L406 729ZM311 34Q331 54 341.5 81.5Q352 109 352 140Q352 181 330 203Q309 225 273.5 231Q238 237 196 237Q178 237 162 236.5Q146 236 123 234L134 322L376 569V571H82L102 678H571L553 581L320 343Q359 338 392 320.5Q425 303 449 279Q470 257 482.5 225Q495 193 495 152Q495 99 477.5 49Q460 -1 421 -42Q395 -68 362 -86Q329 -104 291 -114.5Q253 -125 211.5 -129.5Q170 -134 127 -134Q100 -134 49 -130Q-2 -126 -63 -106L-44 5Q-18 -2 9 -7Q36 -12 61.5 -15Q87 -18 108.5 -19Q130 -20 145 -20Q257 -20 311 34Z" glyph-name="Yoghcaron" horiz-adv-x="557" unicode="&#59526;" /><glyph d="M496 834Q519 834 551.5 846Q584 858 607 873L591 785Q582 778 568 771Q554 764 538.5 758.5Q523 753 507 749.5Q491 746 478 746Q454 746 436 751Q418 756 402 762Q386 768 370 773Q354 778 335 778Q311 778 278 766Q245 754 219 740L236 829Q246 835 260.5 842Q275 849 291 855Q307 861 323 864.5Q339 868 352 868Q377 868 394.5 862.5Q412 857 428 851Q444 845 459.5 839.5Q475 834 496 834ZM549 678H703L374 247L329 0H192L237 246L73 678H214L321 367H324Z" glyph-name="Ytilde" horiz-adv-x="620" unicode="&#7928;" /><glyph d="M-15 0 2 96 407 569V571H117L137 678H606L588 581L182 109L181 107H503L484 0Z" glyph-name="Z" horiz-adv-x="564" unicode="Z" /><glyph d="M415 733H302L435 846H596ZM-15 0 2 96 407 569V571H117L137 678H606L588 581L182 109L181 107H503L484 0Z" glyph-name="Zacute" horiz-adv-x="564" unicode="&#377;" /><glyph d="M321 729 222 849H336L386 792L458 849H583L439 729ZM-15 0 2 96 407 569V571H117L137 678H606L588 581L182 109L181 107H503L484 0Z" glyph-name="Zcaron" horiz-adv-x="564" unicode="&#381;" /><glyph d="M450 742H318L337 846H469ZM-15 0 2 96 407 569V571H117L137 678H606L588 581L182 109L181 107H503L484 0Z" glyph-name="Zdotaccent" horiz-adv-x="564" unicode="&#379;" /><glyph d="M383 361Q386 378 386.5 391Q387 404 377 412.5Q367 421 343 425Q319 429 273 429Q247 429 203 425Q159 421 108 410L126 508Q151 513 179 516.5Q207 520 233.5 522Q260 524 282 525Q304 526 318 526Q380 526 421.5 516.5Q463 507 486 486Q509 465 514.5 431Q520 397 511 347L448 0H357L348 52H347Q317 23 272.5 6Q228 -11 181 -11Q96 -11 51 33Q34 50 25.5 74.5Q17 99 17 122Q17 166 28.5 199Q40 232 66 258Q85 277 113.5 289Q142 301 173 307Q204 313 235 315Q266 317 292 317Q314 317 333.5 316.5Q353 316 375 314ZM283 231Q253 231 224 226.5Q195 222 176 203Q163 190 157.5 173.5Q152 157 152 142Q152 129 156.5 120Q161 111 166 106Q176 96 189.5 93.5Q203 91 217 91Q264 91 294.5 110Q325 129 344 151L359 228Q336 230 316 230.5Q296 231 283 231Z" glyph-name="a" horiz-adv-x="562" unicode="a" /><glyph d="M434 386Q418 403 389 410Q360 417 335 417Q275 417 240 382Q226 368 214.5 344.5Q203 321 195 294Q187 267 182.5 239Q178 211 178 186Q178 160 184 143Q190 126 201 115Q223 93 263 93Q281 93 300 99.5Q319 106 336.5 116.5Q354 127 368.5 139Q383 151 393 162ZM498 0H406L398 56H397Q359 23 316 5.5Q273 -12 230 -12Q180 -12 143 3.5Q106 19 82 43Q61 64 48.5 100Q36 136 36 179Q36 211 41.5 247.5Q47 284 59 320Q71 356 89 388.5Q107 421 131 446Q172 488 225 505Q278 522 334 522Q351 522 371 519Q391 516 410.5 510Q430 504 448 495Q466 486 481 473H483L506 510H590Z" glyph-name="a.hist" horiz-adv-x="619" unicode="&#59153;" /><glyph d="M212 218H344L328 322Q326 332 324.5 346Q323 360 321.5 375Q320 390 318.5 404.5Q317 419 316 430H314Q310 419 304 405Q298 391 291.5 376Q285 361 278 346.5Q271 332 266 322ZM359 122H159L93 0H-48L260 541H403L511 0H381Z" glyph-name="a.small" horiz-adv-x="557" unicode="&#63329;" /><glyph d="M111 601Q127 605 145.5 607Q164 609 181 610.5Q198 612 212 612.5Q226 613 234 613Q315 613 343.5 588.5Q372 564 360 500L319 279H247L244 307H243Q237 300 226 294Q215 288 202 283Q189 278 175 275Q161 272 148 272Q122 272 100.5 278.5Q79 285 65 299Q52 313 46.5 329.5Q41 346 41 362Q41 387 50.5 409Q60 431 74 445Q87 459 105 467Q123 475 142.5 478.5Q162 482 181.5 483Q201 484 218 484H260L264 507Q266 516 266 523Q266 530 260.5 534.5Q255 539 242 541.5Q229 544 205 544Q188 544 160.5 541Q133 538 98 530ZM211 425Q189 425 178 422.5Q167 420 158 412Q149 404 145 393Q141 382 141 371Q141 358 148 351Q157 342 178 342Q199 342 214 351.5Q229 361 239 372L249 425Z" glyph-name="a.superior" horiz-adv-x="362" unicode="&#58209;" /><glyph d="M370 565H257L390 678H551ZM383 361Q386 378 386.5 391Q387 404 377 412.5Q367 421 343 425Q319 429 273 429Q247 429 203 425Q159 421 108 410L126 508Q151 513 179 516.5Q207 520 233.5 522Q260 524 282 525Q304 526 318 526Q380 526 421.5 516.5Q463 507 486 486Q509 465 514.5 431Q520 397 511 347L448 0H357L348 52H347Q317 23 272.5 6Q228 -11 181 -11Q96 -11 51 33Q34 50 25.5 74.5Q17 99 17 122Q17 166 28.5 199Q40 232 66 258Q85 277 113.5 289Q142 301 173 307Q204 313 235 315Q266 317 292 317Q314 317 333.5 316.5Q353 316 375 314ZM283 231Q253 231 224 226.5Q195 222 176 203Q163 190 157.5 173.5Q152 157 152 142Q152 129 156.5 120Q161 111 166 106Q176 96 189.5 93.5Q203 91 217 91Q264 91 294.5 110Q325 129 344 151L359 228Q336 230 316 230.5Q296 231 283 231Z" glyph-name="aacute" horiz-adv-x="562" unicode="&#225;" /><glyph d="M395 565H282L415 678H576ZM434 386Q418 403 389 410Q360 417 335 417Q275 417 240 382Q226 368 214.5 344.5Q203 321 195 294Q187 267 182.5 239Q178 211 178 186Q178 160 184 143Q190 126 201 115Q223 93 263 93Q281 93 300 99.5Q319 106 336.5 116.5Q354 127 368.5 139Q383 151 393 162ZM498 0H406L398 56H397Q359 23 316 5.5Q273 -12 230 -12Q180 -12 143 3.5Q106 19 82 43Q61 64 48.5 100Q36 136 36 179Q36 211 41.5 247.5Q47 284 59 320Q71 356 89 388.5Q107 421 131 446Q172 488 225 505Q278 522 334 522Q351 522 371 519Q391 516 410.5 510Q430 504 448 495Q466 486 481 473H483L506 510H590Z" glyph-name="aacute.hist" horiz-adv-x="619" unicode="&#59154;" /><glyph d="M212 218H344L328 322Q326 332 324.5 346Q323 360 321.5 375Q320 390 318.5 404.5Q317 419 316 430H314Q310 419 304 405Q298 391 291.5 376Q285 361 278 346.5Q271 332 266 322ZM398 597H285L418 710H579ZM359 122H159L93 0H-48L260 541H403L511 0H381Z" glyph-name="aacute.small" horiz-adv-x="557" unicode="&#63457;" /><glyph d="M342 627Q366 627 385 632Q404 637 418 651Q428 661 436 678H542Q534 656 526 640Q518 624 502 608Q471 577 428 564Q385 551 334 551Q289 551 254.5 561Q220 571 198 593Q183 608 173 629Q163 650 164 678H266Q267 658 280 645Q298 627 342 627ZM383 361Q386 378 386.5 391Q387 404 377 412.5Q367 421 343 425Q319 429 273 429Q247 429 203 425Q159 421 108 410L126 508Q151 513 179 516.5Q207 520 233.5 522Q260 524 282 525Q304 526 318 526Q380 526 421.5 516.5Q463 507 486 486Q509 465 514.5 431Q520 397 511 347L448 0H357L348 52H347Q317 23 272.5 6Q228 -11 181 -11Q96 -11 51 33Q34 50 25.5 74.5Q17 99 17 122Q17 166 28.5 199Q40 232 66 258Q85 277 113.5 289Q142 301 173 307Q204 313 235 315Q266 317 292 317Q314 317 333.5 316.5Q353 316 375 314ZM283 231Q253 231 224 226.5Q195 222 176 203Q163 190 157.5 173.5Q152 157 152 142Q152 129 156.5 120Q161 111 166 106Q176 96 189.5 93.5Q203 91 217 91Q264 91 294.5 110Q325 129 344 151L359 228Q336 230 316 230.5Q296 231 283 231Z" glyph-name="abreve" horiz-adv-x="562" unicode="&#259;" /><glyph d="M381 627Q405 627 424 632Q443 637 457 651Q467 661 475 678H581Q573 656 565 640Q557 624 541 608Q510 577 467 564Q424 551 373 551Q328 551 293.5 561Q259 571 237 593Q222 608 212 629Q202 650 203 678H305Q306 658 319 645Q337 627 381 627ZM434 386Q418 403 389 410Q360 417 335 417Q275 417 240 382Q226 368 214.5 344.5Q203 321 195 294Q187 267 182.5 239Q178 211 178 186Q178 160 184 143Q190 126 201 115Q223 93 263 93Q281 93 300 99.5Q319 106 336.5 116.5Q354 127 368.5 139Q383 151 393 162ZM498 0H406L398 56H397Q359 23 316 5.5Q273 -12 230 -12Q180 -12 143 3.5Q106 19 82 43Q61 64 48.5 100Q36 136 36 179Q36 211 41.5 247.5Q47 284 59 320Q71 356 89 388.5Q107 421 131 446Q172 488 225 505Q278 522 334 522Q351 522 371 519Q391 516 410.5 510Q430 504 448 495Q466 486 481 473H483L506 510H590Z" glyph-name="abreve.hist" horiz-adv-x="619" unicode="&#59155;" /><glyph d="M212 218H344L328 322Q326 332 324.5 346Q323 360 321.5 375Q320 390 318.5 404.5Q317 419 316 430H314Q310 419 304 405Q298 391 291.5 376Q285 361 278 346.5Q271 332 266 322ZM351 659Q375 659 394 664Q413 669 427 683Q437 693 445 710H551Q543 688 535 672Q527 656 511 640Q480 609 437 596Q394 583 343 583Q298 583 263.5 593Q229 603 207 625Q192 640 182 661Q172 682 173 710H275Q276 690 289 677Q307 659 351 659ZM359 122H159L93 0H-48L260 541H403L511 0H381Z" glyph-name="abreve.small" horiz-adv-x="557" unicode="&#63040;" /><glyph d="M273 561 174 681H288L338 624L410 681H535L391 561ZM383 361Q386 378 386.5 391Q387 404 377 412.5Q367 421 343 425Q319 429 273 429Q247 429 203 425Q159 421 108 410L126 508Q151 513 179 516.5Q207 520 233.5 522Q260 524 282 525Q304 526 318 526Q380 526 421.5 516.5Q463 507 486 486Q509 465 514.5 431Q520 397 511 347L448 0H357L348 52H347Q317 23 272.5 6Q228 -11 181 -11Q96 -11 51 33Q34 50 25.5 74.5Q17 99 17 122Q17 166 28.5 199Q40 232 66 258Q85 277 113.5 289Q142 301 173 307Q204 313 235 315Q266 317 292 317Q314 317 333.5 316.5Q353 316 375 314ZM283 231Q253 231 224 226.5Q195 222 176 203Q163 190 157.5 173.5Q152 157 152 142Q152 129 156.5 120Q161 111 166 106Q176 96 189.5 93.5Q203 91 217 91Q264 91 294.5 110Q325 129 344 151L359 228Q336 230 316 230.5Q296 231 283 231Z" glyph-name="acaron" horiz-adv-x="562" unicode="&#462;" /><glyph d="M300 561 201 681H315L365 624L437 681H562L418 561ZM434 386Q418 403 389 410Q360 417 335 417Q275 417 240 382Q226 368 214.5 344.5Q203 321 195 294Q187 267 182.5 239Q178 211 178 186Q178 160 184 143Q190 126 201 115Q223 93 263 93Q281 93 300 99.5Q319 106 336.5 116.5Q354 127 368.5 139Q383 151 393 162ZM498 0H406L398 56H397Q359 23 316 5.5Q273 -12 230 -12Q180 -12 143 3.5Q106 19 82 43Q61 64 48.5 100Q36 136 36 179Q36 211 41.5 247.5Q47 284 59 320Q71 356 89 388.5Q107 421 131 446Q172 488 225 505Q278 522 334 522Q351 522 371 519Q391 516 410.5 510Q430 504 448 495Q466 486 481 473H483L506 510H590Z" glyph-name="acaron.hist" horiz-adv-x="619" unicode="&#59156;" /><glyph d="M212 218H344L328 322Q326 332 324.5 346Q323 360 321.5 375Q320 390 318.5 404.5Q317 419 316 430H314Q310 419 304 405Q298 391 291.5 376Q285 361 278 346.5Q271 332 266 322ZM281 593 182 713H296L346 656L418 713H543L399 593ZM359 122H159L93 0H-48L260 541H403L511 0H381Z" glyph-name="acaron.small" horiz-adv-x="557" unicode="&#59157;" /><glyph d="M416 681 515 561H401L351 618L279 561H154L298 681ZM383 361Q386 378 386.5 391Q387 404 377 412.5Q367 421 343 425Q319 429 273 429Q247 429 203 425Q159 421 108 410L126 508Q151 513 179 516.5Q207 520 233.5 522Q260 524 282 525Q304 526 318 526Q380 526 421.5 516.5Q463 507 486 486Q509 465 514.5 431Q520 397 511 347L448 0H357L348 52H347Q317 23 272.5 6Q228 -11 181 -11Q96 -11 51 33Q34 50 25.5 74.5Q17 99 17 122Q17 166 28.5 199Q40 232 66 258Q85 277 113.5 289Q142 301 173 307Q204 313 235 315Q266 317 292 317Q314 317 333.5 316.5Q353 316 375 314ZM283 231Q253 231 224 226.5Q195 222 176 203Q163 190 157.5 173.5Q152 157 152 142Q152 129 156.5 120Q161 111 166 106Q176 96 189.5 93.5Q203 91 217 91Q264 91 294.5 110Q325 129 344 151L359 228Q336 230 316 230.5Q296 231 283 231Z" glyph-name="acircumflex" horiz-adv-x="562" unicode="&#226;" /><glyph d="M441 681 540 561H426L376 618L304 561H179L323 681ZM434 386Q418 403 389 410Q360 417 335 417Q275 417 240 382Q226 368 214.5 344.5Q203 321 195 294Q187 267 182.5 239Q178 211 178 186Q178 160 184 143Q190 126 201 115Q223 93 263 93Q281 93 300 99.5Q319 106 336.5 116.5Q354 127 368.5 139Q383 151 393 162ZM498 0H406L398 56H397Q359 23 316 5.5Q273 -12 230 -12Q180 -12 143 3.5Q106 19 82 43Q61 64 48.5 100Q36 136 36 179Q36 211 41.5 247.5Q47 284 59 320Q71 356 89 388.5Q107 421 131 446Q172 488 225 505Q278 522 334 522Q351 522 371 519Q391 516 410.5 510Q430 504 448 495Q466 486 481 473H483L506 510H590Z" glyph-name="acircumflex.hist" horiz-adv-x="619" unicode="&#59158;" /><glyph d="M212 218H344L328 322Q326 332 324.5 346Q323 360 321.5 375Q320 390 318.5 404.5Q317 419 316 430H314Q310 419 304 405Q298 391 291.5 376Q285 361 278 346.5Q271 332 266 322ZM421 713 520 593H406L356 650L284 593H159L303 713ZM359 122H159L93 0H-48L260 541H403L511 0H381Z" glyph-name="acircumflex.small" horiz-adv-x="557" unicode="&#63458;" /><glyph d="M413 565H300L433 678H594Z" glyph-name="acute" horiz-adv-x="600" unicode="&#180;" /><glyph d="M413 733H300L433 846H594Z" glyph-name="acute.cap" horiz-adv-x="600" unicode="&#58402;" /><glyph d="M413 597H300L433 710H594Z" glyph-name="acute.small" horiz-adv-x="600" unicode="&#63412;" /><glyph d="M509 572H383L402 676H528ZM284 572H158L177 676H303ZM383 361Q386 378 386.5 391Q387 404 377 412.5Q367 421 343 425Q319 429 273 429Q247 429 203 425Q159 421 108 410L126 508Q151 513 179 516.5Q207 520 233.5 522Q260 524 282 525Q304 526 318 526Q380 526 421.5 516.5Q463 507 486 486Q509 465 514.5 431Q520 397 511 347L448 0H357L348 52H347Q317 23 272.5 6Q228 -11 181 -11Q96 -11 51 33Q34 50 25.5 74.5Q17 99 17 122Q17 166 28.5 199Q40 232 66 258Q85 277 113.5 289Q142 301 173 307Q204 313 235 315Q266 317 292 317Q314 317 333.5 316.5Q353 316 375 314ZM283 231Q253 231 224 226.5Q195 222 176 203Q163 190 157.5 173.5Q152 157 152 142Q152 129 156.5 120Q161 111 166 106Q176 96 189.5 93.5Q203 91 217 91Q264 91 294.5 110Q325 129 344 151L359 228Q336 230 316 230.5Q296 231 283 231Z" glyph-name="adieresis" horiz-adv-x="562" unicode="&#228;" /><glyph d="M545 572H419L438 676H564ZM320 572H194L213 676H339ZM434 386Q418 403 389 410Q360 417 335 417Q275 417 240 382Q226 368 214.5 344.5Q203 321 195 294Q187 267 182.5 239Q178 211 178 186Q178 160 184 143Q190 126 201 115Q223 93 263 93Q281 93 300 99.5Q319 106 336.5 116.5Q354 127 368.5 139Q383 151 393 162ZM498 0H406L398 56H397Q359 23 316 5.5Q273 -12 230 -12Q180 -12 143 3.5Q106 19 82 43Q61 64 48.5 100Q36 136 36 179Q36 211 41.5 247.5Q47 284 59 320Q71 356 89 388.5Q107 421 131 446Q172 488 225 505Q278 522 334 522Q351 522 371 519Q391 516 410.5 510Q430 504 448 495Q466 486 481 473H483L506 510H590Z" glyph-name="adieresis.hist" horiz-adv-x="619" unicode="&#59159;" /><glyph d="M519 604H393L412 708H538ZM294 604H168L187 708H313ZM212 218H344L328 322Q326 332 324.5 346Q323 360 321.5 375Q320 390 318.5 404.5Q317 419 316 430H314Q310 419 304 405Q298 391 291.5 376Q285 361 278 346.5Q271 332 266 322ZM359 122H159L93 0H-48L260 541H403L511 0H381Z" glyph-name="adieresis.small" horiz-adv-x="557" unicode="&#63460;" /><glyph d="M576 744H216L232 834H592ZM541 570H411L431 678H561ZM316 570H186L206 678H336ZM383 361Q386 378 386.5 391Q387 404 377 412.5Q367 421 343 425Q319 429 273 429Q247 429 203 425Q159 421 108 410L126 508Q151 513 179 516.5Q207 520 233.5 522Q260 524 282 525Q304 526 318 526Q380 526 421.5 516.5Q463 507 486 486Q509 465 514.5 431Q520 397 511 347L448 0H357L348 52H347Q317 23 272.5 6Q228 -11 181 -11Q96 -11 51 33Q34 50 25.5 74.5Q17 99 17 122Q17 166 28.5 199Q40 232 66 258Q85 277 113.5 289Q142 301 173 307Q204 313 235 315Q266 317 292 317Q314 317 333.5 316.5Q353 316 375 314ZM283 231Q253 231 224 226.5Q195 222 176 203Q163 190 157.5 173.5Q152 157 152 142Q152 129 156.5 120Q161 111 166 106Q176 96 189.5 93.5Q203 91 217 91Q264 91 294.5 110Q325 129 344 151L359 228Q336 230 316 230.5Q296 231 283 231Z" glyph-name="adieresismacron" horiz-adv-x="562" unicode="&#479;" /><glyph d="M550 570H420L440 678H570ZM325 570H195L215 678H345ZM585 744H225L241 834H601ZM434 386Q418 403 389 410Q360 417 335 417Q275 417 240 382Q226 368 214.5 344.5Q203 321 195 294Q187 267 182.5 239Q178 211 178 186Q178 160 184 143Q190 126 201 115Q223 93 263 93Q281 93 300 99.5Q319 106 336.5 116.5Q354 127 368.5 139Q383 151 393 162ZM498 0H406L398 56H397Q359 23 316 5.5Q273 -12 230 -12Q180 -12 143 3.5Q106 19 82 43Q61 64 48.5 100Q36 136 36 179Q36 211 41.5 247.5Q47 284 59 320Q71 356 89 388.5Q107 421 131 446Q172 488 225 505Q278 522 334 522Q351 522 371 519Q391 516 410.5 510Q430 504 448 495Q466 486 481 473H483L506 510H590Z" glyph-name="adieresismacron.hist" horiz-adv-x="619" unicode="&#59160;" /><glyph d="M519 604H393L412 708H538ZM294 604H168L187 708H313ZM212 218H344L328 322Q326 332 324.5 346Q323 360 321.5 375Q320 390 318.5 404.5Q317 419 316 430H314Q310 419 304 405Q298 391 291.5 376Q285 361 278 346.5Q271 332 266 322ZM559 779H199L216 869H576ZM359 122H159L93 0H-48L260 541H403L511 0H381Z" glyph-name="adieresismacron.small" horiz-adv-x="557" unicode="&#59161;" /><glyph d="M399 574H267L286 678H418ZM383 361Q386 378 386.5 391Q387 404 377 412.5Q367 421 343 425Q319 429 273 429Q247 429 203 425Q159 421 108 410L126 508Q151 513 179 516.5Q207 520 233.5 522Q260 524 282 525Q304 526 318 526Q380 526 421.5 516.5Q463 507 486 486Q509 465 514.5 431Q520 397 511 347L448 0H357L348 52H347Q317 23 272.5 6Q228 -11 181 -11Q96 -11 51 33Q34 50 25.5 74.5Q17 99 17 122Q17 166 28.5 199Q40 232 66 258Q85 277 113.5 289Q142 301 173 307Q204 313 235 315Q266 317 292 317Q314 317 333.5 316.5Q353 316 375 314ZM283 231Q253 231 224 226.5Q195 222 176 203Q163 190 157.5 173.5Q152 157 152 142Q152 129 156.5 120Q161 111 166 106Q176 96 189.5 93.5Q203 91 217 91Q264 91 294.5 110Q325 129 344 151L359 228Q336 230 316 230.5Q296 231 283 231Z" glyph-name="adotabove" horiz-adv-x="562" unicode="&#551;" /><glyph d="M436 574H304L323 678H455ZM434 386Q418 403 389 410Q360 417 335 417Q275 417 240 382Q226 368 214.5 344.5Q203 321 195 294Q187 267 182.5 239Q178 211 178 186Q178 160 184 143Q190 126 201 115Q223 93 263 93Q281 93 300 99.5Q319 106 336.5 116.5Q354 127 368.5 139Q383 151 393 162ZM498 0H406L398 56H397Q359 23 316 5.5Q273 -12 230 -12Q180 -12 143 3.5Q106 19 82 43Q61 64 48.5 100Q36 136 36 179Q36 211 41.5 247.5Q47 284 59 320Q71 356 89 388.5Q107 421 131 446Q172 488 225 505Q278 522 334 522Q351 522 371 519Q391 516 410.5 510Q430 504 448 495Q466 486 481 473H483L506 510H590Z" glyph-name="adotabove.hist" horiz-adv-x="619" unicode="&#59168;" /><glyph d="M212 218H344L328 322Q326 332 324.5 346Q323 360 321.5 375Q320 390 318.5 404.5Q317 419 316 430H314Q310 419 304 405Q298 391 291.5 376Q285 361 278 346.5Q271 332 266 322ZM409 606H277L296 710H428ZM359 122H159L93 0H-48L260 541H403L511 0H381Z" glyph-name="adotabove.small" horiz-adv-x="557" unicode="&#59169;" /><glyph d="M72 678H212L301 563H209ZM258 678H398L487 563H395ZM383 361Q386 378 386.5 391Q387 404 377 412.5Q367 421 343 425Q319 429 273 429Q247 429 203 425Q159 421 108 410L126 508Q151 513 179 516.5Q207 520 233.5 522Q260 524 282 525Q304 526 318 526Q380 526 421.5 516.5Q463 507 486 486Q509 465 514.5 431Q520 397 511 347L448 0H357L348 52H347Q317 23 272.5 6Q228 -11 181 -11Q96 -11 51 33Q34 50 25.5 74.5Q17 99 17 122Q17 166 28.5 199Q40 232 66 258Q85 277 113.5 289Q142 301 173 307Q204 313 235 315Q266 317 292 317Q314 317 333.5 316.5Q353 316 375 314ZM283 231Q253 231 224 226.5Q195 222 176 203Q163 190 157.5 173.5Q152 157 152 142Q152 129 156.5 120Q161 111 166 106Q176 96 189.5 93.5Q203 91 217 91Q264 91 294.5 110Q325 129 344 151L359 228Q336 230 316 230.5Q296 231 283 231Z" glyph-name="adoublegrave" horiz-adv-x="562" unicode="&#59170;" /><glyph d="M133 678H273L362 563H270ZM319 678H459L548 563H456ZM434 386Q418 403 389 410Q360 417 335 417Q275 417 240 382Q226 368 214.5 344.5Q203 321 195 294Q187 267 182.5 239Q178 211 178 186Q178 160 184 143Q190 126 201 115Q223 93 263 93Q281 93 300 99.5Q319 106 336.5 116.5Q354 127 368.5 139Q383 151 393 162ZM498 0H406L398 56H397Q359 23 316 5.5Q273 -12 230 -12Q180 -12 143 3.5Q106 19 82 43Q61 64 48.5 100Q36 136 36 179Q36 211 41.5 247.5Q47 284 59 320Q71 356 89 388.5Q107 421 131 446Q172 488 225 505Q278 522 334 522Q351 522 371 519Q391 516 410.5 510Q430 504 448 495Q466 486 481 473H483L506 510H590Z" glyph-name="adoublegrave.hist" horiz-adv-x="619" unicode="&#59171;" /><glyph d="M212 218H344L328 322Q326 332 324.5 346Q323 360 321.5 375Q320 390 318.5 404.5Q317 419 316 430H314Q310 419 304 405Q298 391 291.5 376Q285 361 278 346.5Q271 332 266 322ZM255 710H395L484 595H392ZM69 710H209L298 595H206ZM359 122H159L93 0H-48L260 541H403L511 0H381Z" glyph-name="adoublegrave.small" horiz-adv-x="557" unicode="&#59172;" /><glyph d="M643 429Q623 429 599 423.5Q575 418 555 398Q528 371 514 316H716Q719 327 721.5 339Q724 351 724 365Q724 375 721.5 387Q719 399 709 409Q698 420 680.5 424.5Q663 429 643 429ZM283 231Q253 231 224 226.5Q195 222 176 203Q163 190 157.5 173.5Q152 157 152 142Q152 129 156 120Q160 111 165 106Q175 96 188 93.5Q201 91 217 91Q261 91 294.5 110.5Q328 130 351 160V178Q351 190 352 202.5Q353 215 355 228Q333 230 314 230.5Q295 231 283 231ZM847 364Q847 329 840 294Q833 259 822 225H494Q492 211 490.5 199Q489 187 489 176Q489 159 493.5 142.5Q498 126 511 113Q527 97 552.5 91Q578 85 618 85Q632 85 652 86.5Q672 88 694 90.5Q716 93 738.5 96.5Q761 100 781 105L763 10Q744 4 720 -1Q696 -6 670.5 -9.5Q645 -13 620 -14.5Q595 -16 574 -16Q511 -16 468 0Q425 16 400 41Q394 46 389.5 52.5Q385 59 380 66Q357 42 331.5 27Q306 12 279.5 3.5Q253 -5 227.5 -8Q202 -11 181 -11Q96 -11 51 33Q34 50 25.5 76.5Q17 103 17 126Q17 170 29.5 202Q42 234 65 257Q84 276 112.5 288Q141 300 172.5 306.5Q204 313 235 315Q266 317 292 317Q314 317 333.5 316.5Q353 316 375 314L383 361Q386 378 386.5 391Q387 404 377 412.5Q367 421 343 425Q319 429 273 429Q247 429 203 425Q159 421 108 410L126 508Q151 513 179 516.5Q207 520 233.5 522Q260 524 282 525Q304 526 318 526Q452 526 493 475Q529 503 568 514.5Q607 526 655 526Q707 526 746 511Q785 496 808 473Q847 435 847 364Z" glyph-name="ae" horiz-adv-x="881" unicode="&#230;" /><glyph d="M244 218H381L419 418H416Q405 403 397 392.5Q389 382 381 372Q373 362 363.5 351Q354 340 341 325ZM734 0H341L363 122H156L45 0H-125L391 541H828L810 443H556L534 326H752L734 225H516L492 99H752Z" glyph-name="ae.small" horiz-adv-x="814" unicode="&#63462;" /><glyph d="M555 568H442L575 681H736ZM643 429Q623 429 599 423.5Q575 418 555 398Q528 371 514 316H716Q719 327 721.5 339Q724 351 724 365Q724 375 721.5 387Q719 399 709 409Q698 420 680.5 424.5Q663 429 643 429ZM283 231Q253 231 224 226.5Q195 222 176 203Q163 190 157.5 173.5Q152 157 152 142Q152 129 156 120Q160 111 165 106Q175 96 188 93.5Q201 91 217 91Q261 91 294.5 110.5Q328 130 351 160V178Q351 190 352 202.5Q353 215 355 228Q333 230 314 230.5Q295 231 283 231ZM847 364Q847 329 840 294Q833 259 822 225H494Q492 211 490.5 199Q489 187 489 176Q489 159 493.5 142.5Q498 126 511 113Q527 97 552.5 91Q578 85 618 85Q632 85 652 86.5Q672 88 694 90.5Q716 93 738.5 96.5Q761 100 781 105L763 10Q744 4 720 -1Q696 -6 670.5 -9.5Q645 -13 620 -14.5Q595 -16 574 -16Q511 -16 468 0Q425 16 400 41Q394 46 389.5 52.5Q385 59 380 66Q357 42 331.5 27Q306 12 279.5 3.5Q253 -5 227.5 -8Q202 -11 181 -11Q96 -11 51 33Q34 50 25.5 76.5Q17 103 17 126Q17 170 29.5 202Q42 234 65 257Q84 276 112.5 288Q141 300 172.5 306.5Q204 313 235 315Q266 317 292 317Q314 317 333.5 316.5Q353 316 375 314L383 361Q386 378 386.5 391Q387 404 377 412.5Q367 421 343 425Q319 429 273 429Q247 429 203 425Q159 421 108 410L126 508Q151 513 179 516.5Q207 520 233.5 522Q260 524 282 525Q304 526 318 526Q452 526 493 475Q529 503 568 514.5Q607 526 655 526Q707 526 746 511Q785 496 808 473Q847 435 847 364Z" glyph-name="aeacute" horiz-adv-x="881" unicode="&#509;" /><glyph d="M621 597H508L641 710H802ZM244 218H381L419 418H416Q405 403 397 392.5Q389 382 381 372Q373 362 363.5 351Q354 340 341 325ZM734 0H341L363 122H156L45 0H-125L391 541H828L810 443H556L534 326H752L734 225H516L492 99H752Z" glyph-name="aeacute.small" horiz-adv-x="814" unicode="&#63012;" /><glyph d="M696 588H336L353 678H713ZM643 429Q623 429 599 423.5Q575 418 555 398Q528 371 514 316H716Q719 327 721.5 339Q724 351 724 365Q724 375 721.5 387Q719 399 709 409Q698 420 680.5 424.5Q663 429 643 429ZM283 231Q253 231 224 226.5Q195 222 176 203Q163 190 157.5 173.5Q152 157 152 142Q152 129 156 120Q160 111 165 106Q175 96 188 93.5Q201 91 217 91Q261 91 294.5 110.5Q328 130 351 160V178Q351 190 352 202.5Q353 215 355 228Q333 230 314 230.5Q295 231 283 231ZM847 364Q847 329 840 294Q833 259 822 225H494Q492 211 490.5 199Q489 187 489 176Q489 159 493.5 142.5Q498 126 511 113Q527 97 552.5 91Q578 85 618 85Q632 85 652 86.5Q672 88 694 90.5Q716 93 738.5 96.5Q761 100 781 105L763 10Q744 4 720 -1Q696 -6 670.5 -9.5Q645 -13 620 -14.5Q595 -16 574 -16Q511 -16 468 0Q425 16 400 41Q394 46 389.5 52.5Q385 59 380 66Q357 42 331.5 27Q306 12 279.5 3.5Q253 -5 227.5 -8Q202 -11 181 -11Q96 -11 51 33Q34 50 25.5 76.5Q17 103 17 126Q17 170 29.5 202Q42 234 65 257Q84 276 112.5 288Q141 300 172.5 306.5Q204 313 235 315Q266 317 292 317Q314 317 333.5 316.5Q353 316 375 314L383 361Q386 378 386.5 391Q387 404 377 412.5Q367 421 343 425Q319 429 273 429Q247 429 203 425Q159 421 108 410L126 508Q151 513 179 516.5Q207 520 233.5 522Q260 524 282 525Q304 526 318 526Q452 526 493 475Q529 503 568 514.5Q607 526 655 526Q707 526 746 511Q785 496 808 473Q847 435 847 364Z" glyph-name="aemacron" horiz-adv-x="881" unicode="&#483;" /><glyph d="M713 620H353L370 710H730ZM244 218H381L419 418H416Q405 403 397 392.5Q389 382 381 372Q373 362 363.5 351Q354 340 341 325ZM734 0H341L363 122H156L45 0H-125L391 541H828L810 443H556L534 326H752L734 225H516L492 99H752Z" glyph-name="aemacron.small" horiz-adv-x="814" unicode="&#59173;" /><glyph d="M259 380Q272 398 286.5 422Q301 446 313 472.5Q325 499 332.5 526Q340 553 340 576Q340 583 337 589Q334 595 324 595Q316 595 310 589Q301 580 293.5 554.5Q286 529 277 480ZM48 225Q61 230 80.5 238.5Q100 247 114 257L158 496Q169 556 186.5 594.5Q204 633 227 656Q251 680 277 687Q303 694 335 694Q388 694 420 664.5Q452 635 452 581Q452 531 432 483Q412 435 381 390Q350 345 312 304.5Q274 264 238 230L225 157Q218 121 222 107Q226 93 251 93Q259 93 274.5 94Q290 95 310 100L292 2Q272 -4 246.5 -6.5Q221 -9 200 -9Q170 -9 146.5 -3.5Q123 2 109 18.5Q95 35 91 65.5Q87 96 95 145Q81 139 65.5 133Q50 127 28 120Z" glyph-name="afii61289" horiz-adv-x="436" unicode="&#8467;" /><glyph d="M164 678H318L409 565H303ZM383 361Q386 378 386.5 391Q387 404 377 412.5Q367 421 343 425Q319 429 273 429Q247 429 203 425Q159 421 108 410L126 508Q151 513 179 516.5Q207 520 233.5 522Q260 524 282 525Q304 526 318 526Q380 526 421.5 516.5Q463 507 486 486Q509 465 514.5 431Q520 397 511 347L448 0H357L348 52H347Q317 23 272.5 6Q228 -11 181 -11Q96 -11 51 33Q34 50 25.5 74.5Q17 99 17 122Q17 166 28.5 199Q40 232 66 258Q85 277 113.5 289Q142 301 173 307Q204 313 235 315Q266 317 292 317Q314 317 333.5 316.5Q353 316 375 314ZM283 231Q253 231 224 226.5Q195 222 176 203Q163 190 157.5 173.5Q152 157 152 142Q152 129 156.5 120Q161 111 166 106Q176 96 189.5 93.5Q203 91 217 91Q264 91 294.5 110Q325 129 344 151L359 228Q336 230 316 230.5Q296 231 283 231Z" glyph-name="agrave" horiz-adv-x="562" unicode="&#224;" /><glyph d="M180 678H334L425 565H319ZM434 386Q418 403 389 410Q360 417 335 417Q275 417 240 382Q226 368 214.5 344.5Q203 321 195 294Q187 267 182.5 239Q178 211 178 186Q178 160 184 143Q190 126 201 115Q223 93 263 93Q281 93 300 99.5Q319 106 336.5 116.5Q354 127 368.5 139Q383 151 393 162ZM498 0H406L398 56H397Q359 23 316 5.5Q273 -12 230 -12Q180 -12 143 3.5Q106 19 82 43Q61 64 48.5 100Q36 136 36 179Q36 211 41.5 247.5Q47 284 59 320Q71 356 89 388.5Q107 421 131 446Q172 488 225 505Q278 522 334 522Q351 522 371 519Q391 516 410.5 510Q430 504 448 495Q466 486 481 473H483L506 510H590Z" glyph-name="agrave.hist" horiz-adv-x="619" unicode="&#59174;" /><glyph d="M212 218H344L328 322Q326 332 324.5 346Q323 360 321.5 375Q320 390 318.5 404.5Q317 419 316 430H314Q310 419 304 405Q298 391 291.5 376Q285 361 278 346.5Q271 332 266 322ZM149 710H303L394 597H288ZM359 122H159L93 0H-48L260 541H403L511 0H381Z" glyph-name="agrave.small" horiz-adv-x="557" unicode="&#63456;" /><glyph d="M342 614Q318 614 299 609Q280 604 266 590Q255 579 248 563H142Q150 585 158 601Q166 617 182 633Q213 664 256 677Q299 690 350 690Q395 690 429.5 680Q464 670 486 648Q501 633 511 612Q521 591 520 563H418Q417 583 404 596Q386 614 342 614ZM383 361Q386 378 386.5 391Q387 404 377 412.5Q367 421 343 425Q319 429 273 429Q247 429 203 425Q159 421 108 410L126 508Q151 513 179 516.5Q207 520 233.5 522Q260 524 282 525Q304 526 318 526Q380 526 421.5 516.5Q463 507 486 486Q509 465 514.5 431Q520 397 511 347L448 0H357L348 52H347Q317 23 272.5 6Q228 -11 181 -11Q96 -11 51 33Q34 50 25.5 74.5Q17 99 17 122Q17 166 28.5 199Q40 232 66 258Q85 277 113.5 289Q142 301 173 307Q204 313 235 315Q266 317 292 317Q314 317 333.5 316.5Q353 316 375 314ZM283 231Q253 231 224 226.5Q195 222 176 203Q163 190 157.5 173.5Q152 157 152 142Q152 129 156.5 120Q161 111 166 106Q176 96 189.5 93.5Q203 91 217 91Q264 91 294.5 110Q325 129 344 151L359 228Q336 230 316 230.5Q296 231 283 231Z" glyph-name="ainvertedbreve" horiz-adv-x="562" unicode="&#515;" /><glyph d="M375 614Q351 614 332 609Q313 604 299 590Q288 579 281 563H175Q183 585 191 601Q199 617 215 633Q246 664 289 677Q332 690 383 690Q428 690 462.5 680Q497 670 519 648Q534 633 544 612Q554 591 553 563H451Q450 583 437 596Q419 614 375 614ZM434 386Q418 403 389 410Q360 417 335 417Q275 417 240 382Q226 368 214.5 344.5Q203 321 195 294Q187 267 182.5 239Q178 211 178 186Q178 160 184 143Q190 126 201 115Q223 93 263 93Q281 93 300 99.5Q319 106 336.5 116.5Q354 127 368.5 139Q383 151 393 162ZM498 0H406L398 56H397Q359 23 316 5.5Q273 -12 230 -12Q180 -12 143 3.5Q106 19 82 43Q61 64 48.5 100Q36 136 36 179Q36 211 41.5 247.5Q47 284 59 320Q71 356 89 388.5Q107 421 131 446Q172 488 225 505Q278 522 334 522Q351 522 371 519Q391 516 410.5 510Q430 504 448 495Q466 486 481 473H483L506 510H590Z" glyph-name="ainvertedbreve.hist" horiz-adv-x="619" unicode="&#59175;" /><glyph d="M212 218H344L328 322Q326 332 324.5 346Q323 360 321.5 375Q320 390 318.5 404.5Q317 419 316 430H314Q310 419 304 405Q298 391 291.5 376Q285 361 278 346.5Q271 332 266 322ZM352 646Q328 646 309 641Q290 636 276 622Q265 611 258 595H152Q160 617 168 633Q176 649 192 665Q223 696 266 709Q309 722 360 722Q405 722 439.5 712Q474 702 496 680Q511 665 521 644Q531 623 530 595H428Q427 615 414 628Q396 646 352 646ZM359 122H159L93 0H-48L260 541H403L511 0H381Z" glyph-name="ainvertedbreve.small" horiz-adv-x="557" unicode="&#59176;" /><glyph d="M232 -38Q277 -40 301 -49Q325 -58 337 -70Q345 -78 347.5 -87Q350 -96 350 -104Q350 -116 344.5 -128.5Q339 -141 329 -150Q293 -184 199 -184Q178 -184 156.5 -181.5Q135 -179 107 -170L120 -102Q146 -111 164 -114Q182 -117 194 -117Q199 -117 207 -116.5Q215 -116 223 -114Q231 -112 236.5 -107Q242 -102 242 -94Q242 -88 238 -84.5Q234 -81 228 -79Q222 -77 216 -75.5Q210 -74 206 -74Z" glyph-name="altcedilla" horiz-adv-x="600" unicode="&#58390;" /><glyph d="M517 588H157L174 678H534ZM383 361Q386 378 386.5 391Q387 404 377 412.5Q367 421 343 425Q319 429 273 429Q247 429 203 425Q159 421 108 410L126 508Q151 513 179 516.5Q207 520 233.5 522Q260 524 282 525Q304 526 318 526Q380 526 421.5 516.5Q463 507 486 486Q509 465 514.5 431Q520 397 511 347L448 0H357L348 52H347Q317 23 272.5 6Q228 -11 181 -11Q96 -11 51 33Q34 50 25.5 74.5Q17 99 17 122Q17 166 28.5 199Q40 232 66 258Q85 277 113.5 289Q142 301 173 307Q204 313 235 315Q266 317 292 317Q314 317 333.5 316.5Q353 316 375 314ZM283 231Q253 231 224 226.5Q195 222 176 203Q163 190 157.5 173.5Q152 157 152 142Q152 129 156.5 120Q161 111 166 106Q176 96 189.5 93.5Q203 91 217 91Q264 91 294.5 110Q325 129 344 151L359 228Q336 230 316 230.5Q296 231 283 231Z" glyph-name="amacron" horiz-adv-x="562" unicode="&#257;" /><glyph d="M546 588H186L203 678H563ZM434 386Q418 403 389 410Q360 417 335 417Q275 417 240 382Q226 368 214.5 344.5Q203 321 195 294Q187 267 182.5 239Q178 211 178 186Q178 160 184 143Q190 126 201 115Q223 93 263 93Q281 93 300 99.5Q319 106 336.5 116.5Q354 127 368.5 139Q383 151 393 162ZM498 0H406L398 56H397Q359 23 316 5.5Q273 -12 230 -12Q180 -12 143 3.5Q106 19 82 43Q61 64 48.5 100Q36 136 36 179Q36 211 41.5 247.5Q47 284 59 320Q71 356 89 388.5Q107 421 131 446Q172 488 225 505Q278 522 334 522Q351 522 371 519Q391 516 410.5 510Q430 504 448 495Q466 486 481 473H483L506 510H590Z" glyph-name="amacron.hist" horiz-adv-x="619" unicode="&#59177;" /><glyph d="M212 218H344L328 322Q326 332 324.5 346Q323 360 321.5 375Q320 390 318.5 404.5Q317 419 316 430H314Q310 419 304 405Q298 391 291.5 376Q285 361 278 346.5Q271 332 266 322ZM525 620H165L182 710H542ZM359 122H159L93 0H-48L260 541H403L511 0H381Z" glyph-name="amacron.small" horiz-adv-x="557" unicode="&#63041;" /><glyph d="M453 294H357Q322 294 288 285.5Q254 277 227 250Q210 233 200.5 213.5Q191 194 191 168Q191 154 195 139.5Q199 125 209 115Q233 91 288 91Q307 91 326.5 95.5Q346 100 365 108.5Q384 117 400 129.5Q416 142 428 158ZM434 44Q406 16 354 0Q302 -16 245 -16Q203 -16 162 -3Q121 10 91 40Q74 57 59 88Q44 119 44 154Q44 192 58 229Q72 266 105 299Q123 317 146 332.5Q169 348 192 357L193 359Q174 370 161 383Q142 402 131.5 429.5Q121 457 121 488Q121 530 137 567.5Q153 605 178 630Q217 669 273.5 681.5Q330 694 394 694Q408 694 428 692.5Q448 691 468 689Q488 687 507 684Q526 681 538 677L519 574Q490 582 460.5 585.5Q431 589 409 589Q363 589 335 580.5Q307 572 292 557Q265 530 265 482Q265 469 269 452Q273 435 286 422Q311 397 376 397H486L535 484H619L603 397H722L703 294H584L559 160Q551 120 565.5 107Q580 94 622 94Q635 94 649.5 95Q664 96 684 100L666 2Q639 -6 614 -8Q589 -10 565 -10Q507 -10 477 5.5Q447 21 436 44Z" glyph-name="ampersand" horiz-adv-x="744" unicode="&amp;" /><glyph d="M303 394Q292 371 283 351.5Q274 332 263.5 311Q253 290 240.5 266Q228 242 212 211L99 0H-42L243 510H406L502 0H367L332 211Q327 242 323 267Q319 292 316 313.5Q313 335 310.5 354.5Q308 374 305 394Z" glyph-name="anocross" horiz-adv-x="554" unicode="&#59184;" /><glyph d="M260 541H403L511 0H379L339 241Q336 258 332.5 280.5Q329 303 325.5 327Q322 351 319 374.5Q316 398 314 417H312Q303 397 292 374Q281 351 270 327Q259 303 247.5 280.5Q236 258 227 241L97 0H-48Z" glyph-name="anocross.small" horiz-adv-x="557" unicode="&#59186;" /><glyph d="M283 231Q253 231 224 226.5Q195 222 176 203Q163 190 157.5 173.5Q152 157 152 142Q152 129 156.5 120Q161 111 166 106Q176 96 189.5 93.5Q203 91 217 91Q264 91 294.5 110Q325 129 344 151L359 228Q336 230 316 230.5Q296 231 283 231ZM383 361Q386 378 386.5 391Q387 404 377 412.5Q367 421 343 425Q319 429 273 429Q247 429 203 425Q159 421 108 410L126 508Q151 513 179 516.5Q207 520 233.5 522Q260 524 282 525Q304 526 318 526Q380 526 421.5 516.5Q463 507 486 486Q509 465 514.5 431Q520 397 511 347L448 0Q430 -8 417.5 -17.5Q405 -27 396 -36Q386 -46 377.5 -59.5Q369 -73 369 -87Q369 -99 375 -105Q383 -113 405 -113Q422 -113 437.5 -111Q453 -109 475 -102L462 -170Q439 -178 412 -181Q385 -184 368 -184Q311 -184 288 -162Q280 -154 275 -141Q270 -128 270 -116Q270 -90 282 -70Q294 -50 314 -30Q322 -21 333.5 -12.5Q345 -4 356 2L348 52H347Q317 23 272.5 6Q228 -11 181 -11Q96 -11 51 33Q34 50 25.5 74.5Q17 99 17 122Q17 166 28.5 199Q40 232 66 258Q85 277 113.5 289Q142 301 173 307Q204 313 235 315Q266 317 292 317Q314 317 333.5 316.5Q353 316 375 314Z" glyph-name="aogonek" horiz-adv-x="562" unicode="&#261;" /><glyph d="M434 386Q418 403 389 410Q360 417 335 417Q275 417 240 382Q226 368 214.5 344.5Q203 321 195 294Q187 267 182.5 239Q178 211 178 186Q178 160 184 143Q190 126 201 115Q223 93 263 93Q281 93 300 99.5Q319 106 336.5 116.5Q354 127 368.5 139Q383 151 393 162ZM498 0H497Q479 -8 466.5 -17.5Q454 -27 445 -36Q435 -46 426.5 -59.5Q418 -73 418 -87Q418 -99 424 -105Q432 -113 454 -113Q471 -113 486.5 -111Q502 -109 524 -102L511 -170Q488 -178 461 -181Q434 -184 417 -184Q360 -184 337 -162Q329 -154 324 -141Q319 -128 319 -116Q319 -90 331 -70Q343 -50 363 -30Q371 -21 382.5 -12.5Q394 -4 405 2L398 56H397Q359 23 316 5.5Q273 -12 230 -12Q180 -12 143 3.5Q106 19 82 43Q61 64 48.5 100Q36 136 36 179Q36 211 41.5 247.5Q47 284 59 320Q71 356 89 388.5Q107 421 131 446Q172 488 225 505Q278 522 334 522Q351 522 371 519Q391 516 410.5 510Q430 504 448 495Q466 486 481 473H483L506 510H590Z" glyph-name="aogonek.hist" horiz-adv-x="619" unicode="&#59187;" /><glyph d="M212 218H344L328 322Q326 332 324.5 346Q323 360 321.5 375Q320 390 318.5 404.5Q317 419 316 430H314Q310 419 304 405Q298 391 291.5 376Q285 361 278 346.5Q271 332 266 322ZM459 -36Q449 -46 440.5 -59.5Q432 -73 432 -87Q432 -99 438 -105Q446 -113 468 -113Q485 -113 500.5 -111Q516 -109 538 -102L525 -170Q502 -178 475 -181Q448 -184 431 -184Q374 -184 351 -162Q343 -154 338 -141Q333 -128 333 -116Q333 -90 345 -70Q357 -50 377 -30Q393 -14 416 0H511Q493 -8 480.5 -17.5Q468 -27 459 -36ZM359 122H159L93 0H-48L260 541H403L511 0H381Z" glyph-name="aogonek.small" horiz-adv-x="557" unicode="&#63042;" /><glyph d="M432 192Q473 192 519 204Q565 216 610 236L590 127Q556 112 512 98.5Q468 85 413 85Q384 85 355.5 92.5Q327 100 299 109Q271 118 244 125.5Q217 133 190 133Q152 133 106.5 121Q61 109 16 89L36 198Q69 213 113 226.5Q157 240 211 240Q240 240 268 232.5Q296 225 323 216Q350 207 377.5 199.5Q405 192 432 192ZM472 409Q513 409 559 421Q605 433 650 453L630 344Q597 329 552.5 315.5Q508 302 453 302Q424 302 395.5 309.5Q367 317 339 326Q311 335 284 342.5Q257 350 230 350Q192 350 146.5 338Q101 326 56 306L76 415Q109 430 153 443.5Q197 457 251 457Q280 457 308 449.5Q336 442 363 433Q390 424 417.5 416.5Q445 409 472 409Z" glyph-name="approxequal" horiz-adv-x="661" unicode="&#8776;" /><glyph d="M332 553Q280 553 257 576Q249 583 245 594.5Q241 606 241 619Q241 636 246 653.5Q251 671 265 685Q282 702 306 707.5Q330 713 359 713Q411 713 434 690Q442 683 446 671.5Q450 660 450 647Q450 630 445 612.5Q440 595 426 581Q409 564 385 558.5Q361 553 332 553ZM341 603Q362 603 372 613Q378 619 380.5 627Q383 635 383 643Q383 654 377 660Q371 666 353 666Q332 666 322 656Q316 650 313.5 642Q311 634 311 626Q311 615 317 609Q323 603 341 603ZM383 361Q386 378 386.5 391Q387 404 377 412.5Q367 421 343 425Q319 429 273 429Q247 429 203 425Q159 421 108 410L126 508Q151 513 179 516.5Q207 520 233.5 522Q260 524 282 525Q304 526 318 526Q380 526 421.5 516.5Q463 507 486 486Q509 465 514.5 431Q520 397 511 347L448 0H357L348 52H347Q317 23 272.5 6Q228 -11 181 -11Q96 -11 51 33Q34 50 25.5 74.5Q17 99 17 122Q17 166 28.5 199Q40 232 66 258Q85 277 113.5 289Q142 301 173 307Q204 313 235 315Q266 317 292 317Q314 317 333.5 316.5Q353 316 375 314ZM283 231Q253 231 224 226.5Q195 222 176 203Q163 190 157.5 173.5Q152 157 152 142Q152 129 156.5 120Q161 111 166 106Q176 96 189.5 93.5Q203 91 217 91Q264 91 294.5 110Q325 129 344 151L359 228Q336 230 316 230.5Q296 231 283 231Z" glyph-name="aring" horiz-adv-x="562" unicode="&#229;" /><glyph d="M363 603Q384 603 394 613Q400 619 402.5 627Q405 635 405 643Q405 654 399 660Q393 666 375 666Q354 666 344 656Q338 650 335.5 642Q333 634 333 626Q333 615 339 609Q345 603 363 603ZM354 553Q302 553 279 576Q271 583 267 594.5Q263 606 263 619Q263 636 268 653.5Q273 671 287 685Q304 702 328 707.5Q352 713 381 713Q433 713 456 690Q464 683 468 671.5Q472 660 472 647Q472 630 467 612.5Q462 595 448 581Q431 564 407 558.5Q383 553 354 553ZM434 386Q418 403 389 410Q360 417 335 417Q275 417 240 382Q226 368 214.5 344.5Q203 321 195 294Q187 267 182.5 239Q178 211 178 186Q178 160 184 143Q190 126 201 115Q223 93 263 93Q281 93 300 99.5Q319 106 336.5 116.5Q354 127 368.5 139Q383 151 393 162ZM498 0H406L398 56H397Q359 23 316 5.5Q273 -12 230 -12Q180 -12 143 3.5Q106 19 82 43Q61 64 48.5 100Q36 136 36 179Q36 211 41.5 247.5Q47 284 59 320Q71 356 89 388.5Q107 421 131 446Q172 488 225 505Q278 522 334 522Q351 522 371 519Q391 516 410.5 510Q430 504 448 495Q466 486 481 473H483L506 510H590Z" glyph-name="aring.hist" horiz-adv-x="619" unicode="&#59188;" /><glyph d="M343 635Q364 635 374 645Q380 651 382.5 659Q385 667 385 675Q385 686 379 692Q373 698 355 698Q334 698 324 688Q318 682 315.5 674Q313 666 313 658Q313 647 319 641Q325 635 343 635ZM212 218H344L328 322Q326 332 324.5 346Q323 360 321.5 375Q320 390 318.5 404.5Q317 419 316 430H314Q310 419 304 405Q298 391 291.5 376Q285 361 278 346.5Q271 332 266 322ZM334 585Q282 585 259 608Q251 615 247 626.5Q243 638 243 651Q243 668 248 685.5Q253 703 267 717Q284 734 308 739.5Q332 745 361 745Q413 745 436 722Q444 715 448 703.5Q452 692 452 679Q452 662 447 644.5Q442 627 428 613Q411 596 387 590.5Q363 585 334 585ZM359 122H159L93 0H-48L260 541H403L511 0H381Z" glyph-name="aring.small" horiz-adv-x="557" unicode="&#63461;" /><glyph d="M388 603Q409 603 419 613Q425 619 427.5 627Q430 635 430 643Q430 654 424 660Q418 666 400 666Q379 666 369 656Q363 650 360.5 642Q358 634 358 626Q358 615 364 609Q370 603 388 603ZM497 647Q497 630 492 612.5Q487 595 473 581Q456 564 432 558.5Q408 553 379 553Q327 553 304 576Q296 583 292 594.5Q288 606 288 619Q288 636 295.5 658Q303 680 326 698L437 787H525L432 709Q458 709 477.5 692.5Q497 676 497 647ZM383 361Q386 378 386.5 391Q387 404 377 412.5Q367 421 343 425Q319 429 273 429Q247 429 203 425Q159 421 108 410L126 508Q151 513 179 516.5Q207 520 233.5 522Q260 524 282 525Q304 526 318 526Q380 526 421.5 516.5Q463 507 486 486Q509 465 514.5 431Q520 397 511 347L448 0H357L348 52H347Q317 23 272.5 6Q228 -11 181 -11Q96 -11 51 33Q34 50 25.5 74.5Q17 99 17 122Q17 166 28.5 199Q40 232 66 258Q85 277 113.5 289Q142 301 173 307Q204 313 235 315Q266 317 292 317Q314 317 333.5 316.5Q353 316 375 314ZM283 231Q253 231 224 226.5Q195 222 176 203Q163 190 157.5 173.5Q152 157 152 142Q152 129 156.5 120Q161 111 166 106Q176 96 189.5 93.5Q203 91 217 91Q264 91 294.5 110Q325 129 344 151L359 228Q336 230 316 230.5Q296 231 283 231Z" glyph-name="aringacute" horiz-adv-x="562" unicode="&#507;" /><glyph d="M399 603Q420 603 430 613Q436 619 438.5 627Q441 635 441 643Q441 654 435 660Q429 666 411 666Q390 666 380 656Q374 650 371.5 642Q369 634 369 626Q369 615 375 609Q381 603 399 603ZM508 647Q508 630 503 612.5Q498 595 484 581Q467 564 443 558.5Q419 553 390 553Q338 553 315 576Q307 583 303 594.5Q299 606 299 619Q299 636 306.5 658Q314 680 337 698L448 787H536L443 709Q469 709 488.5 692.5Q508 676 508 647ZM434 386Q418 403 389 410Q360 417 335 417Q275 417 240 382Q226 368 214.5 344.5Q203 321 195 294Q187 267 182.5 239Q178 211 178 186Q178 160 184 143Q190 126 201 115Q223 93 263 93Q281 93 300 99.5Q319 106 336.5 116.5Q354 127 368.5 139Q383 151 393 162ZM498 0H406L398 56H397Q359 23 316 5.5Q273 -12 230 -12Q180 -12 143 3.5Q106 19 82 43Q61 64 48.5 100Q36 136 36 179Q36 211 41.5 247.5Q47 284 59 320Q71 356 89 388.5Q107 421 131 446Q172 488 225 505Q278 522 334 522Q351 522 371 519Q391 516 410.5 510Q430 504 448 495Q466 486 481 473H483L506 510H590Z" glyph-name="aringacute.hist" horiz-adv-x="619" unicode="&#59189;" /><glyph d="M359 635Q380 635 390 645Q396 651 398.5 659Q401 667 401 675Q401 686 395 692Q389 698 371 698Q350 698 340 688Q334 682 331.5 674Q329 666 329 658Q329 647 335 641Q341 635 359 635ZM212 218H344L328 322Q326 332 324.5 346Q323 360 321.5 375Q320 390 318.5 404.5Q317 419 316 430H314Q310 419 304 405Q298 391 291.5 376Q285 361 278 346.5Q271 332 266 322ZM468 679Q468 662 463 644.5Q458 627 444 613Q427 596 403 590.5Q379 585 350 585Q298 585 275 608Q267 615 263 626.5Q259 638 259 651Q259 668 266.5 690Q274 712 297 730L408 819H496L403 741Q429 741 448.5 724.5Q468 708 468 679ZM359 122H159L93 0H-48L260 541H403L511 0H381Z" glyph-name="aringacute.small" horiz-adv-x="557" unicode="&#63013;" /><glyph d="M178 440 457 177V678H564V176L843 440V304L539 0H482L178 304Z" glyph-name="arrowdown" horiz-adv-x="990" unicode="&#8595;" /><glyph d="M618 678 355 399H856V292H354L618 13H482L178 317V374L482 678Z" glyph-name="arrowleft" horiz-adv-x="990" unicode="&#8592;" /><glyph d="M540 678 844 374V317L540 13H404L668 292H166V399H667L404 678Z" glyph-name="arrowright" horiz-adv-x="990" unicode="&#8594;" /><glyph d="M178 374 482 678H539L843 374V238L564 502V0H457V501L178 238Z" glyph-name="arrowup" horiz-adv-x="990" unicode="&#8593;" /><glyph d="M331 585 173 376H63L298 678H381L503 376H405Z" glyph-name="asciicircum" horiz-adv-x="522" unicode="^" /><glyph d="M466 373Q507 373 553 385Q599 397 644 417L624 312Q591 297 547 283.5Q503 270 448 270Q419 270 390.5 277.5Q362 285 334 294Q306 303 278.5 310.5Q251 318 224 318Q186 318 140.5 306Q95 294 50 274L70 379Q102 394 146.5 407.5Q191 421 245 421Q274 421 302 413.5Q330 406 357 397Q384 388 411.5 380.5Q439 373 466 373Z" glyph-name="asciitilde" horiz-adv-x="661" unicode="~" /><glyph d="M535 636 546 561 418 518 472 412 406 368 347 469 247 368 189 417 282 522 170 565 206 636 321 600 349 730H428L407 600Z" glyph-name="asterisk" horiz-adv-x="600" unicode="*" /><glyph d="M476 301Q470 302 462 302.5Q454 303 449 303Q428 303 409.5 294.5Q391 286 377 272Q360 255 347.5 229Q335 203 335 176Q335 158 344 149Q354 141 366 141Q379 141 391.5 147.5Q404 154 414.5 164.5Q425 175 432.5 188Q440 201 445 213ZM454 119Q432 90 399.5 71.5Q367 53 329 53Q307 53 290.5 61.5Q274 70 262 81Q233 110 233 161Q233 203 250 246Q267 289 299 321Q356 380 462 380Q502 380 535.5 373Q569 366 594 355L539 196Q531 172 542.5 153.5Q554 135 583 135Q598 135 613.5 140.5Q629 146 643 160Q669 186 678.5 226Q688 266 688 304Q688 384 642 432Q614 461 570 475.5Q526 490 469 490Q439 490 408.5 484Q378 478 348.5 466.5Q319 455 292.5 438.5Q266 422 245 401Q197 353 172.5 286.5Q148 220 148 148Q148 104 159.5 69.5Q171 35 197 9Q223 -17 264.5 -31.5Q306 -46 361 -46Q372 -46 389.5 -44.5Q407 -43 426.5 -39.5Q446 -36 465.5 -31Q485 -26 501 -19L484 -109Q460 -120 423 -126.5Q386 -133 345 -133Q196 -133 118 -55Q84 -22 63.5 28Q43 78 43 138Q43 224 74 308.5Q105 393 168 459Q227 519 309.5 549Q392 579 485 577Q560 575 616.5 552.5Q673 530 710 494Q744 460 760 411Q776 362 776 306Q776 250 762 197Q748 144 705 101Q680 76 645 65Q610 54 575 54Q557 54 538.5 56.5Q520 59 503.5 66Q487 73 474.5 85.5Q462 98 456 119Z" glyph-name="at" horiz-adv-x="829" unicode="@" /><glyph d="M497 418Q491 419 483 419.5Q475 420 470 420Q449 420 430.5 411.5Q412 403 398 389Q381 372 368.5 346Q356 320 356 293Q356 275 365 266Q375 258 387 258Q400 258 412.5 264.5Q425 271 435.5 281.5Q446 292 453.5 305Q461 318 466 330ZM475 236Q453 207 420.5 188.5Q388 170 350 170Q328 170 311.5 178.5Q295 187 283 198Q254 227 254 278Q254 320 271 363Q288 406 320 438Q377 497 483 497Q523 497 556.5 490Q590 483 615 472L560 313Q552 289 563.5 270.5Q575 252 604 252Q619 252 634.5 257.5Q650 263 664 277Q690 303 699.5 343Q709 383 709 421Q709 501 663 549Q635 578 591 592.5Q547 607 490 607Q460 607 429.5 601Q399 595 369.5 583.5Q340 572 313.5 555.5Q287 539 266 518Q218 470 193.5 403.5Q169 337 169 265Q169 221 180.5 186.5Q192 152 218 126Q244 100 285.5 85.5Q327 71 382 71Q393 71 410.5 72.5Q428 74 447.5 77.5Q467 81 486.5 86Q506 91 522 98L505 8Q481 -3 444 -9.5Q407 -16 366 -16Q217 -16 139 62Q105 95 84.5 145Q64 195 64 255Q64 341 95 425.5Q126 510 189 576Q248 636 330.5 666Q413 696 506 694Q581 692 637.5 669.5Q694 647 731 611Q765 577 781 528Q797 479 797 423Q797 367 783 314Q769 261 726 218Q701 193 666 182Q631 171 596 171Q578 171 559.5 173.5Q541 176 524.5 183Q508 190 495.5 202.5Q483 215 477 236Z" glyph-name="at.cap" horiz-adv-x="829" unicode="&#58643;" /><glyph d="M283 231Q253 231 224 226.5Q195 222 176 203Q163 190 157.5 173.5Q152 157 152 142Q152 129 156.5 120Q161 111 166 106Q176 96 189.5 93.5Q203 91 217 91Q264 91 294.5 110Q325 129 344 151L359 228Q336 230 316 230.5Q296 231 283 231ZM421 660Q444 660 476.5 672Q509 684 532 699L516 611Q507 604 493 597Q479 590 463.5 584.5Q448 579 432 575.5Q416 572 403 572Q379 572 361 577Q343 582 327 588Q311 594 295 599Q279 604 260 604Q236 604 203 592Q170 580 144 566L161 655Q171 661 185.5 668Q200 675 216 681Q232 687 248 690.5Q264 694 277 694Q302 694 319.5 688.5Q337 683 353 677Q369 671 384.5 665.5Q400 660 421 660ZM383 361Q386 378 386.5 391Q387 404 377 412.5Q367 421 343 425Q319 429 273 429Q247 429 203 425Q159 421 108 410L126 508Q151 513 179 516.5Q207 520 233.5 522Q260 524 282 525Q304 526 318 526Q380 526 421.5 516.5Q463 507 486 486Q509 465 514.5 431Q520 397 511 347L448 0H357L348 52H347Q317 23 272.5 6Q228 -11 181 -11Q96 -11 51 33Q34 50 25.5 74.5Q17 99 17 122Q17 166 28.5 199Q40 232 66 258Q85 277 113.5 289Q142 301 173 307Q204 313 235 315Q266 317 292 317Q314 317 333.5 316.5Q353 316 375 314Z" glyph-name="atilde" horiz-adv-x="562" unicode="&#227;" /><glyph d="M460 660Q483 660 515.5 672Q548 684 571 699L555 611Q546 604 532 597Q518 590 502.5 584.5Q487 579 471 575.5Q455 572 442 572Q418 572 400 577Q382 582 366 588Q350 594 334 599Q318 604 299 604Q275 604 242 592Q209 580 183 566L200 655Q210 661 224.5 668Q239 675 255 681Q271 687 287 690.5Q303 694 316 694Q341 694 358.5 688.5Q376 683 392 677Q408 671 423.5 665.5Q439 660 460 660ZM434 386Q418 403 389 410Q360 417 335 417Q275 417 240 382Q226 368 214.5 344.5Q203 321 195 294Q187 267 182.5 239Q178 211 178 186Q178 160 184 143Q190 126 201 115Q223 93 263 93Q281 93 300 99.5Q319 106 336.5 116.5Q354 127 368.5 139Q383 151 393 162ZM498 0H406L398 56H397Q359 23 316 5.5Q273 -12 230 -12Q180 -12 143 3.5Q106 19 82 43Q61 64 48.5 100Q36 136 36 179Q36 211 41.5 247.5Q47 284 59 320Q71 356 89 388.5Q107 421 131 446Q172 488 225 505Q278 522 334 522Q351 522 371 519Q391 516 410.5 510Q430 504 448 495Q466 486 481 473H483L506 510H590Z" glyph-name="atilde.hist" horiz-adv-x="619" unicode="&#59190;" /><glyph d="M212 218H344L328 322Q326 332 324.5 346Q323 360 321.5 375Q320 390 318.5 404.5Q317 419 316 430H314Q310 419 304 405Q298 391 291.5 376Q285 361 278 346.5Q271 332 266 322ZM437 692Q460 692 492.5 704Q525 716 548 731L532 643Q523 636 509 629Q495 622 479.5 616.5Q464 611 448 607.5Q432 604 419 604Q395 604 377 609Q359 614 343 620Q327 626 311 631Q295 636 276 636Q252 636 219 624Q186 612 160 598L177 687Q187 693 201.5 700Q216 707 232 713Q248 719 264 722.5Q280 726 293 726Q318 726 335.5 720.5Q353 715 369 709Q385 703 400.5 697.5Q416 692 437 692ZM359 122H159L93 0H-48L260 541H403L511 0H381Z" glyph-name="atilde.small" horiz-adv-x="557" unicode="&#63459;" /><glyph d="M184 124Q192 116 204 110Q216 104 229.5 100Q243 96 257 94.5Q271 93 283 93Q315 93 338 102Q361 111 378 128Q392 142 403.5 165.5Q415 189 423 216.5Q431 244 435.5 272.5Q440 301 440 326Q440 372 417 395Q395 417 353 417Q335 417 316.5 410.5Q298 404 281 393.5Q264 383 249.5 371Q235 359 225 348ZM285 -12Q268 -12 248 -9Q228 -6 208.5 0Q189 6 171 15Q153 24 138 37H136L113 0H29L154 678H286L248 473H250Q314 522 387 522Q441 522 476.5 507Q512 492 535 469Q555 449 568.5 412.5Q582 376 582 331Q582 296 576.5 259Q571 222 559 187Q547 152 529 120.5Q511 89 487 64Q444 19 392 3.5Q340 -12 285 -12Z" glyph-name="b" horiz-adv-x="619" unicode="b" /><glyph d="M313 322Q358 322 376 340Q388 352 393 370.5Q398 389 398 404Q398 415 395 422.5Q392 430 388 434Q380 443 366 445Q352 447 329 447H241L218 322ZM373 178Q373 200 362 213Q345 230 299 230H201L176 94H277Q297 94 316 96Q335 98 348 111Q363 125 368 143.5Q373 162 373 178ZM446 272Q454 267 460 263Q466 259 474 251Q489 236 498.5 215Q508 194 508 168Q508 130 496 100.5Q484 71 461 48Q445 32 420 22.5Q395 13 367 8Q339 3 310 1.5Q281 0 257 0H27L127 541H348Q404 541 445 530Q486 519 509 496Q524 481 531 460Q538 439 538 421Q538 388 526.5 358.5Q515 329 492 306Q481 295 469.5 287.5Q458 280 447 274Z" glyph-name="b.small" horiz-adv-x="560" unicode="&#63330;" /><glyph d="M166 364Q178 354 192 350.5Q206 347 221 347Q238 347 251 352.5Q264 358 273 367Q281 375 287.5 388.5Q294 402 298.5 418.5Q303 435 305.5 452Q308 469 308 484Q308 514 295 526Q289 532 279 534.5Q269 537 258 537Q241 537 223 527.5Q205 518 191 502ZM289 612Q346 612 379 579Q410 548 410 491Q410 446 395 399.5Q380 353 351 323Q321 293 287 282Q253 271 214 271Q194 271 171.5 278Q149 285 131 298L119 279H53L133 708H230L207 587Q248 612 289 612Z" glyph-name="b.superior" horiz-adv-x="398" unicode="&#58210;" /><glyph d="M76 763H192L328 -85H212Z" glyph-name="backslash" horiz-adv-x="373" unicode="\" /><glyph d="M257 -85H147L304 763H414Z" glyph-name="bar" horiz-adv-x="530" unicode="|" /><glyph d="M328 89Q411 89 459 137Q480 158 497 198Q514 238 527 285H201Q199 268 198 251.5Q197 235 197 221Q197 149 229 118Q245 102 269.5 95.5Q294 89 328 89ZM290 541Q267 518 248.5 473.5Q230 429 218 378H546Q552 421 552 457Q552 529 520 560Q504 576 479.5 582.5Q455 589 421 589Q338 589 290 541ZM309 -16Q235 -16 186.5 2.5Q138 21 107 52Q78 81 63.5 125Q49 169 49 223Q49 268 56 321.5Q63 375 78 428Q93 481 116.5 528.5Q140 576 173 609Q218 654 283.5 674Q349 694 440 694Q514 694 562.5 675.5Q611 657 642 626Q671 597 685.5 553Q700 509 700 455Q700 410 693 356.5Q686 303 671 250Q656 197 632.5 149.5Q609 102 576 69Q531 24 465.5 4Q400 -16 309 -16Z" glyph-name="barredO" horiz-adv-x="718" unicode="&#59192;" /><glyph d="M273 80Q299 80 323 87.5Q347 95 367 115Q382 130 394.5 155.5Q407 181 415 211H179Q178 202 178 193Q178 184 178 176Q178 152 183 135Q188 118 197 107Q210 92 229 86Q248 80 273 80ZM244 395Q227 378 214.5 351.5Q202 325 194 293H431Q432 304 432.5 314Q433 324 433 334Q433 358 428 375Q423 392 414 403Q401 418 382 424Q363 430 338 430Q312 430 288 422.5Q264 415 244 395ZM351 526Q405 526 450.5 510.5Q496 495 525 466Q548 444 561 410Q574 376 574 328Q574 293 568.5 255.5Q563 218 552 182Q541 146 523.5 114Q506 82 482 58Q438 14 381 -1Q324 -16 263 -16Q204 -16 159.5 -0.5Q115 15 86 44Q63 66 50 100Q37 134 37 182Q37 217 42.5 255Q48 293 59.5 329.5Q71 366 88.5 398.5Q106 431 130 455Q153 478 178 492Q203 506 231 513.5Q259 521 289 523.5Q319 526 351 526Z" glyph-name="barredo" horiz-adv-x="612" unicode="&#59191;" /><glyph d="M278 84Q342 84 378 120Q393 135 405 162.5Q417 190 426 222H180Q178 211 178 201Q178 191 178 182Q178 130 202 106Q214 94 233 89Q252 84 278 84ZM247 421Q230 404 216 371.5Q202 339 193 301H442Q444 317 445.5 331.5Q447 346 447 359Q447 411 423 435Q411 447 392 452Q373 457 347 457Q283 457 247 421ZM260 -13Q195 -13 152.5 3.5Q110 20 84 46Q61 69 49 103.5Q37 138 37 180Q37 217 42.5 259.5Q48 302 60.5 343.5Q73 385 92 422Q111 459 138 486Q176 524 231 539Q286 554 358 554Q423 554 469 537.5Q515 521 541 495Q564 472 576 437.5Q588 403 588 361Q588 323 582.5 281Q577 239 564.5 197.5Q552 156 533 119Q514 82 487 55Q449 17 391.5 2Q334 -13 260 -13Z" glyph-name="barredo.small" horiz-adv-x="621" unicode="&#59193;" /><glyph d="M511 693Q584 693 648.5 665Q713 637 761 589Q809 541 837 476.5Q865 412 865 339Q865 266 837 201.5Q809 137 761 89Q713 41 648.5 13Q584 -15 511 -15Q438 -15 373.5 13Q309 41 261 89Q213 137 185 201.5Q157 266 157 339Q157 412 185 476.5Q213 541 261 589Q309 637 373.5 665Q438 693 511 693Z" glyph-name="blackcircle" horiz-adv-x="990" unicode="&#9679;" /><glyph d="M256 510H766V0H256Z" glyph-name="blacksmallsquare" horiz-adv-x="990" unicode="&#9642;" /><glyph d="M172 678H850V0H172Z" glyph-name="blacksquare" horiz-adv-x="990" unicode="&#59200;" /><glyph d="M231 319Q241 288 241 257Q241 227 232.5 195.5Q224 164 213.5 133Q203 102 194.5 73Q186 44 186 20Q186 0 196 -12Q206 -24 231 -24Q238 -24 244.5 -24Q251 -24 268 -22L251 -115Q241 -117 223 -117.5Q205 -118 196 -118Q157 -118 130.5 -109.5Q104 -101 88.5 -86Q73 -71 66 -50Q59 -29 59 -3Q59 30 65 59Q71 88 80 116.5Q89 145 99.5 174.5Q110 204 119 237L69 309L72 329L148 400Q150 434 151.5 474.5Q153 515 158.5 554Q164 593 175.5 627Q187 661 208 682Q231 705 265.5 717.5Q300 730 353 730Q362 730 380 729Q398 728 407 726L390 634Q374 636 367 636Q360 636 353 636Q322 636 305 619Q286 600 283.5 565.5Q281 531 280 489.5Q279 448 270.5 403.5Q262 359 231 319Z" glyph-name="braceleft" horiz-adv-x="355" unicode="{" /><glyph d="M238 352Q248 321 248 290Q248 260 239.5 228.5Q231 197 220.5 166Q210 135 201.5 106Q193 77 193 53Q193 33 203 21Q213 9 238 9Q245 9 251.5 9Q258 9 275 11L258 -82Q248 -84 230 -84.5Q212 -85 203 -85Q164 -85 137.5 -76.5Q111 -68 95.5 -53Q80 -38 73 -17Q66 4 66 30Q66 63 72 92Q78 121 87 149.5Q96 178 106.5 207.5Q117 237 126 270L76 342L79 362L155 433Q157 467 158.5 507.5Q160 548 165.5 587Q171 626 182.5 660Q194 694 215 715Q238 738 272.5 750.5Q307 763 360 763Q369 763 387 762Q405 761 414 759L397 667Q381 669 374 669Q367 669 360 669Q329 669 312 652Q293 633 290.5 598.5Q288 564 287 522.5Q286 481 277.5 436.5Q269 392 238 352Z" glyph-name="braceleft.cap" horiz-adv-x="355" unicode="&#58517;" /><glyph d="M147 319Q137 350 137 381Q137 411 145 438.5Q153 466 162 492Q171 518 179 543Q187 568 187 592Q187 612 177 624Q167 636 142 636Q135 636 128.5 636Q122 636 105 634L122 727Q132 729 150 729.5Q168 730 177 730Q216 730 242.5 721.5Q269 713 284.5 698Q300 683 307 661.5Q314 640 314 615Q314 578 308 552Q302 526 293.5 503.5Q285 481 275.5 457.5Q266 434 259 402L309 330L306 310L230 239Q228 205 226 161.5Q224 118 218 74.5Q212 31 200 -7.5Q188 -46 165 -69Q142 -92 107.5 -105Q73 -118 20 -118Q11 -118 -7 -117Q-25 -116 -34 -114L-17 -22Q-1 -24 6 -24Q13 -24 20 -24Q51 -24 68 -7Q87 12 90 50.5Q93 89 95.5 135.5Q98 182 107 230.5Q116 279 147 319Z" glyph-name="braceright" horiz-adv-x="355" unicode="}" /><glyph d="M154 352Q144 383 144 414Q144 444 152 471.5Q160 499 169 525Q178 551 186 576Q194 601 194 625Q194 645 184 657Q174 669 149 669Q142 669 135.5 669Q129 669 112 667L129 760Q139 762 157 762.5Q175 763 184 763Q223 763 249.5 754.5Q276 746 291.5 731Q307 716 314 694.5Q321 673 321 648Q321 611 315 585Q309 559 300.5 536.5Q292 514 282.5 490.5Q273 467 266 435L316 363L313 343L237 272Q235 238 233 194.5Q231 151 225 107.5Q219 64 207 25.5Q195 -13 172 -36Q149 -59 114.5 -72Q80 -85 27 -85Q18 -85 0 -84Q-18 -83 -27 -81L-10 11Q6 9 13 9Q20 9 27 9Q58 9 75 26Q94 45 97 83.5Q100 122 102.5 168.5Q105 215 114 263.5Q123 312 154 352Z" glyph-name="braceright.cap" horiz-adv-x="355" unicode="&#58518;" /><glyph d="M247 -118H24L181 730H404L386 634H295L173 -23H264Z" glyph-name="bracketleft" horiz-adv-x="351" unicode="[" /><glyph d="M254 -85H31L188 763H411L393 667H302L180 10H271Z" glyph-name="bracketleft.cap" horiz-adv-x="351" unicode="&#58515;" /><glyph d="M-17 -23H74L196 634H105L123 730H346L189 -118H-34Z" glyph-name="bracketright" horiz-adv-x="351" unicode="]" /><glyph d="M-10 10H81L203 667H112L130 763H353L196 -85H-27Z" glyph-name="bracketright.cap" horiz-adv-x="351" unicode="&#58516;" /><glyph d="M367 627Q391 627 410 632Q429 637 443 651Q453 661 461 678H567Q559 656 551 640Q543 624 527 608Q496 577 453 564Q410 551 359 551Q314 551 279.5 561Q245 571 223 593Q208 608 198 629Q188 650 189 678H291Q292 658 305 645Q323 627 367 627Z" glyph-name="breve" horiz-adv-x="600" unicode="&#728;" /><glyph d="M367 795Q391 795 410 800Q429 805 443 819Q453 829 461 846H567Q559 824 551 808Q543 792 527 776Q496 745 453 732Q410 719 359 719Q314 719 279.5 729Q245 739 223 761Q208 776 198 797Q188 818 189 846H291Q292 826 305 813Q323 795 367 795Z" glyph-name="breve.cap" horiz-adv-x="600" unicode="&#58406;" /><glyph d="M367 659Q391 659 410 664Q429 669 443 683Q453 693 461 710H567Q559 688 551 672Q543 656 527 640Q496 609 453 596Q410 583 359 583Q314 583 279.5 593Q245 603 223 625Q208 640 198 661Q188 682 189 710H291Q292 690 305 677Q323 659 367 659Z" glyph-name="breve.small" horiz-adv-x="600" unicode="&#63220;" /><glyph d="M236 398 304 763H414L346 398ZM327 293 257 -85H147L217 293Z" glyph-name="brokenbar" horiz-adv-x="530" unicode="&#166;" /><glyph d="M160 343Q160 375 172.5 403.5Q185 432 206 453Q227 474 255.5 486.5Q284 499 316 499Q348 499 376.5 486.5Q405 474 426 453Q447 432 459.5 403.5Q472 375 472 343Q472 311 459.5 282.5Q447 254 426 233Q405 212 376.5 199.5Q348 187 316 187Q284 187 255.5 199.5Q227 212 206 233Q185 254 172.5 282.5Q160 311 160 343Z" glyph-name="bullet" horiz-adv-x="600" unicode="&#8226;" /><glyph d="M300 91Q318 91 355 95.5Q392 100 433 112L414 8Q368 -7 327 -11.5Q286 -16 257 -16Q196 -16 154 -0.5Q112 15 85 42Q63 64 50 99Q37 134 37 178Q37 213 42 251.5Q47 290 58.5 326.5Q70 363 87.5 396.5Q105 430 129 454Q167 492 224.5 509Q282 526 357 526Q385 526 422.5 522.5Q460 519 495 508L477 410Q449 418 417 421.5Q385 425 362 425Q334 425 301 419.5Q268 414 242 388Q229 375 217.5 351.5Q206 328 198 300.5Q190 273 185 243.5Q180 214 180 189Q180 144 197 122Q212 104 237 97.5Q262 91 300 91Z" glyph-name="c" horiz-adv-x="494" unicode="c" /><glyph d="M38 188Q38 224 44 265.5Q50 307 62.5 347Q75 387 94.5 423.5Q114 460 140 486Q181 527 236 542Q291 557 362 557Q369 557 386 556.5Q403 556 425 554.5Q447 553 470 549Q493 545 512 539L494 441Q474 446 454 449Q434 452 417 453.5Q400 455 387 455.5Q374 456 369 456Q328 456 300 448.5Q272 441 249 418Q232 401 219 373Q206 345 197 312.5Q188 280 183.5 247Q179 214 179 189Q179 162 185 144Q191 126 202 115Q216 101 239 96Q262 91 294 91Q306 91 324 92.5Q342 94 362.5 96.5Q383 99 404.5 103Q426 107 445 112L426 8Q406 1 382 -3.5Q358 -8 335 -11Q312 -14 291 -15Q270 -16 256 -16Q200 -16 159 -1Q118 14 90 42Q66 66 52 102.5Q38 139 38 188Z" glyph-name="c.small" horiz-adv-x="508" unicode="&#63331;" /><glyph d="M227 344Q237 344 261 347Q285 350 317 360L304 286Q271 275 243.5 272Q216 269 197 269Q158 269 130.5 278.5Q103 288 86 305Q55 336 55 391Q55 439 70 487.5Q85 536 115 566Q139 590 175 602Q211 614 266 614Q281 614 305 611.5Q329 609 355 601L342 531Q320 538 298 540Q276 542 264 542Q244 542 226 537.5Q208 533 196 521Q188 513 181 498.5Q174 484 169 466.5Q164 449 161.5 431.5Q159 414 159 400Q159 388 161 377.5Q163 367 171 359Q187 344 227 344Z" glyph-name="c.superior" horiz-adv-x="318" unicode="&#58211;" /><glyph d="M366 565H253L386 678H547ZM300 91Q318 91 355 95.5Q392 100 433 112L414 8Q368 -7 327 -11.5Q286 -16 257 -16Q196 -16 154 -0.5Q112 15 85 42Q63 64 50 99Q37 134 37 178Q37 213 42 251.5Q47 290 58.5 326.5Q70 363 87.5 396.5Q105 430 129 454Q167 492 224.5 509Q282 526 357 526Q385 526 422.5 522.5Q460 519 495 508L477 410Q449 418 417 421.5Q385 425 362 425Q334 425 301 419.5Q268 414 242 388Q229 375 217.5 351.5Q206 328 198 300.5Q190 273 185 243.5Q180 214 180 189Q180 144 197 122Q212 104 237 97.5Q262 91 300 91Z" glyph-name="cacute" horiz-adv-x="494" unicode="&#263;" /><glyph d="M388 597H275L408 710H569ZM38 188Q38 224 44 265.5Q50 307 62.5 347Q75 387 94.5 423.5Q114 460 140 486Q181 527 236 542Q291 557 362 557Q369 557 386 556.5Q403 556 425 554.5Q447 553 470 549Q493 545 512 539L494 441Q474 446 454 449Q434 452 417 453.5Q400 455 387 455.5Q374 456 369 456Q328 456 300 448.5Q272 441 249 418Q232 401 219 373Q206 345 197 312.5Q188 280 183.5 247Q179 214 179 189Q179 162 185 144Q191 126 202 115Q216 101 239 96Q262 91 294 91Q306 91 324 92.5Q342 94 362.5 96.5Q383 99 404.5 103Q426 107 445 112L426 8Q406 1 382 -3.5Q358 -8 335 -11Q312 -14 291 -15Q270 -16 256 -16Q200 -16 159 -1Q118 14 90 42Q66 66 52 102.5Q38 139 38 188Z" glyph-name="cacute.small" horiz-adv-x="508" unicode="&#63043;" /><glyph d="M297 561 198 681H312L362 624L434 681H559L415 561Z" glyph-name="caron" horiz-adv-x="600" unicode="&#711;" /><glyph d="M297 729 198 849H312L362 792L434 849H559L415 729Z" glyph-name="caron.cap" horiz-adv-x="600" unicode="&#58413;" /><glyph d="M297 593 198 713H312L362 656L434 713H559L415 593Z" glyph-name="caron.small" horiz-adv-x="600" unicode="&#63221;" /><glyph d="M454 678H587L453 484H376Z" glyph-name="caronSlovak" horiz-adv-x="600" unicode="&#58387;" /><glyph d="M268 561 169 681H283L333 624L405 681H530L386 561ZM300 91Q318 91 355 95.5Q392 100 433 112L414 8Q368 -7 327 -11.5Q286 -16 257 -16Q196 -16 154 -0.5Q112 15 85 42Q63 64 50 99Q37 134 37 178Q37 213 42 251.5Q47 290 58.5 326.5Q70 363 87.5 396.5Q105 430 129 454Q167 492 224.5 509Q282 526 357 526Q385 526 422.5 522.5Q460 519 495 508L477 410Q449 418 417 421.5Q385 425 362 425Q334 425 301 419.5Q268 414 242 388Q229 375 217.5 351.5Q206 328 198 300.5Q190 273 185 243.5Q180 214 180 189Q180 144 197 122Q212 104 237 97.5Q262 91 300 91Z" glyph-name="ccaron" horiz-adv-x="494" unicode="&#269;" /><glyph d="M277 593 178 713H292L342 656L414 713H539L395 593ZM38 188Q38 224 44 265.5Q50 307 62.5 347Q75 387 94.5 423.5Q114 460 140 486Q181 527 236 542Q291 557 362 557Q369 557 386 556.5Q403 556 425 554.5Q447 553 470 549Q493 545 512 539L494 441Q474 446 454 449Q434 452 417 453.5Q400 455 387 455.5Q374 456 369 456Q328 456 300 448.5Q272 441 249 418Q232 401 219 373Q206 345 197 312.5Q188 280 183.5 247Q179 214 179 189Q179 162 185 144Q191 126 202 115Q216 101 239 96Q262 91 294 91Q306 91 324 92.5Q342 94 362.5 96.5Q383 99 404.5 103Q426 107 445 112L426 8Q406 1 382 -3.5Q358 -8 335 -11Q312 -14 291 -15Q270 -16 256 -16Q200 -16 159 -1Q118 14 90 42Q66 66 52 102.5Q38 139 38 188Z" glyph-name="ccaron.small" horiz-adv-x="508" unicode="&#63044;" /><glyph d="M200 -12Q162 -6 133.5 8Q105 22 85 42Q63 64 50 99Q37 134 37 178Q37 213 42 251.5Q47 290 58.5 326.5Q70 363 87.5 396.5Q105 430 129 454Q167 492 224.5 509Q282 526 357 526Q385 526 422.5 522.5Q460 519 495 508L477 410Q449 418 417 421.5Q385 425 362 425Q334 425 301 419.5Q268 414 242 388Q229 375 217.5 351.5Q206 328 198 300.5Q190 273 185 243.5Q180 214 180 189Q180 144 197 122Q212 104 237 97.5Q262 91 300 91Q318 91 355 95.5Q392 100 433 112L414 8Q381 -3 350 -8Q319 -13 293 -15L276 -43Q301 -52 312 -63Q320 -71 322.5 -80.5Q325 -90 325 -98Q325 -126 303 -148Q267 -184 174 -184Q153 -184 131.5 -181.5Q110 -179 82 -170L95 -102Q121 -111 139 -114Q157 -117 169 -117Q174 -117 182 -116.5Q190 -116 198 -114Q206 -112 211.5 -107.5Q217 -103 217 -95Q217 -84 205 -80.5Q193 -77 179 -75L178 -48Z" glyph-name="ccedilla" horiz-adv-x="494" unicode="&#231;" /><glyph d="M202 -12Q130 0 90 42Q66 66 52 102.5Q38 139 38 188Q38 224 44 265.5Q50 307 62.5 347Q75 387 94.5 423.5Q114 460 140 486Q181 527 236 542Q291 557 362 557Q369 557 386 556.5Q403 556 425 554.5Q447 553 470 549Q493 545 512 539L494 441Q474 446 454 449Q434 452 417 453.5Q400 455 387 455.5Q374 456 369 456Q328 456 300 448.5Q272 441 249 418Q232 401 219 373Q206 345 197 312.5Q188 280 183.5 247Q179 214 179 189Q179 162 185 144Q191 126 202 115Q216 101 239 96Q262 91 294 91Q306 91 324 92.5Q342 94 362.5 96.5Q383 99 404.5 103Q426 107 445 112L426 8Q397 -2 361 -7Q325 -12 295 -14L278 -43Q303 -52 314 -63Q322 -71 324.5 -80.5Q327 -90 327 -98Q327 -126 305 -148Q269 -184 176 -184Q155 -184 133.5 -181.5Q112 -179 84 -170L97 -102Q123 -111 141 -114Q159 -117 171 -117Q176 -117 184 -116.5Q192 -116 200 -114Q208 -112 213.5 -107.5Q219 -103 219 -95Q219 -84 207 -80.5Q195 -77 181 -75L180 -48Z" glyph-name="ccedilla.small" horiz-adv-x="508" unicode="&#63463;" /><glyph d="M420 681 519 561H405L355 618L283 561H158L302 681ZM300 91Q318 91 355 95.5Q392 100 433 112L414 8Q368 -7 327 -11.5Q286 -16 257 -16Q196 -16 154 -0.5Q112 15 85 42Q63 64 50 99Q37 134 37 178Q37 213 42 251.5Q47 290 58.5 326.5Q70 363 87.5 396.5Q105 430 129 454Q167 492 224.5 509Q282 526 357 526Q385 526 422.5 522.5Q460 519 495 508L477 410Q449 418 417 421.5Q385 425 362 425Q334 425 301 419.5Q268 414 242 388Q229 375 217.5 351.5Q206 328 198 300.5Q190 273 185 243.5Q180 214 180 189Q180 144 197 122Q212 104 237 97.5Q262 91 300 91Z" glyph-name="ccircumflex" horiz-adv-x="494" unicode="&#265;" /><glyph d="M429 713 528 593H414L364 650L292 593H167L311 713ZM38 188Q38 224 44 265.5Q50 307 62.5 347Q75 387 94.5 423.5Q114 460 140 486Q181 527 236 542Q291 557 362 557Q369 557 386 556.5Q403 556 425 554.5Q447 553 470 549Q493 545 512 539L494 441Q474 446 454 449Q434 452 417 453.5Q400 455 387 455.5Q374 456 369 456Q328 456 300 448.5Q272 441 249 418Q232 401 219 373Q206 345 197 312.5Q188 280 183.5 247Q179 214 179 189Q179 162 185 144Q191 126 202 115Q216 101 239 96Q262 91 294 91Q306 91 324 92.5Q342 94 362.5 96.5Q383 99 404.5 103Q426 107 445 112L426 8Q406 1 382 -3.5Q358 -8 335 -11Q312 -14 291 -15Q270 -16 256 -16Q200 -16 159 -1Q118 14 90 42Q66 66 52 102.5Q38 139 38 188Z" glyph-name="ccircumflex.small" horiz-adv-x="508" unicode="&#63016;" /><glyph d="M300 91Q318 91 355 95.5Q392 100 433 112L414 8Q368 -7 327 -11.5Q286 -16 257 -16Q196 -16 154 -0.5Q112 15 85 42Q63 64 50 99Q37 134 37 178Q37 213 42 251.5Q47 290 58.5 326.5Q70 363 87.5 396.5Q105 430 129 454Q167 492 224.5 509Q282 526 357 526Q385 526 422.5 522.5Q460 519 495 508L477 410Q449 418 417 421.5Q385 425 362 425Q334 425 301 419.5Q268 414 242 388Q229 375 217.5 351.5Q206 328 198 300.5Q190 273 185 243.5Q180 214 180 189Q180 144 197 122Q212 104 237 97.5Q262 91 300 91ZM400 574H268L287 678H419Z" glyph-name="cdotaccent" horiz-adv-x="494" unicode="&#267;" /><glyph d="M404 606H272L291 710H423ZM38 188Q38 224 44 265.5Q50 307 62.5 347Q75 387 94.5 423.5Q114 460 140 486Q181 527 236 542Q291 557 362 557Q369 557 386 556.5Q403 556 425 554.5Q447 553 470 549Q493 545 512 539L494 441Q474 446 454 449Q434 452 417 453.5Q400 455 387 455.5Q374 456 369 456Q328 456 300 448.5Q272 441 249 418Q232 401 219 373Q206 345 197 312.5Q188 280 183.5 247Q179 214 179 189Q179 162 185 144Q191 126 202 115Q216 101 239 96Q262 91 294 91Q306 91 324 92.5Q342 94 362.5 96.5Q383 99 404.5 103Q426 107 445 112L426 8Q406 1 382 -3.5Q358 -8 335 -11Q312 -14 291 -15Q270 -16 256 -16Q200 -16 159 -1Q118 14 90 42Q66 66 52 102.5Q38 139 38 188Z" glyph-name="cdotaccent.small" horiz-adv-x="508" unicode="&#63017;" /><glyph d="M229 0H323L297 -43Q322 -52 333 -63Q341 -71 343.5 -80.5Q346 -90 346 -98Q346 -126 324 -148Q288 -184 195 -184Q174 -184 152.5 -181.5Q131 -179 103 -170L116 -102Q142 -111 160 -114Q178 -117 190 -117Q195 -117 203 -116.5Q211 -116 219 -114Q227 -112 232.5 -107.5Q238 -103 238 -95Q238 -84 226 -80.5Q214 -77 200 -75L199 -48Z" glyph-name="cedilla" horiz-adv-x="600" unicode="&#184;" /><glyph d="M316 91Q334 91 371 95.5Q408 100 449 112L430 8Q387 -6 344 -11Q301 -16 272 -16Q260 -16 249 -15.5Q238 -15 227 -14L180 -118H68L131 19Q122 25 115.5 30.5Q109 36 103 42Q80 65 67.5 101Q55 137 55 184Q55 226 62 271Q69 316 82 358.5Q95 401 114.5 438Q134 475 160 501Q192 533 240.5 551Q289 569 351 574L395 678H507L459 567Q474 565 489.5 561.5Q505 558 519 553L502 455Q473 464 441.5 468.5Q410 473 387 473Q352 473 321.5 466Q291 459 269 437Q252 420 239 390Q226 360 217 325.5Q208 291 203 256.5Q198 222 198 197Q198 174 202.5 152.5Q207 131 222 116Q236 101 258.5 96Q281 91 316 91Z" glyph-name="cent" horiz-adv-x="518" unicode="&#162;" /><glyph d="M391 160Q409 160 446 164.5Q483 169 524 181L505 77Q462 63 419 58Q376 53 347 53Q335 53 324 53.5Q313 54 302 55L255 -49H143L206 88Q197 94 190.5 99.5Q184 105 178 111Q155 134 142.5 170Q130 206 130 253Q130 295 137 340Q144 385 157 427.5Q170 470 189.5 507Q209 544 235 570Q267 602 316.5 620.5Q366 639 426 643L470 747H582L534 636Q549 634 564.5 630.5Q580 627 594 622L577 524Q548 533 516.5 537.5Q485 542 462 542Q427 542 396.5 535Q366 528 344 506Q327 489 314 459Q301 429 292 394.5Q283 360 278 325.5Q273 291 273 266Q273 243 277.5 221.5Q282 200 297 185Q311 170 333.5 165Q356 160 391 160Z" glyph-name="cent.LP" horiz-adv-x="660" unicode="&#58659;" /><glyph d="M511 525Q567 525 616 503.5Q665 482 702 445.5Q739 409 760 359.5Q781 310 781 254Q781 198 760 149Q739 100 702 63Q665 26 616 5Q567 -16 511 -16Q455 -16 406 5Q357 26 320 63Q283 100 262 149Q241 198 241 254Q241 310 262 359.5Q283 409 320 445.5Q357 482 406 503.5Q455 525 511 525Z" glyph-name="circle" horiz-adv-x="990" unicode="&#59201;" /><glyph d="M438 681 537 561H423L373 618L301 561H176L320 681Z" glyph-name="circumflex" horiz-adv-x="600" unicode="&#710;" /><glyph d="M438 849 537 729H423L373 786L301 729H176L320 849Z" glyph-name="circumflex.cap" horiz-adv-x="600" unicode="&#58403;" /><glyph d="M439 713 538 593H424L374 650L302 593H177L321 713Z" glyph-name="circumflex.small" horiz-adv-x="600" unicode="&#63222;" /><glyph d="M182 0H27L52 137H207ZM251 373H96L121 510H276Z" glyph-name="colon" horiz-adv-x="303" unicode=":" /><glyph d="M82 154H247L68 -139H-41Z" glyph-name="comma" horiz-adv-x="303" unicode="," /><glyph d="M383 678H516L382 484H305Z" glyph-name="commaabovecmb" horiz-adv-x="600" unicode="&#787;" /><glyph d="M175 -74H308L174 -268H97Z" glyph-name="commaaccent" horiz-adv-x="600" unicode="&#63171;" /><glyph d="M666 563H533L667 757H744Z" glyph-name="commaturnedabove" horiz-adv-x="700" unicode="&#59202;" /><glyph d="M394 -16Q307 -16 245.5 5Q184 26 142 67Q108 101 88 151Q68 201 68 260Q68 302 76 346Q84 390 100 432Q116 474 139.5 512.5Q163 551 194 582Q254 642 336.5 668Q419 694 525 694Q612 694 673.5 673Q735 652 777 611Q811 577 831 527Q851 477 851 418Q851 376 843 332Q835 288 819 246Q803 204 779.5 165.5Q756 127 725 96Q665 36 582.5 10Q500 -16 394 -16ZM409 70Q490 70 548.5 92Q607 114 650 157Q698 205 721.5 273.5Q745 342 745 413Q745 500 696 549Q638 607 509 607Q428 607 369.5 585Q311 563 268 520Q220 472 196.5 403.5Q173 335 173 264Q173 177 222 128Q280 70 409 70ZM304 285Q304 310 307.5 336.5Q311 363 319 388.5Q327 414 340 437.5Q353 461 371 480Q397 506 431 516.5Q465 527 510 527Q527 527 551.5 524.5Q576 522 600 514L587 443Q570 448 549 451Q528 454 512 454Q472 454 451 433Q439 421 430.5 403.5Q422 386 416.5 366.5Q411 347 409 326.5Q407 306 407 288Q407 257 421 243Q429 235 441 232.5Q453 230 470 230Q484 230 505 232.5Q526 235 543 238L530 168Q504 161 481 158.5Q458 156 441 156Q373 156 337 192Q304 225 304 285Z" glyph-name="copyright" horiz-adv-x="888" unicode="&#169;" /><glyph d="M271 360Q284 360 313 364Q342 368 379 379L362 289Q325 278 293 274Q261 270 238 270Q190 270 158 281Q126 292 106 312Q69 347 69 414Q69 439 72.5 467Q76 495 84.5 523Q93 551 106 576Q119 601 139 621Q167 649 210 663.5Q253 678 319 678Q336 678 366 674.5Q396 671 423 662L408 578Q382 586 356.5 589.5Q331 593 314 593Q295 593 274 589.5Q253 586 236 569Q227 560 218.5 542.5Q210 525 204 504.5Q198 484 194.5 462.5Q191 441 191 422Q191 411 193 398Q195 385 204 376Q215 366 231.5 363Q248 360 271 360Z" glyph-name="cordinal" horiz-adv-x="381" unicode="&#57729;" /><glyph d="M68 423Q68 450 72.5 480.5Q77 511 87 541Q97 571 111 597.5Q125 624 145 644Q174 673 217 686Q260 699 315 699Q321 699 334 698.5Q347 698 363.5 696Q380 694 398.5 690.5Q417 687 434 680L418 598Q383 610 353.5 612.5Q324 615 314 615Q289 615 271 609Q253 603 239 589Q228 578 219.5 559Q211 540 204 517Q197 494 193.5 470Q190 446 190 426Q190 391 206 375Q216 366 231 363Q246 360 267 360Q275 360 288.5 361.5Q302 363 318.5 365Q335 367 352.5 370.5Q370 374 387 378L371 292Q354 286 335 282Q316 278 297.5 275.5Q279 273 262.5 272.5Q246 272 236 272Q152 272 109 312Q90 330 79 358Q68 386 68 423Z" glyph-name="cordinal.small" horiz-adv-x="391" unicode="&#59203;" /><glyph d="M386 48Q339 48 298.5 58Q258 68 223 90L108 -8L38 77L148 170Q137 193 129.5 225Q122 257 122 289Q122 354 145 415Q168 476 213 528L146 612L237 687L312 592Q355 614 401.5 623Q448 632 495 632Q542 632 582.5 622.5Q623 613 658 591L773 688L843 603L733 510Q744 487 751.5 455Q759 423 759 391Q759 326 736 265Q713 204 668 152L735 68L644 -7L569 88Q526 66 479.5 57Q433 48 386 48ZM406 156Q447 156 484 169.5Q521 183 553 215Q584 246 601 293.5Q618 341 618 390Q618 454 583 487Q563 507 534.5 515Q506 523 474 523Q436 523 398 510Q360 497 328 465Q297 434 280 386.5Q263 339 263 290Q263 226 298 193Q318 173 346.5 164.5Q375 156 406 156Z" glyph-name="currency" horiz-adv-x="853" unicode="&#164;" /><glyph d="M432 386Q416 403 387 410Q358 417 333 417Q273 417 238 382Q224 368 212.5 344.5Q201 321 193 294Q185 267 180.5 239Q176 211 176 186Q176 160 182 143Q188 126 199 115Q221 93 261 93Q279 93 298 99.5Q317 106 334.5 116.5Q352 127 366.5 139Q381 151 391 162ZM34 179Q34 211 39.5 247.5Q45 284 57 320Q69 356 87 388.5Q105 421 129 446Q170 488 223 505Q276 522 331 522Q359 522 391.5 514Q424 506 451 488L486 678H618L496 0H404L396 56H395Q357 23 314 5.5Q271 -12 228 -12Q178 -12 141 3.5Q104 19 80 43Q59 64 46.5 100Q34 136 34 179Z" glyph-name="d" horiz-adv-x="619" unicode="d" /><glyph d="M27 0 127 541H338Q391 541 440.5 530Q490 519 525 484Q553 456 564.5 419Q576 382 576 344Q576 308 570.5 270Q565 232 552.5 195.5Q540 159 521 125.5Q502 92 475 65Q453 43 427 30Q401 17 372.5 10.5Q344 4 313.5 2Q283 0 250 0ZM271 98Q294 98 320 103Q346 108 366 128Q383 145 396 170Q409 195 417.5 223.5Q426 252 430 282.5Q434 313 434 341Q434 361 429.5 384Q425 407 411 421Q397 435 378 439Q359 443 336 443H242L178 98Z" glyph-name="d.small" horiz-adv-x="609" unicode="&#63332;" /><glyph d="M301 523Q290 530 273.5 533Q257 536 246 536Q214 536 194 516Q186 508 179.5 494.5Q173 481 168.5 464.5Q164 448 161.5 431Q159 414 159 399Q159 369 172 357Q178 351 188 348.5Q198 346 209 346Q226 346 243.5 355.5Q261 365 275 381ZM278 308H277Q256 290 229.5 280.5Q203 271 177 271Q120 271 87 304Q56 335 56 392Q56 437 71 483.5Q86 530 115 560Q145 590 179 601Q213 612 253 612Q264 612 283 608.5Q302 605 315 597L336 708H433L353 279H281Z" glyph-name="d.superior" horiz-adv-x="398" unicode="&#58212;" /><glyph d="M198 -85H117L193 388L47 376L68 488L210 476L235 678H362L313 476L459 488L438 376L296 388Z" glyph-name="dagger" horiz-adv-x="441" unicode="&#8224;" /><glyph d="M271 269 391 279 374 184 255 193 198 -85H117L161 193L41 184L58 279L174 269L193 388L47 376L68 488L210 476L235 678H362L313 476L459 488L438 376L296 388Z" glyph-name="daggerdbl" horiz-adv-x="441" unicode="&#8225;" /><glyph d="M726 678H859L725 484H648ZM432 386Q416 403 387 410Q358 417 333 417Q273 417 238 382Q224 368 212.5 344.5Q201 321 193 294Q185 267 180.5 239Q176 211 176 186Q176 160 182 143Q188 126 199 115Q221 93 261 93Q279 93 298 99.5Q317 106 334.5 116.5Q352 127 366.5 139Q381 151 391 162ZM34 179Q34 211 39.5 247.5Q45 284 57 320Q69 356 87 388.5Q105 421 129 446Q170 488 223 505Q276 522 331 522Q359 522 391.5 514Q424 506 451 488L486 678H618L496 0H404L396 56H395Q357 23 314 5.5Q271 -12 228 -12Q178 -12 141 3.5Q104 19 80 43Q59 64 46.5 100Q34 136 34 179Z" glyph-name="dcaron" horiz-adv-x="770" unicode="&#271;" /><glyph d="M298 593 199 713H313L363 656L435 713H560L416 593ZM27 0 127 541H338Q391 541 440.5 530Q490 519 525 484Q553 456 564.5 419Q576 382 576 344Q576 308 570.5 270Q565 232 552.5 195.5Q540 159 521 125.5Q502 92 475 65Q453 43 427 30Q401 17 372.5 10.5Q344 4 313.5 2Q283 0 250 0ZM271 98Q294 98 320 103Q346 108 366 128Q383 145 396 170Q409 195 417.5 223.5Q426 252 430 282.5Q434 313 434 341Q434 361 429.5 384Q425 407 411 421Q397 435 378 439Q359 443 336 443H242L178 98Z" glyph-name="dcaron.small" horiz-adv-x="609" unicode="&#63045;" /><glyph d="M233 -38Q278 -40 302 -49Q326 -58 338 -70Q346 -78 348.5 -87Q351 -96 351 -104Q351 -116 345.5 -128.5Q340 -141 330 -150Q294 -184 200 -184Q179 -184 157.5 -181.5Q136 -179 108 -170L121 -102Q147 -111 165 -114Q183 -117 195 -117Q200 -117 208 -116.5Q216 -116 224 -114Q232 -112 237.5 -107Q243 -102 243 -94Q243 -88 239 -84.5Q235 -81 229 -79Q223 -77 217 -75.5Q211 -74 207 -74ZM432 386Q416 403 387 410Q358 417 333 417Q273 417 238 382Q224 368 212.5 344.5Q201 321 193 294Q185 267 180.5 239Q176 211 176 186Q176 160 182 143Q188 126 199 115Q221 93 261 93Q279 93 298 99.5Q317 106 334.5 116.5Q352 127 366.5 139Q381 151 391 162ZM34 179Q34 211 39.5 247.5Q45 284 57 320Q69 356 87 388.5Q105 421 129 446Q170 488 223 505Q276 522 331 522Q359 522 391.5 514Q424 506 451 488L486 678H618L496 0H404L396 56H395Q357 23 314 5.5Q271 -12 228 -12Q178 -12 141 3.5Q104 19 80 43Q59 64 46.5 100Q34 136 34 179Z" glyph-name="dcedilla" horiz-adv-x="619" unicode="&#7697;" /><glyph d="M225 -38Q270 -40 294 -49Q318 -58 330 -70Q338 -78 340.5 -87Q343 -96 343 -104Q343 -116 337.5 -128.5Q332 -141 322 -150Q286 -184 192 -184Q171 -184 149.5 -181.5Q128 -179 100 -170L113 -102Q139 -111 157 -114Q175 -117 187 -117Q192 -117 200 -116.5Q208 -116 216 -114Q224 -112 229.5 -107Q235 -102 235 -94Q235 -88 231 -84.5Q227 -81 221 -79Q215 -77 209 -75.5Q203 -74 199 -74ZM27 0 127 541H338Q391 541 440.5 530Q490 519 525 484Q553 456 564.5 419Q576 382 576 344Q576 308 570.5 270Q565 232 552.5 195.5Q540 159 521 125.5Q502 92 475 65Q453 43 427 30Q401 17 372.5 10.5Q344 4 313.5 2Q283 0 250 0ZM271 98Q294 98 320 103Q346 108 366 128Q383 145 396 170Q409 195 417.5 223.5Q426 252 430 282.5Q434 313 434 341Q434 361 429.5 384Q425 407 411 421Q397 435 378 439Q359 443 336 443H242L178 98Z" glyph-name="dcedilla.small" horiz-adv-x="609" unicode="&#59207;" /><glyph d="M432 386Q416 403 387 410Q358 417 333 417Q273 417 238 382Q224 368 212.5 344.5Q201 321 193 294Q185 267 180.5 239Q176 211 176 186Q176 160 182 143Q188 126 199 115Q221 93 261 93Q279 93 298 99.5Q317 106 334.5 116.5Q352 127 366.5 139Q381 151 391 162ZM697 548H594L496 0H404L396 56H395Q357 23 314 5.5Q271 -12 228 -12Q178 -12 141 3.5Q104 19 80 43Q59 64 46.5 100Q34 136 34 179Q34 211 39.5 247.5Q45 284 57 320Q69 356 87 388.5Q105 421 129 446Q170 488 223 505Q276 522 331 522Q359 522 391.5 514Q424 506 451 488L462 548H343L358 630H477L486 678H618L609 630H712Z" glyph-name="dcroat" horiz-adv-x="619" unicode="&#273;" /><glyph d="M286 98Q309 98 335 103Q361 108 381 128Q398 145 411 170Q424 195 432.5 223.5Q441 252 445 282.5Q449 313 449 341Q449 361 444.5 384Q440 407 426 421Q412 435 393 439Q374 443 351 443H257L233 314H378L363 235H218L193 98ZM42 0 85 235H4L19 314H100L142 541H353Q406 541 455.5 530Q505 519 540 484Q568 456 579.5 419Q591 382 591 344Q591 308 585.5 270Q580 232 567.5 195.5Q555 159 536 125.5Q517 92 490 65Q468 43 442 30Q416 17 387.5 10.5Q359 4 328.5 2Q298 0 265 0Z" glyph-name="dcroat.small" horiz-adv-x="624" unicode="&#63046;" /><glyph d="M279 -197H155L175 -88H299ZM432 386Q416 403 387 410Q358 417 333 417Q273 417 238 382Q224 368 212.5 344.5Q201 321 193 294Q185 267 180.5 239Q176 211 176 186Q176 160 182 143Q188 126 199 115Q221 93 261 93Q279 93 298 99.5Q317 106 334.5 116.5Q352 127 366.5 139Q381 151 391 162ZM34 179Q34 211 39.5 247.5Q45 284 57 320Q69 356 87 388.5Q105 421 129 446Q170 488 223 505Q276 522 331 522Q359 522 391.5 514Q424 506 451 488L486 678H618L496 0H404L396 56H395Q357 23 314 5.5Q271 -12 228 -12Q178 -12 141 3.5Q104 19 80 43Q59 64 46.5 100Q34 136 34 179Z" glyph-name="ddotbelow" horiz-adv-x="619" unicode="&#7693;" /><glyph d="M264 -197H140L160 -88H284ZM27 0 127 541H338Q391 541 440.5 530Q490 519 525 484Q553 456 564.5 419Q576 382 576 344Q576 308 570.5 270Q565 232 552.5 195.5Q540 159 521 125.5Q502 92 475 65Q453 43 427 30Q401 17 372.5 10.5Q344 4 313.5 2Q283 0 250 0ZM271 98Q294 98 320 103Q346 108 366 128Q383 145 396 170Q409 195 417.5 223.5Q426 252 430 282.5Q434 313 434 341Q434 361 429.5 384Q425 407 411 421Q397 435 378 439Q359 443 336 443H242L178 98Z" glyph-name="ddotbelow.small" horiz-adv-x="609" unicode="&#59208;" /><glyph d="M250 362Q210 362 175 372Q140 382 117 405Q79 443 79 498Q79 533 90.5 570Q102 607 132 637Q164 669 210.5 682Q257 695 308 695Q348 695 383 685Q418 675 441 652Q459 634 469 610.5Q479 587 479 559Q479 524 467.5 487Q456 450 426 420Q394 388 347.5 375Q301 362 250 362ZM262 445Q292 445 314 451Q336 457 352 473Q366 487 373.5 507.5Q381 528 381 548Q381 576 365 592Q345 612 293 612Q265 612 243.5 606Q222 600 206 584Q192 570 184.5 549.5Q177 529 177 509Q177 481 193 465Q213 445 262 445Z" glyph-name="degree" horiz-adv-x="454" unicode="&#176;" /><glyph d="M535 572H409L428 676H554ZM310 572H184L203 676H329Z" glyph-name="dieresis" horiz-adv-x="600" unicode="&#168;" /><glyph d="M535 740H409L428 844H554ZM310 740H184L203 844H329Z" glyph-name="dieresis.cap" horiz-adv-x="600" unicode="&#58409;" /><glyph d="M535 604H409L428 708H554ZM310 604H184L203 708H329Z" glyph-name="dieresis.small" horiz-adv-x="600" unicode="&#63400;" /><glyph d="M576 744H216L232 834H592ZM541 570H411L431 678H561ZM316 570H186L206 678H336Z" glyph-name="dieresismacron" horiz-adv-x="0" unicode="&#59209;" /><glyph d="M622 912H262L278 1002H638ZM587 738H457L477 846H607ZM362 738H232L252 846H382Z" glyph-name="dieresismacron.cap" horiz-adv-x="0" unicode="&#59216;" /><glyph d="M336 27H208L228 140H356ZM573 215H39L59 322H593ZM404 398H276L297 511H425Z" glyph-name="divide" horiz-adv-x="628" unicode="&#247;" /><glyph d="M365 104H237L258 217H386ZM618 292H54L73 399H637ZM434 475H306L326 588H454Z" glyph-name="divide.cap" horiz-adv-x="658" unicode="&#58772;" /><glyph d="M198 89Q281 89 316 121Q329 132 334 147.5Q339 163 339 178Q339 188 337 194.5Q335 201 329 207Q313 223 284.5 226.5Q256 230 223 233Q190 236 157 244Q124 252 100 276Q85 291 76 312Q67 333 68 362Q68 403 82.5 442.5Q97 482 125 510Q161 546 211.5 559Q262 572 323 574L367 678H479L431 566Q449 564 465 560.5Q481 557 495 553L477 455Q456 460 433.5 463.5Q411 467 390 469Q369 471 351.5 472Q334 473 323 473Q290 473 265.5 467.5Q241 462 226 446Q205 423 205 391Q205 372 216 361Q228 349 256 346Q284 343 317.5 339.5Q351 336 385.5 326Q420 316 446 290Q460 276 468 254.5Q476 233 476 207Q476 161 459.5 122.5Q443 84 413 54Q375 17 320 1.5Q265 -14 198 -16L153 -118H41L90 -9Q71 -6 50.5 -2Q30 2 10 8L29 111Q51 105 75 101Q99 97 122.5 94.5Q146 92 165.5 90.5Q185 89 198 89Z" glyph-name="dollar" horiz-adv-x="528" unicode="$" /><glyph d="M281 131Q333 131 364 140.5Q395 150 412 167Q423 178 429 193.5Q435 209 435 223Q435 246 423 258Q406 275 375.5 278.5Q345 282 309 285Q273 288 236 298Q199 308 170 337Q153 354 143.5 379Q134 404 134 435Q134 480 151 518.5Q168 557 198 587Q216 605 239 617.5Q262 630 288.5 638.5Q315 647 343.5 652Q372 657 401 659L461 795H582L520 654Q541 651 561.5 647.5Q582 644 597 638L578 533Q534 545 491 549Q448 553 424 553Q337 553 305 521Q294 510 288 494Q282 478 282 463Q282 443 293 432Q306 418 337 415.5Q368 413 404.5 409Q441 405 479 395Q517 385 545 357Q561 341 572 316.5Q583 292 583 260Q583 160 518 95Q478 56 419 38Q360 20 288 17L228 -118H107L169 24Q146 27 121.5 32Q97 37 75 45L95 156Q118 149 145 144Q172 139 197.5 136Q223 133 245 132Q267 131 281 131Z" glyph-name="dollar.LP" horiz-adv-x="660" unicode="&#58658;" /><glyph d="M575 731H215L232 821H592ZM431 574H299L318 678H450Z" glyph-name="dotabovemacron" horiz-adv-x="0" unicode="&#59218;" /><glyph d="M485 742H353L372 846H504ZM630 912H270L287 1002H647Z" glyph-name="dotabovemacron.cap" horiz-adv-x="0" unicode="&#59219;" /><glyph d="M574 779H214L231 869H591ZM431 623H299L318 727H450Z" glyph-name="dotabovemacron.small" horiz-adv-x="0" unicode="&#59220;" /><glyph d="M425 574H293L312 678H444Z" glyph-name="dotaccent" horiz-adv-x="600" unicode="&#729;" /><glyph d="M425 742H293L312 846H444Z" glyph-name="dotaccent.cap" horiz-adv-x="600" unicode="&#58408;" /><glyph d="M425 606H293L312 710H444Z" glyph-name="dotaccent.small" horiz-adv-x="600" unicode="&#63223;" /><glyph d="M34 0 159 678H297L172 0Z" glyph-name="dotlessI" horiz-adv-x="300" unicode="&#59221;" /><glyph d="M-59 -118Q-11 -56 23 12.5Q57 81 72 165L167 678H305L217 200Q207 147 195.5 103Q184 59 168 21.5Q152 -16 130 -50Q108 -84 78 -118Z" glyph-name="dotlessJ" horiz-adv-x="308" unicode="&#59223;" /><glyph d="M161 0H29L123 510H255Z" glyph-name="dotlessi" horiz-adv-x="284" unicode="&#305;" /><glyph d="M27 0 127 541H260L160 0Z" glyph-name="dotlessi.small" horiz-adv-x="281" unicode="&#59222;" /><glyph d="M-59 -168Q-43 -146 -26.5 -118.5Q-10 -91 4.5 -60Q19 -29 29.5 3.5Q40 36 46 67L128 510H260L196 163Q185 107 175.5 61Q166 15 152.5 -24.5Q139 -64 119.5 -99Q100 -134 70 -168Z" glyph-name="dotlessj" horiz-adv-x="289" unicode="&#567;" /><glyph d="M-55 -91Q-12 -38 17.5 16.5Q47 71 59 136L134 541H267L197 163Q189 121 179.5 87Q170 53 157 23Q144 -7 126 -34.5Q108 -62 83 -91Z" glyph-name="dotlessj.small" horiz-adv-x="288" unicode="&#59224;" /><glyph d="M354 -85H271L428 763H511ZM230 -85H147L304 763H387Z" glyph-name="doublebar" horiz-adv-x="627" unicode="&#8214;" /><glyph d="M82 678H222L311 563H219ZM268 678H408L497 563H405Z" glyph-name="doublegrave" horiz-adv-x="600" unicode="&#58386;" /><glyph d="M82 846H222L311 731H219ZM268 846H408L497 731H405Z" glyph-name="doublegrave.cap" horiz-adv-x="600" unicode="&#58412;" /><glyph d="M82 710H222L311 595H219ZM268 710H408L497 595H405Z" glyph-name="doublegrave.small" horiz-adv-x="600" unicode="&#59225;" /><glyph d="M329 429Q309 429 285 423.5Q261 418 241 398Q214 371 200 316H402Q405 327 407.5 339Q410 351 410 365Q410 375 407.5 387Q405 399 395 409Q384 420 366.5 424.5Q349 429 329 429ZM533 364Q533 329 526 294Q519 259 508 225H180Q178 211 176.5 199Q175 187 175 176Q175 159 179.5 142.5Q184 126 197 113Q213 97 238.5 91Q264 85 304 85Q318 85 338 86.5Q358 88 380 90.5Q402 93 424.5 96.5Q447 100 467 105L449 10Q430 4 406 -1Q382 -6 356.5 -9.5Q331 -13 306 -14.5Q281 -16 260 -16Q197 -16 154 0Q111 16 86 41Q63 64 50 99.5Q37 135 37 178Q37 214 42.5 252Q48 290 59.5 326.5Q71 363 89 395.5Q107 428 132 453Q175 496 231.5 511Q288 526 345 526Q397 526 434 511Q471 496 494 473Q533 435 533 364Z" glyph-name="e" horiz-adv-x="567" unicode="e" /><glyph d="M420 0H27L127 541H514L496 443H242L220 326H438L419 225H201L178 98H438Z" glyph-name="e.small" horiz-adv-x="500" unicode="&#63333;" /><glyph d="M244 546Q231 546 218 542.5Q205 539 195 529Q185 519 180 505.5Q175 492 172 481H285Q287 489 288 496.5Q289 504 289 508Q289 516 287 523Q285 530 280 535Q269 546 244 546ZM377 509Q377 485 372 462.5Q367 440 361 418H158Q156 409 156 404.5Q156 400 156 394Q156 386 157.5 375.5Q159 365 167 357Q183 342 230 342Q247 342 278 345.5Q309 349 338 355L326 286Q297 278 261.5 273.5Q226 269 199 269Q157 269 129 279Q101 289 84 306Q70 320 62 342Q54 364 54 391Q54 413 58.5 438Q63 463 71 486Q79 509 91 530Q103 551 118 566Q146 594 181 603.5Q216 613 254 613Q289 613 313.5 603Q338 593 353 578Q377 552 377 509Z" glyph-name="e.superior" horiz-adv-x="359" unicode="&#58213;" /><glyph d="M386 565H273L406 678H567ZM329 429Q309 429 285 423.5Q261 418 241 398Q214 371 200 316H402Q405 327 407.5 339Q410 351 410 365Q410 375 407.5 387Q405 399 395 409Q384 420 366.5 424.5Q349 429 329 429ZM533 364Q533 329 526 294Q519 259 508 225H180Q178 211 176.5 199Q175 187 175 176Q175 159 179.5 142.5Q184 126 197 113Q213 97 238.5 91Q264 85 304 85Q318 85 338 86.5Q358 88 380 90.5Q402 93 424.5 96.5Q447 100 467 105L449 10Q430 4 406 -1Q382 -6 356.5 -9.5Q331 -13 306 -14.5Q281 -16 260 -16Q197 -16 154 0Q111 16 86 41Q63 64 50 99.5Q37 135 37 178Q37 214 42.5 252Q48 290 59.5 326.5Q71 363 89 395.5Q107 428 132 453Q175 496 231.5 511Q288 526 345 526Q397 526 434 511Q471 496 494 473Q533 435 533 364Z" glyph-name="eacute" horiz-adv-x="567" unicode="&#233;" /><glyph d="M375 597H262L395 710H556ZM420 0H27L127 541H514L496 443H242L220 326H438L419 225H201L178 98H438Z" glyph-name="eacute.small" horiz-adv-x="500" unicode="&#63465;" /><glyph d="M329 429Q309 429 285 423.5Q261 418 241 398Q214 371 200 316H402Q405 327 407.5 339Q410 351 410 365Q410 375 407.5 387Q405 399 395 409Q384 420 366.5 424.5Q349 429 329 429ZM533 364Q533 329 526 294Q519 259 508 225H180Q178 211 176.5 199Q175 187 175 176Q175 159 179.5 142.5Q184 126 197 113Q213 97 238.5 91Q264 85 304 85Q318 85 338 86.5Q358 88 380 90.5Q402 93 424.5 96.5Q447 100 467 105L449 10Q430 4 406 -1Q382 -6 356.5 -9.5Q331 -13 306 -14.5Q281 -16 260 -16Q197 -16 154 0Q111 16 86 41Q63 64 50 99.5Q37 135 37 178Q37 214 42.5 252Q48 290 59.5 326.5Q71 363 89 395.5Q107 428 132 453Q175 496 231.5 511Q288 526 345 526Q397 526 434 511Q471 496 494 473Q533 435 533 364ZM386 565H273L406 678H567ZM275 -197H151L171 -88H295Z" glyph-name="eacutedotbelow" horiz-adv-x="567" unicode="&#59232;" /><glyph d="M375 597H262L395 710H556ZM245 -197H121L141 -88H265ZM420 0H27L127 541H514L496 443H242L220 326H438L419 225H201L178 98H438Z" glyph-name="eacutedotbelow.small" horiz-adv-x="500" unicode="&#59234;" /><glyph d="M329 429Q309 429 285 423.5Q261 418 241 398Q214 371 200 316H402Q405 327 407.5 339Q410 351 410 365Q410 375 407.5 387Q405 399 395 409Q384 420 366.5 424.5Q349 429 329 429ZM533 364Q533 329 526 294Q519 259 508 225H180Q178 211 176.5 199Q175 187 175 176Q175 159 179.5 142.5Q184 126 197 113Q213 97 238.5 91Q264 85 304 85Q318 85 338 86.5Q358 88 380 90.5Q402 93 424.5 96.5Q447 100 467 105L449 10Q430 4 406 -1Q382 -6 356.5 -9.5Q331 -13 306 -14.5Q281 -16 260 -16Q197 -16 154 0Q111 16 86 41Q63 64 50 99.5Q37 135 37 178Q37 214 42.5 252Q48 290 59.5 326.5Q71 363 89 395.5Q107 428 132 453Q175 496 231.5 511Q288 526 345 526Q397 526 434 511Q471 496 494 473Q533 435 533 364ZM360 627Q384 627 403 632Q422 637 436 651Q446 661 454 678H560Q552 656 544 640Q536 624 520 608Q489 577 446 564Q403 551 352 551Q307 551 272.5 561Q238 571 216 593Q201 608 191 629Q181 650 182 678H284Q285 658 298 645Q316 627 360 627Z" glyph-name="ebreve" horiz-adv-x="567" unicode="&#277;" /><glyph d="M341 659Q365 659 384 664Q403 669 417 683Q427 693 435 710H541Q533 688 525 672Q517 656 501 640Q470 609 427 596Q384 583 333 583Q288 583 253.5 593Q219 603 197 625Q182 640 172 661Q162 682 163 710H265Q266 690 279 677Q297 659 341 659ZM420 0H27L127 541H514L496 443H242L220 326H438L419 225H201L178 98H438Z" glyph-name="ebreve.small" horiz-adv-x="500" unicode="&#63018;" /><glyph d="M288 561 189 681H303L353 624L425 681H550L406 561ZM329 429Q309 429 285 423.5Q261 418 241 398Q214 371 200 316H402Q405 327 407.5 339Q410 351 410 365Q410 375 407.5 387Q405 399 395 409Q384 420 366.5 424.5Q349 429 329 429ZM533 364Q533 329 526 294Q519 259 508 225H180Q178 211 176.5 199Q175 187 175 176Q175 159 179.5 142.5Q184 126 197 113Q213 97 238.5 91Q264 85 304 85Q318 85 338 86.5Q358 88 380 90.5Q402 93 424.5 96.5Q447 100 467 105L449 10Q430 4 406 -1Q382 -6 356.5 -9.5Q331 -13 306 -14.5Q281 -16 260 -16Q197 -16 154 0Q111 16 86 41Q63 64 50 99.5Q37 135 37 178Q37 214 42.5 252Q48 290 59.5 326.5Q71 363 89 395.5Q107 428 132 453Q175 496 231.5 511Q288 526 345 526Q397 526 434 511Q471 496 494 473Q533 435 533 364Z" glyph-name="ecaron" horiz-adv-x="567" unicode="&#283;" /><glyph d="M279 593 180 713H294L344 656L416 713H541L397 593ZM420 0H27L127 541H514L496 443H242L220 326H438L419 225H201L178 98H438Z" glyph-name="ecaron.small" horiz-adv-x="500" unicode="&#63047;" /><glyph d="M429 681 528 561H414L364 618L292 561H167L311 681ZM329 429Q309 429 285 423.5Q261 418 241 398Q214 371 200 316H402Q405 327 407.5 339Q410 351 410 365Q410 375 407.5 387Q405 399 395 409Q384 420 366.5 424.5Q349 429 329 429ZM533 364Q533 329 526 294Q519 259 508 225H180Q178 211 176.5 199Q175 187 175 176Q175 159 179.5 142.5Q184 126 197 113Q213 97 238.5 91Q264 85 304 85Q318 85 338 86.5Q358 88 380 90.5Q402 93 424.5 96.5Q447 100 467 105L449 10Q430 4 406 -1Q382 -6 356.5 -9.5Q331 -13 306 -14.5Q281 -16 260 -16Q197 -16 154 0Q111 16 86 41Q63 64 50 99.5Q37 135 37 178Q37 214 42.5 252Q48 290 59.5 326.5Q71 363 89 395.5Q107 428 132 453Q175 496 231.5 511Q288 526 345 526Q397 526 434 511Q471 496 494 473Q533 435 533 364Z" glyph-name="ecircumflex" horiz-adv-x="567" unicode="&#234;" /><glyph d="M422 713 521 593H407L357 650L285 593H160L304 713ZM420 0H27L127 541H514L496 443H242L220 326H438L419 225H201L178 98H438Z" glyph-name="ecircumflex.small" horiz-adv-x="500" unicode="&#63466;" /><glyph d="M529 572H403L422 676H548ZM304 572H178L197 676H323ZM329 429Q309 429 285 423.5Q261 418 241 398Q214 371 200 316H402Q405 327 407.5 339Q410 351 410 365Q410 375 407.5 387Q405 399 395 409Q384 420 366.5 424.5Q349 429 329 429ZM533 364Q533 329 526 294Q519 259 508 225H180Q178 211 176.5 199Q175 187 175 176Q175 159 179.5 142.5Q184 126 197 113Q213 97 238.5 91Q264 85 304 85Q318 85 338 86.5Q358 88 380 90.5Q402 93 424.5 96.5Q447 100 467 105L449 10Q430 4 406 -1Q382 -6 356.5 -9.5Q331 -13 306 -14.5Q281 -16 260 -16Q197 -16 154 0Q111 16 86 41Q63 64 50 99.5Q37 135 37 178Q37 214 42.5 252Q48 290 59.5 326.5Q71 363 89 395.5Q107 428 132 453Q175 496 231.5 511Q288 526 345 526Q397 526 434 511Q471 496 494 473Q533 435 533 364Z" glyph-name="edieresis" horiz-adv-x="567" unicode="&#235;" /><glyph d="M508 604H382L401 708H527ZM283 604H157L176 708H302ZM420 0H27L127 541H514L496 443H242L220 326H438L419 225H201L178 98H438Z" glyph-name="edieresis.small" horiz-adv-x="500" unicode="&#63467;" /><glyph d="M422 574H290L309 678H441ZM329 429Q309 429 285 423.5Q261 418 241 398Q214 371 200 316H402Q405 327 407.5 339Q410 351 410 365Q410 375 407.5 387Q405 399 395 409Q384 420 366.5 424.5Q349 429 329 429ZM533 364Q533 329 526 294Q519 259 508 225H180Q178 211 176.5 199Q175 187 175 176Q175 159 179.5 142.5Q184 126 197 113Q213 97 238.5 91Q264 85 304 85Q318 85 338 86.5Q358 88 380 90.5Q402 93 424.5 96.5Q447 100 467 105L449 10Q430 4 406 -1Q382 -6 356.5 -9.5Q331 -13 306 -14.5Q281 -16 260 -16Q197 -16 154 0Q111 16 86 41Q63 64 50 99.5Q37 135 37 178Q37 214 42.5 252Q48 290 59.5 326.5Q71 363 89 395.5Q107 428 132 453Q175 496 231.5 511Q288 526 345 526Q397 526 434 511Q471 496 494 473Q533 435 533 364Z" glyph-name="edotaccent" horiz-adv-x="567" unicode="&#279;" /><glyph d="M409 606H277L296 710H428ZM420 0H27L127 541H514L496 443H242L220 326H438L419 225H201L178 98H438Z" glyph-name="edotaccent.small" horiz-adv-x="500" unicode="&#63048;" /><glyph d="M91 678H231L320 563H228ZM277 678H417L506 563H414ZM329 429Q309 429 285 423.5Q261 418 241 398Q214 371 200 316H402Q405 327 407.5 339Q410 351 410 365Q410 375 407.5 387Q405 399 395 409Q384 420 366.5 424.5Q349 429 329 429ZM533 364Q533 329 526 294Q519 259 508 225H180Q178 211 176.5 199Q175 187 175 176Q175 159 179.5 142.5Q184 126 197 113Q213 97 238.5 91Q264 85 304 85Q318 85 338 86.5Q358 88 380 90.5Q402 93 424.5 96.5Q447 100 467 105L449 10Q430 4 406 -1Q382 -6 356.5 -9.5Q331 -13 306 -14.5Q281 -16 260 -16Q197 -16 154 0Q111 16 86 41Q63 64 50 99.5Q37 135 37 178Q37 214 42.5 252Q48 290 59.5 326.5Q71 363 89 395.5Q107 428 132 453Q175 496 231.5 511Q288 526 345 526Q397 526 434 511Q471 496 494 473Q533 435 533 364Z" glyph-name="edoublegrave" horiz-adv-x="567" unicode="&#513;" /><glyph d="M76 710H216L305 595H213ZM262 710H402L491 595H399ZM420 0H27L127 541H514L496 443H242L220 326H438L419 225H201L178 98H438Z" glyph-name="edoublegrave.small" horiz-adv-x="500" unicode="&#59235;" /><glyph d="M178 678H332L423 565H317ZM329 429Q309 429 285 423.5Q261 418 241 398Q214 371 200 316H402Q405 327 407.5 339Q410 351 410 365Q410 375 407.5 387Q405 399 395 409Q384 420 366.5 424.5Q349 429 329 429ZM533 364Q533 329 526 294Q519 259 508 225H180Q178 211 176.5 199Q175 187 175 176Q175 159 179.5 142.5Q184 126 197 113Q213 97 238.5 91Q264 85 304 85Q318 85 338 86.5Q358 88 380 90.5Q402 93 424.5 96.5Q447 100 467 105L449 10Q430 4 406 -1Q382 -6 356.5 -9.5Q331 -13 306 -14.5Q281 -16 260 -16Q197 -16 154 0Q111 16 86 41Q63 64 50 99.5Q37 135 37 178Q37 214 42.5 252Q48 290 59.5 326.5Q71 363 89 395.5Q107 428 132 453Q175 496 231.5 511Q288 526 345 526Q397 526 434 511Q471 496 494 473Q533 435 533 364Z" glyph-name="egrave" horiz-adv-x="567" unicode="&#232;" /><glyph d="M177 710H331L422 597H316ZM420 0H27L127 541H514L496 443H242L220 326H438L419 225H201L178 98H438Z" glyph-name="egrave.small" horiz-adv-x="500" unicode="&#63464;" /><glyph d="M329 429Q309 429 285 423.5Q261 418 241 398Q214 371 200 316H402Q405 327 407.5 339Q410 351 410 365Q410 375 407.5 387Q405 399 395 409Q384 420 366.5 424.5Q349 429 329 429ZM533 364Q533 329 526 294Q519 259 508 225H180Q178 211 176.5 199Q175 187 175 176Q175 159 179.5 142.5Q184 126 197 113Q213 97 238.5 91Q264 85 304 85Q318 85 338 86.5Q358 88 380 90.5Q402 93 424.5 96.5Q447 100 467 105L449 10Q430 4 406 -1Q382 -6 356.5 -9.5Q331 -13 306 -14.5Q281 -16 260 -16Q197 -16 154 0Q111 16 86 41Q63 64 50 99.5Q37 135 37 178Q37 214 42.5 252Q48 290 59.5 326.5Q71 363 89 395.5Q107 428 132 453Q175 496 231.5 511Q288 526 345 526Q397 526 434 511Q471 496 494 473Q533 435 533 364ZM179 678H333L424 565H318ZM275 -197H151L171 -88H295Z" glyph-name="egravedotbelow" horiz-adv-x="567" unicode="&#59236;" /><glyph d="M177 710H331L422 597H316ZM245 -197H121L141 -88H265ZM420 0H27L127 541H514L496 443H242L220 326H438L419 225H201L178 98H438Z" glyph-name="egravedotbelow.small" horiz-adv-x="500" unicode="&#59238;" /><glyph d="M357 396Q386 396 408 403.5Q430 411 450 428Q471 446 479.5 473Q488 500 488 526Q488 538 484 551Q480 564 471 573Q460 584 441.5 590.5Q423 597 394 597Q357 597 333 587.5Q309 578 294 562Q277 544 269.5 519Q262 494 262 471Q262 454 267 442.5Q272 431 282 421Q296 407 313.5 401.5Q331 396 357 396ZM303 84Q329 84 358 90.5Q387 97 410 120Q430 139 437.5 167Q445 195 445 218Q445 249 427 267Q413 282 391.5 289Q370 296 338 296Q304 296 275.5 287Q247 278 224 255Q206 237 198.5 212Q191 187 191 164Q191 146 196.5 133.5Q202 121 212 111Q228 95 254 89.5Q280 84 303 84ZM410 694Q469 694 517.5 677Q566 660 595 631Q612 614 621.5 590.5Q631 567 631 539Q631 492 612 453.5Q593 415 563 385Q541 363 511 344V342Q528 332 543 317Q563 297 573.5 270Q584 243 584 213Q584 167 568.5 126.5Q553 86 523 56Q501 34 473.5 20Q446 6 415 -2Q384 -10 351.5 -13Q319 -16 288 -16Q224 -16 174 -1.5Q124 13 93 44Q74 63 62 91.5Q50 120 50 152Q50 200 67 239Q84 278 114 309Q129 325 147 337Q165 349 185 359V361Q181 364 177.5 367Q174 370 170 374Q125 419 125 482Q125 524 140 562Q155 600 182 627Q223 668 282 681Q341 694 410 694Z" glyph-name="eight" horiz-adv-x="661" unicode="8" /><glyph d="M355 396Q384 396 406 403.5Q428 411 448 428Q469 446 477.5 473Q486 500 486 526Q486 538 482 551Q478 564 469 573Q458 584 439.5 590.5Q421 597 392 597Q355 597 331 587.5Q307 578 292 562Q275 544 267.5 519Q260 494 260 471Q260 454 265 442.5Q270 431 280 421Q294 407 311.5 401.5Q329 396 355 396ZM301 84Q327 84 356 90.5Q385 97 408 120Q428 139 435.5 167Q443 195 443 218Q443 249 425 267Q411 282 389.5 289Q368 296 336 296Q302 296 273.5 287Q245 278 222 255Q204 237 196.5 212Q189 187 189 164Q189 146 194.5 133.5Q200 121 210 111Q226 95 252 89.5Q278 84 301 84ZM408 694Q467 694 515.5 677Q564 660 593 631Q610 614 619.5 590.5Q629 567 629 539Q629 492 610 453.5Q591 415 561 385Q539 363 509 344V342Q526 332 541 317Q561 297 571.5 270Q582 243 582 213Q582 167 566.5 126.5Q551 86 521 56Q499 34 471.5 20Q444 6 413 -2Q382 -10 349.5 -13Q317 -16 286 -16Q222 -16 172 -1.5Q122 13 91 44Q72 63 60 91.5Q48 120 48 152Q48 200 65 239Q82 278 112 309Q127 325 145 337Q163 349 183 359V361Q179 364 175.5 367Q172 370 168 374Q123 419 123 482Q123 524 138 562Q153 600 180 627Q221 668 280 681Q339 694 408 694Z" glyph-name="eight.LP" horiz-adv-x="656" unicode="&#58685;" /><glyph d="M356 396Q385 396 407 403.5Q429 411 449 428Q470 446 478.5 473Q487 500 487 526Q487 538 483 551Q479 564 470 573Q459 584 440.5 590.5Q422 597 393 597Q356 597 332 587.5Q308 578 293 562Q276 544 268.5 519Q261 494 261 471Q261 454 266 442.5Q271 431 281 421Q295 407 312.5 401.5Q330 396 356 396ZM302 84Q328 84 357 90.5Q386 97 409 120Q429 139 436.5 167Q444 195 444 218Q444 249 426 267Q412 282 390.5 289Q369 296 337 296Q303 296 274.5 287Q246 278 223 255Q205 237 197.5 212Q190 187 190 164Q190 146 195.5 133.5Q201 121 211 111Q227 95 253 89.5Q279 84 302 84ZM409 694Q468 694 516.5 677Q565 660 594 631Q611 614 620.5 590.5Q630 567 630 539Q630 492 611 453.5Q592 415 562 385Q540 363 510 344V342Q527 332 542 317Q562 297 572.5 270Q583 243 583 213Q583 167 567.5 126.5Q552 86 522 56Q500 34 472.5 20Q445 6 414 -2Q383 -10 350.5 -13Q318 -16 287 -16Q223 -16 173 -1.5Q123 13 92 44Q73 63 61 91.5Q49 120 49 152Q49 200 66 239Q83 278 113 309Q128 325 146 337Q164 349 184 359V361Q180 364 176.5 367Q173 370 169 374Q124 419 124 482Q124 524 139 562Q154 600 181 627Q222 668 281 681Q340 694 409 694Z" glyph-name="eight.LT" horiz-adv-x="660" unicode="&#58696;" /><glyph d="M356 396Q385 396 407 403.5Q429 411 449 428Q470 446 478.5 473Q487 500 487 526Q487 538 483 551Q479 564 470 573Q459 584 440.5 590.5Q422 597 393 597Q356 597 332 587.5Q308 578 293 562Q276 544 268.5 519Q261 494 261 471Q261 454 266 442.5Q271 431 281 421Q295 407 312.5 401.5Q330 396 356 396ZM302 84Q328 84 357 90.5Q386 97 409 120Q429 139 436.5 167Q444 195 444 218Q444 249 426 267Q412 282 390.5 289Q369 296 337 296Q303 296 274.5 287Q246 278 223 255Q205 237 197.5 212Q190 187 190 164Q190 146 195.5 133.5Q201 121 211 111Q227 95 253 89.5Q279 84 302 84ZM409 694Q468 694 516.5 677Q565 660 594 631Q611 614 620.5 590.5Q630 567 630 539Q630 492 611 453.5Q592 415 562 385Q540 363 510 344V342Q527 332 542 317Q562 297 572.5 270Q583 243 583 213Q583 167 567.5 126.5Q552 86 522 56Q500 34 472.5 20Q445 6 414 -2Q383 -10 350.5 -13Q318 -16 287 -16Q223 -16 173 -1.5Q123 13 92 44Q73 63 61 91.5Q49 120 49 152Q49 200 66 239Q83 278 113 309Q128 325 146 337Q164 349 184 359V361Q180 364 176.5 367Q173 370 169 374Q124 419 124 482Q124 524 139 562Q154 600 181 627Q222 668 281 681Q340 694 409 694Z" glyph-name="eight.OT" horiz-adv-x="660" unicode="&#58718;" /><glyph d="M145 46Q173 46 186 59Q195 68 198.5 80Q202 92 202 103Q202 117 195 124Q185 134 162 134Q149 134 138 131Q127 128 120 121Q111 112 108 100Q105 88 105 77Q105 64 114 55Q123 46 145 46ZM117 -110Q127 -110 140 -107.5Q153 -105 163 -95Q172 -86 175.5 -74.5Q179 -63 179 -52Q179 -37 171 -29Q165 -22 156 -20Q147 -18 134 -18Q120 -18 107.5 -21.5Q95 -25 87 -33Q79 -41 75.5 -52.5Q72 -64 72 -75Q72 -89 81 -98Q88 -105 98 -107.5Q108 -110 117 -110ZM174 198Q245 198 278 163Q287 154 293 140Q299 126 299 112Q299 89 289.5 68Q280 47 264 32Q255 23 240 13V12Q248 8 256 0Q267 -11 272 -25Q277 -39 277 -54Q277 -78 266.5 -99.5Q256 -121 240 -136Q214 -160 178 -168Q142 -176 104 -176Q70 -176 42 -168Q14 -160 -4 -142Q-14 -132 -20.5 -117.5Q-27 -103 -27 -86Q-27 -60 -17.5 -39Q-8 -18 6 -4Q23 13 40 20V21Q38 22 35 25Q11 49 11 82Q11 104 19.5 124Q28 144 42 158Q65 181 99.5 189.5Q134 198 174 198Z" glyph-name="eight.inf" horiz-adv-x="368" unicode="&#58745;" /><glyph d="M361 614Q337 614 318 609Q299 604 285 590Q274 579 267 563H161Q169 585 177 601Q185 617 201 633Q232 664 275 677Q318 690 369 690Q414 690 448.5 680Q483 670 505 648Q520 633 530 612Q540 591 539 563H437Q436 583 423 596Q405 614 361 614ZM329 429Q309 429 285 423.5Q261 418 241 398Q214 371 200 316H402Q405 327 407.5 339Q410 351 410 365Q410 375 407.5 387Q405 399 395 409Q384 420 366.5 424.5Q349 429 329 429ZM533 364Q533 329 526 294Q519 259 508 225H180Q178 211 176.5 199Q175 187 175 176Q175 159 179.5 142.5Q184 126 197 113Q213 97 238.5 91Q264 85 304 85Q318 85 338 86.5Q358 88 380 90.5Q402 93 424.5 96.5Q447 100 467 105L449 10Q430 4 406 -1Q382 -6 356.5 -9.5Q331 -13 306 -14.5Q281 -16 260 -16Q197 -16 154 0Q111 16 86 41Q63 64 50 99.5Q37 135 37 178Q37 214 42.5 252Q48 290 59.5 326.5Q71 363 89 395.5Q107 428 132 453Q175 496 231.5 511Q288 526 345 526Q397 526 434 511Q471 496 494 473Q533 435 533 364Z" glyph-name="einvertedbreve" horiz-adv-x="567" unicode="&#519;" /><glyph d="M341 646Q317 646 298 641Q279 636 265 622Q254 611 247 595H141Q149 617 157 633Q165 649 181 665Q212 696 255 709Q298 722 349 722Q394 722 428.5 712Q463 702 485 680Q500 665 510 644Q520 623 519 595H417Q416 615 403 628Q385 646 341 646ZM420 0H27L127 541H514L496 443H242L220 326H438L419 225H201L178 98H438Z" glyph-name="einvertedbreve.small" horiz-adv-x="500" unicode="&#59239;" /><glyph d="M993 0H838L863 137H1018ZM569 0H414L439 137H594ZM145 0H-10L15 137H170Z" glyph-name="ellipsis" horiz-adv-x="1077" unicode="&#8230;" /><glyph d="M532 588H172L189 678H549ZM329 429Q309 429 285 423.5Q261 418 241 398Q214 371 200 316H402Q405 327 407.5 339Q410 351 410 365Q410 375 407.5 387Q405 399 395 409Q384 420 366.5 424.5Q349 429 329 429ZM533 364Q533 329 526 294Q519 259 508 225H180Q178 211 176.5 199Q175 187 175 176Q175 159 179.5 142.5Q184 126 197 113Q213 97 238.5 91Q264 85 304 85Q318 85 338 86.5Q358 88 380 90.5Q402 93 424.5 96.5Q447 100 467 105L449 10Q430 4 406 -1Q382 -6 356.5 -9.5Q331 -13 306 -14.5Q281 -16 260 -16Q197 -16 154 0Q111 16 86 41Q63 64 50 99.5Q37 135 37 178Q37 214 42.5 252Q48 290 59.5 326.5Q71 363 89 395.5Q107 428 132 453Q175 496 231.5 511Q288 526 345 526Q397 526 434 511Q471 496 494 473Q533 435 533 364Z" glyph-name="emacron" horiz-adv-x="567" unicode="&#275;" /><glyph d="M514 620H154L171 710H531ZM420 0H27L127 541H514L496 443H242L220 326H438L419 225H201L178 98H438Z" glyph-name="emacron.small" horiz-adv-x="500" unicode="&#63049;" /><glyph d="M1113 215H39L59 322H1133Z" glyph-name="emdash" horiz-adv-x="1168" unicode="&#8212;" /><glyph d="M1126 292H52L72 399H1146Z" glyph-name="emdash.cap" horiz-adv-x="1168" unicode="&#58502;" /><glyph glyph-name="emspace" horiz-adv-x="1000" unicode="&#8195;" /><glyph d="M576 215H39L59 322H596Z" glyph-name="endash" horiz-adv-x="631" unicode="&#8211;" /><glyph d="M589 292H52L72 399H609Z" glyph-name="endash.cap" horiz-adv-x="631" unicode="&#58500;" /><glyph d="M282 -168Q298 -146 314.5 -118.5Q331 -91 345 -60Q359 -29 369.5 3.5Q380 36 386 67L436 339Q444 383 431.5 400Q419 417 377 417Q357 417 336 410.5Q315 404 294.5 393Q274 382 255.5 368.5Q237 355 224 341L162 0H30L123 510H215L221 443H223Q274 487 325.5 504.5Q377 522 427 522Q522 522 554.5 480.5Q587 439 571 355L537 163Q526 107 516.5 61Q507 15 493.5 -24.5Q480 -64 460.5 -99Q441 -134 411 -168Z" glyph-name="eng" horiz-adv-x="620" unicode="&#331;" /><glyph d="M376 302Q385 282 392.5 265Q400 248 406 233Q412 218 417.5 203Q423 188 429 172H431Q434 194 438 220Q442 246 446 271.5Q450 297 454 321.5Q458 346 461 365L493 541H621L537 86Q529 44 519.5 10Q510 -24 497 -54Q484 -84 466 -111.5Q448 -139 423 -168H285Q318 -127 343 -85.5Q368 -44 384 2L271 239Q250 283 238.5 312Q227 341 218 369H216Q213 347 209.5 321Q206 295 202 269.5Q198 244 194 219.5Q190 195 186 176L154 0H27L127 541H268Z" glyph-name="eng.small" horiz-adv-x="642" unicode="&#63019;" /><glyph glyph-name="enspace" horiz-adv-x="500" unicode="&#8194;" /><glyph d="M329 429Q309 429 285 423.5Q261 418 241 398Q214 371 200 316H402Q405 327 407.5 339Q410 351 410 365Q410 375 407.5 387Q405 399 395 409Q384 420 366.5 424.5Q349 429 329 429ZM533 364Q533 329 526 294Q519 259 508 225H180Q178 211 176.5 199Q175 187 175 176Q175 159 179.5 142.5Q184 126 197 113Q213 97 238.5 91Q264 85 304 85Q318 85 338 86.5Q358 88 380 90.5Q402 93 424.5 96.5Q447 100 467 105L449 10Q400 -13 380.5 -39.5Q361 -66 358 -82Q352 -113 393 -113Q410 -113 425.5 -111Q441 -109 463 -102L450 -170Q427 -178 400 -181Q373 -184 356 -184Q302 -184 277 -163.5Q252 -143 259 -106Q264 -81 280.5 -57Q297 -33 322 -13Q289 -16 260 -16Q197 -16 154 0Q111 16 86 41Q63 64 50 99.5Q37 135 37 178Q37 214 42.5 252Q48 290 59.5 326.5Q71 363 89 395.5Q107 428 132 453Q175 496 231.5 511Q288 526 345 526Q397 526 434 511Q471 496 494 473Q533 435 533 364Z" glyph-name="eogonek" horiz-adv-x="567" unicode="&#281;" /><glyph d="M368 -36Q358 -46 349.5 -59.5Q341 -73 341 -87Q341 -99 347 -105Q355 -113 377 -113Q394 -113 409.5 -111Q425 -109 447 -102L434 -170Q411 -178 384 -181Q357 -184 340 -184Q283 -184 260 -162Q252 -154 247 -141Q242 -128 242 -116Q242 -90 254 -70Q266 -50 286 -30Q302 -14 325 0H27L127 541H514L496 443H242L220 326H438L419 225H201L178 98H438L420 0Q402 -8 389.5 -17.5Q377 -27 368 -36Z" glyph-name="eogonek.small" horiz-adv-x="500" unicode="&#63050;" /></font>
</defs>
</svg>
